<svg width="101" height="100" viewBox="0 0 101 100" fill="none" xmlns="http://www.w3.org/2000/svg">
<g filter="url(#filter0_ii_0_6632)">
<path d="M0.122314 25C0.122314 11.1929 11.3152 0 25.1223 0H75.1223C88.9294 0 100.122 11.1929 100.122 25V75C100.122 88.8071 88.9294 100 75.1223 100H0.122314V25Z" fill="white"/>
</g>
<path d="M0.622314 25C0.622314 11.469 11.5913 0.5 25.1223 0.5H75.1223C88.6533 0.5 99.6223 11.469 99.6223 25V75C99.6223 88.531 88.6533 99.5 75.1223 99.5H0.622314V25Z" stroke="white"/>
<rect x="27.0002" y="27" width="45" height="45" rx="6" fill="url(#paint0_linear_0_6632)"/>
<g clip-path="url(#clip0_0_6632)">
<path fill-rule="evenodd" clip-rule="evenodd" d="M57.7714 31.1774L57.594 31.3548V37.9375V44.5202L57.7714 44.6976C57.8832 44.8095 58.0314 44.875 58.1721 44.875C58.3129 44.875 58.4611 44.8095 58.5729 44.6976L58.7503 44.5202V38.3382V32.1562H61.6409H64.5315V37.182V42.2077L64.7089 42.3851C64.8207 42.497 64.9689 42.5625 65.1096 42.5625C65.2504 42.5625 65.3986 42.497 65.5104 42.3851L65.6878 42.2077V36.7812V31.3548L65.5104 31.1774L65.333 31H61.6409H57.9488L57.7714 31.1774ZM45.6308 42.7399L45.4534 42.9173V46.3203V49.7234L45.6308 49.9007C45.7426 50.0126 45.8907 50.0781 46.0315 50.0781C46.1723 50.0781 46.3204 50.0126 46.4322 49.9007L46.6096 49.7234V46.721V43.7188H49.5003H52.3909V48.4554V53.1921L52.5683 53.3695C52.6801 53.4813 52.8282 53.5469 52.969 53.5469C53.1098 53.5469 53.2579 53.4813 53.3697 53.3695L53.5471 53.1921V48.0547V42.9173L53.3697 42.7399L53.1924 42.5625H49.5003H45.8081L45.6308 42.7399ZM62.9055 44.4434C60.5208 45.152 58.3962 45.7855 58.1842 45.851C57.8635 45.9502 57.7817 46.011 57.6971 46.2134C57.6412 46.3473 57.6158 46.5155 57.6406 46.5873C57.6654 46.659 58.0551 47.092 58.5066 47.5495L59.3275 48.3812L55.2825 52.4257L51.2375 56.4702L48.6165 53.8673C45.7654 51.036 45.6382 50.9358 44.7342 50.8122C43.8909 50.6969 42.9809 50.963 42.3722 51.503C42.2475 51.6136 39.8113 54.2244 36.9585 57.3047C34.1057 60.385 31.598 63.0898 31.3859 63.3155C30.9369 63.7931 30.8834 64.0596 31.1777 64.3538C31.4475 64.6238 31.7529 64.592 32.0769 64.2603C32.2226 64.1112 34.7905 61.3486 37.7835 58.1212C41.9154 53.6656 43.2978 52.2186 43.5264 52.1097C43.9974 51.8854 44.307 51.8565 44.7789 51.9926C45.1924 52.1119 45.256 52.1696 48.0948 54.9985C50.7816 57.676 51.007 57.8828 51.2377 57.8828C51.4702 57.8828 51.7849 57.5843 56.0939 53.2752C60.4393 48.9298 60.7014 48.6533 60.7014 48.4139C60.7014 48.1896 60.6219 48.0811 60.0149 47.4766C59.6373 47.1006 59.3284 46.773 59.3284 46.7487C59.3284 46.7244 59.4504 46.6694 59.5994 46.6264C59.7485 46.5834 61.3775 46.1043 63.2195 45.5618C65.0615 45.0193 66.585 44.5919 66.605 44.612C66.6481 44.655 65.0738 52.306 65.0085 52.3714C64.9839 52.3959 64.6596 52.1176 64.2877 51.753C63.7526 51.2282 63.5683 51.0898 63.4042 51.0898C63.226 51.0898 62.4308 51.8554 57.7396 56.5428C53.5281 60.7511 52.2083 62.0291 51.9573 62.1418C51.5299 62.3337 50.9385 62.3335 50.512 62.1413C50.269 62.0317 49.4745 61.2836 47.3672 59.18C44.6775 56.4949 44.5354 56.3652 44.2815 56.3652C44.0198 56.3652 43.9432 56.447 39.7686 61.189C37.433 63.842 35.2851 66.2804 34.9955 66.6075C34.5856 67.0706 34.469 67.2514 34.469 67.4238C34.469 67.8859 35.0516 68.169 35.3949 67.8735C35.4757 67.8039 37.4997 65.5195 39.8927 62.7969C42.2857 60.0743 44.2755 57.8346 44.3146 57.8199C44.3536 57.8052 45.5607 58.9661 46.9971 60.3999C50.0735 63.4705 49.9901 63.4113 51.2346 63.4108C52.5288 63.4104 52.0287 63.8213 58.0649 57.7993C60.9669 54.904 63.3717 52.5352 63.4089 52.5352C63.4459 52.5352 63.855 52.9091 64.3178 53.3662C65.2332 54.2704 65.3733 54.337 65.7235 54.0347C65.8996 53.8825 65.9788 53.5479 66.956 48.8214C67.5303 46.0435 68.0003 43.7088 68.0003 43.633C68.0003 43.4215 67.6767 43.1395 67.4435 43.1478C67.3324 43.1517 65.2903 43.7347 62.9055 44.4434ZM33.4902 49.6774L33.3128 49.8548V54.4141V58.9734L33.4902 59.1507C33.7248 59.3854 34.057 59.3854 34.2916 59.1507L34.469 58.9734V54.8148V50.6562H37.3596H40.2503V51.057C40.2503 51.5392 40.4594 51.8125 40.8284 51.8125C40.9692 51.8125 41.1173 51.747 41.2291 51.6351C41.3961 51.4681 41.4065 51.4108 41.4065 50.6562C41.4065 49.9017 41.3961 49.8444 41.2291 49.6774L41.0518 49.5H37.3596H33.6675L33.4902 49.6774ZM64.7089 55.4587L64.5315 55.636V61.6406V67.6452L64.7089 67.8226C64.8207 67.9345 64.9689 68 65.1096 68C65.2504 68 65.3986 67.9345 65.5104 67.8226L65.6878 67.6452V61.6406V55.636L65.5104 55.4587C65.3986 55.3468 65.2504 55.2812 65.1096 55.2812C64.9689 55.2812 64.8207 55.3468 64.7089 55.4587ZM57.7714 58.9274L57.594 59.1048V63.375V67.6452L57.7714 67.8226C57.8832 67.9345 58.0314 68 58.1721 68C58.3129 68 58.4611 67.9345 58.5729 67.8226L58.7503 67.6452V63.375V59.1048L58.5729 58.9274C58.4611 58.8155 58.3129 58.75 58.1721 58.75C58.0314 58.75 57.8832 58.8155 57.7714 58.9274ZM45.6308 60.6618L45.4534 60.8391V64.2422V67.6452L45.6308 67.8226C45.7426 67.9345 45.8907 68 46.0315 68C46.1723 68 46.3204 67.9345 46.4322 67.8226L46.6096 67.6452V64.2422V60.8391L46.4322 60.6618C46.3204 60.5499 46.1723 60.4844 46.0315 60.4844C45.8907 60.4844 45.7426 60.5499 45.6308 60.6618ZM40.4277 63.5524L40.2503 63.7298V65.6875V67.6452L40.4277 67.8226C40.5395 67.9345 40.6876 68 40.8284 68C40.9692 68 41.1173 67.9345 41.2291 67.8226L41.4065 67.6452V65.6875V63.7298L41.2291 63.5524C41.1173 63.4405 40.9692 63.375 40.8284 63.375C40.6876 63.375 40.5395 63.4405 40.4277 63.5524ZM52.5683 64.1305L52.3909 64.3079V65.9766V67.6452L52.5683 67.8226C52.6801 67.9345 52.8282 68 52.969 68C53.1098 68 53.2579 67.9345 53.3697 67.8226L53.5471 67.6452V65.9766V64.3079L53.3697 64.1305C53.2579 64.0187 53.1098 63.9531 52.969 63.9531C52.8282 63.9531 52.6801 64.0187 52.5683 64.1305Z" fill="white"/>
</g>
<defs>
<filter id="filter0_ii_0_6632" x="-3.87769" y="0" width="108" height="104" filterUnits="userSpaceOnUse" color-interpolation-filters="sRGB">
<feFlood flood-opacity="0" result="BackgroundImageFix"/>
<feBlend mode="normal" in="SourceGraphic" in2="BackgroundImageFix" result="shape"/>
<feColorMatrix in="SourceAlpha" type="matrix" values="0 0 0 0 0 0 0 0 0 0 0 0 0 0 0 0 0 0 127 0" result="hardAlpha"/>
<feOffset dx="4" dy="4"/>
<feGaussianBlur stdDeviation="15"/>
<feComposite in2="hardAlpha" operator="arithmetic" k2="-1" k3="1"/>
<feColorMatrix type="matrix" values="0 0 0 0 0.819608 0 0 0 0 0.85098 0 0 0 0 0.901961 0 0 0 1 0"/>
<feBlend mode="normal" in2="shape" result="effect1_innerShadow_0_6632"/>
<feColorMatrix in="SourceAlpha" type="matrix" values="0 0 0 0 0 0 0 0 0 0 0 0 0 0 0 0 0 0 127 0" result="hardAlpha"/>
<feOffset dx="-4" dy="4"/>
<feGaussianBlur stdDeviation="15"/>
<feComposite in2="hardAlpha" operator="arithmetic" k2="-1" k3="1"/>
<feColorMatrix type="matrix" values="0 0 0 0 1 0 0 0 0 1 0 0 0 0 1 0 0 0 0.5 0"/>
<feBlend mode="normal" in2="effect1_innerShadow_0_6632" result="effect2_innerShadow_0_6632"/>
</filter>
<linearGradient id="paint0_linear_0_6632" x1="26.9533" y1="49.4861" x2="71.935" y2="49.4861" gradientUnits="userSpaceOnUse">
<stop stop-color="#26A9E1"/>
<stop offset="1" stop-color="#3F6CFF"/>
</linearGradient>
<clipPath id="clip0_0_6632">
<rect width="37" height="37" fill="white" transform="translate(31.0002 31)"/>
</clipPath>
</defs>
</svg>
