<svg width="101" height="100" viewBox="0 0 101 100" fill="none" xmlns="http://www.w3.org/2000/svg">
<g filter="url(#filter0_ii_0_6663)">
<path d="M0.122314 25C0.122314 11.1929 11.3152 0 25.1223 0H75.1223C88.9294 0 100.122 11.1929 100.122 25V75C100.122 88.8071 88.9294 100 75.1223 100H0.122314V25Z" fill="white"/>
</g>
<path d="M0.622314 25C0.622314 11.469 11.5913 0.5 25.1223 0.5H75.1223C88.6533 0.5 99.6223 11.469 99.6223 25V75C99.6223 88.531 88.6533 99.5 75.1223 99.5H0.622314V25Z" stroke="white"/>
<rect x="27.0002" y="27" width="45" height="45" rx="6" fill="url(#paint0_linear_0_6663)"/>
<g clip-path="url(#clip0_0_6663)">
<path fill-rule="evenodd" clip-rule="evenodd" d="M52.6264 30.136C50.8794 30.4081 49.3058 31.2189 48.0737 32.4816C45.0414 35.5892 45.0418 40.43 48.0747 43.5402C49.1376 44.6303 50.3226 45.314 51.8623 45.7256C52.472 45.8885 52.6957 45.9105 53.7466 45.9105C54.7974 45.9105 55.0211 45.8885 55.6308 45.7256C57.1122 45.3295 58.3232 44.6424 59.351 43.6146C60.3788 42.5868 61.0659 41.3758 61.4619 39.8944C61.6249 39.2847 61.6468 39.061 61.6468 38.0102C61.6468 36.9594 61.6249 36.7356 61.4619 36.1259C61.0647 34.6402 60.3801 33.4359 59.3401 32.3935C57.9007 30.951 56.055 30.1571 53.9995 30.0962C53.4828 30.081 52.8649 30.0988 52.6264 30.136ZM52.4458 31.6416C49.9999 32.1766 48.1089 33.971 47.448 36.3842C47.3188 36.8555 47.2895 37.1559 47.2895 38.0102C47.2895 38.8644 47.3188 39.1649 47.448 39.6362C48.2646 42.6177 50.9837 44.6328 53.9995 44.4913C56.4876 44.3747 58.5743 42.9848 59.6406 40.734C60.0736 39.8201 60.2012 39.1998 60.2012 38.0102C60.2012 37.1595 60.1717 36.8536 60.0441 36.3842C59.4203 34.0907 57.6448 32.317 55.3725 31.7174C54.5424 31.4983 53.2535 31.465 52.4458 31.6416ZM53.3932 33.0525C53.1262 33.2004 53.0295 33.4486 53.024 33.9995L53.0191 34.5053L52.6446 34.7221C50.8846 35.7408 51.465 38.4612 53.4936 38.7019C54.0131 38.7636 54.2447 38.8697 54.3642 39.1008C54.6591 39.6711 54.2107 40.2678 53.5767 40.1488C53.4314 40.1216 53.165 39.9567 52.9208 39.7431C52.4511 39.332 52.1657 39.2779 51.8358 39.5372C51.5678 39.7481 51.4831 39.9972 51.5798 40.2902C51.6769 40.5844 52.2578 41.1355 52.6944 41.3476L53.0239 41.5078V41.9958C53.0239 42.5689 53.1217 42.8242 53.3957 42.9658C53.634 43.089 53.8243 43.0961 54.0564 42.9904C54.3409 42.8607 54.4689 42.5582 54.4716 42.0098L54.474 41.5151L54.8485 41.2983C56.6085 40.2796 56.0281 37.5592 53.9995 37.3185C53.48 37.2568 53.2484 37.1507 53.1289 36.9196C52.8361 36.3534 53.2872 35.7468 53.9086 35.871C54.0369 35.8967 54.2667 36.018 54.4192 36.1405C54.5757 36.2662 54.8155 36.3792 54.97 36.3999C55.2005 36.4308 55.2821 36.4023 55.4871 36.2191C55.9897 35.77 55.7384 35.1683 54.8555 34.7069L54.4696 34.5053L54.4694 34.0106C54.4693 33.679 54.4295 33.4487 54.3489 33.3122C54.147 32.9703 53.7406 32.8599 53.3932 33.0525ZM64.2457 46.2769C63.4114 46.549 62.9723 46.9758 62.2855 48.182C62.0081 48.6692 61.6238 49.2651 61.4314 49.5062C61.0194 50.0225 60.0988 50.7855 59.5448 51.0697L59.1528 51.2709L59.0331 51.0903C58.7322 50.6357 58.3205 50.278 57.8052 50.0233L57.2593 49.7534L53.0639 49.7172L48.8686 49.6811L47.7846 49.1601C46.3531 48.4719 45.7363 48.3183 44.3882 48.3141C43.2081 48.3105 42.6564 48.4357 41.5546 48.9568C39.8655 49.756 37.9056 51.5072 36.7813 53.2221C36.5989 53.5003 36.4429 53.7377 36.4347 53.7496C36.4264 53.7615 36.2976 53.6884 36.1483 53.587C35.8384 53.3768 35.6822 53.3597 35.4055 53.506C35.0683 53.6842 30.9977 57.8261 30.9438 58.0458C30.9169 58.1552 30.9138 58.3178 30.9368 58.4072C30.9598 58.4966 32.882 60.4722 35.2085 62.7973L39.4384 67.0248H39.7644H40.0903L42.3295 64.7822C44.4814 62.627 44.5688 62.5288 44.5688 62.2647C44.5688 62.0269 44.5099 61.9285 44.131 61.534L43.6932 61.078L43.9615 60.8175C44.2662 60.5216 44.6688 60.2824 45.2728 60.0386L45.6889 59.8705L51.4341 59.8317C57.0945 59.7935 57.1877 59.7905 57.7573 59.6319C58.5996 59.3972 59.2425 59.068 60.4456 58.2553C63.1522 56.4269 65.1855 54.4216 66.5749 52.2104C67.0746 51.415 67.6377 50.2578 67.8049 49.6827C68.1696 48.4281 67.5015 47.0241 66.2643 46.4451C65.8628 46.2572 65.6774 46.2156 65.1657 46.1983C64.7841 46.1855 64.4346 46.2153 64.2457 46.2769ZM64.4277 47.769C64.1203 47.9313 63.8907 48.2142 63.6089 48.7778C62.8149 50.366 61.4122 51.7756 59.8458 52.5594C59.4914 52.7367 59.474 52.7595 59.3954 53.1511C59.2115 54.0671 58.6131 54.8173 57.7342 55.2336L57.2514 55.4623L53.2446 55.4833C50.2863 55.4988 49.1839 55.482 49.0317 55.4189C48.8117 55.3279 48.6157 55.0248 48.6157 54.7758C48.6157 54.5665 48.8005 54.2282 48.9563 54.1522C49.0273 54.1176 50.8793 54.073 53.072 54.0532L57.0585 54.017L57.3662 53.8002C58.2149 53.2023 58.2149 52.0135 57.3663 51.4155L57.0586 51.1987L52.8552 51.1625L48.6518 51.1263L48.1821 50.9372C47.9237 50.8333 47.4197 50.6 47.062 50.4189C46.0278 49.8951 45.3357 49.7189 44.3094 49.7178C43.2754 49.7166 41.9375 50.2246 40.8471 51.0321C39.7913 51.814 38.2751 53.4795 37.6536 54.5399L37.465 54.8617L40.0519 57.4494L42.6388 60.037L43.1092 59.6378C43.368 59.4184 43.8459 59.1111 44.1712 58.9549C45.3194 58.404 44.894 58.4374 51.3257 58.3929L57.1069 58.353L57.717 58.1401C58.1699 57.982 58.6259 57.728 59.4875 57.1538C62.6691 55.0333 64.818 52.7487 66.0432 50.1838C66.4489 49.3345 66.5241 48.9944 66.3938 48.5993C66.2804 48.2557 65.9182 47.8439 65.6196 47.7192C65.2865 47.58 64.7425 47.6027 64.4277 47.769ZM34.1441 56.7094L32.6453 58.2094L36.2047 61.7682L39.764 65.327L41.2991 63.7907L42.8341 62.2544L39.3111 58.7319C37.3734 56.7946 35.7553 55.2094 35.7153 55.2094C35.6754 55.2094 34.9683 55.8844 34.1441 56.7094ZM37.9283 60.1521C37.6041 60.3317 37.4724 60.7576 37.6394 61.0858C37.7553 61.3134 38.7164 62.2835 38.9465 62.4051C39.3826 62.6355 39.8693 62.4327 39.9849 61.9725C40.0622 61.6642 39.9667 61.4641 39.5292 61.0179C38.5698 60.0394 38.348 59.9195 37.9283 60.1521Z" fill="white"/>
</g>
<defs>
<filter id="filter0_ii_0_6663" x="-3.87769" y="0" width="108" height="104" filterUnits="userSpaceOnUse" color-interpolation-filters="sRGB">
<feFlood flood-opacity="0" result="BackgroundImageFix"/>
<feBlend mode="normal" in="SourceGraphic" in2="BackgroundImageFix" result="shape"/>
<feColorMatrix in="SourceAlpha" type="matrix" values="0 0 0 0 0 0 0 0 0 0 0 0 0 0 0 0 0 0 127 0" result="hardAlpha"/>
<feOffset dx="4" dy="4"/>
<feGaussianBlur stdDeviation="15"/>
<feComposite in2="hardAlpha" operator="arithmetic" k2="-1" k3="1"/>
<feColorMatrix type="matrix" values="0 0 0 0 0.819608 0 0 0 0 0.85098 0 0 0 0 0.901961 0 0 0 1 0"/>
<feBlend mode="normal" in2="shape" result="effect1_innerShadow_0_6663"/>
<feColorMatrix in="SourceAlpha" type="matrix" values="0 0 0 0 0 0 0 0 0 0 0 0 0 0 0 0 0 0 127 0" result="hardAlpha"/>
<feOffset dx="-4" dy="4"/>
<feGaussianBlur stdDeviation="15"/>
<feComposite in2="hardAlpha" operator="arithmetic" k2="-1" k3="1"/>
<feColorMatrix type="matrix" values="0 0 0 0 1 0 0 0 0 1 0 0 0 0 1 0 0 0 0.5 0"/>
<feBlend mode="normal" in2="effect1_innerShadow_0_6663" result="effect2_innerShadow_0_6663"/>
</filter>
<linearGradient id="paint0_linear_0_6663" x1="26.9533" y1="49.4861" x2="71.935" y2="49.4861" gradientUnits="userSpaceOnUse">
<stop stop-color="#26A9E1"/>
<stop offset="1" stop-color="#3F6CFF"/>
</linearGradient>
<clipPath id="clip0_0_6663">
<rect width="37" height="37" fill="white" transform="translate(30.9106 30.061)"/>
</clipPath>
</defs>
</svg>
