<svg width="100" height="100" viewBox="0 0 100 100" fill="none" xmlns="http://www.w3.org/2000/svg">
<g filter="url(#filter0_ii_0_6653)">
<path d="M0.000488281 25C0.000488281 11.1929 11.1934 0 25.0005 0H75.0005C88.8076 0 100 11.1929 100 25V75C100 88.8071 88.8076 100 75.0005 100H0.000488281V25Z" fill="white"/>
</g>
<path d="M0.500488 25C0.500488 11.469 11.4695 0.5 25.0005 0.5H75.0005C88.5315 0.5 99.5005 11.469 99.5005 25V75C99.5005 88.531 88.5315 99.5 75.0005 99.5H0.500488V25Z" stroke="white"/>
<rect x="27.0005" y="27" width="45" height="45" rx="6" fill="url(#paint0_linear_0_6653)"/>
<g clip-path="url(#clip0_0_6653)">
<path fill-rule="evenodd" clip-rule="evenodd" d="M47.6718 34.4109C47.358 34.6749 47.212 34.9864 47.2552 35.2993C47.2975 35.6048 48.4241 38.3587 48.6255 38.649C49.0103 39.2032 49.8773 39.1849 50.2961 38.6135C50.5774 38.2299 50.5057 37.8769 49.808 36.2089C49.4588 35.3742 49.1193 34.6311 49.0535 34.5575C48.7095 34.1725 48.0395 34.1015 47.6718 34.4109ZM53.5726 34.3562C53.2742 34.5529 53.2351 34.6268 52.5556 36.2741C51.9089 37.8421 51.8478 38.1086 52.0433 38.5105C52.2845 39.0062 52.9724 39.2127 53.4282 38.9263C53.7541 38.7216 53.8259 38.5906 54.5059 36.9616C55.1452 35.4297 55.2115 35.1291 55.0003 34.7207C54.7602 34.2562 54.0134 34.0656 53.5726 34.3562ZM60.5683 36.2816C59.967 36.4062 59.0475 36.7619 58.5449 37.0643C57.8678 37.4716 57.245 38.0413 54.8833 40.4137C52.3578 42.9507 52.3473 42.9643 52.4743 43.5425C52.5415 43.8484 52.9548 44.2484 53.2637 44.3063C53.8093 44.4087 53.9122 44.3268 56.6298 41.6285C58.0408 40.2275 59.3375 38.993 59.5116 38.885C61.6035 37.5866 64.4201 38.2928 65.6747 40.4304C66.0948 41.1462 66.2651 41.8992 66.2234 42.8573C66.1849 43.7448 66.0145 44.3209 65.5891 45.0021C65.2256 45.5841 58.6109 52.2044 57.9455 52.6522C57.2616 53.1123 56.6454 53.3064 55.7265 53.3512C54.5084 53.4107 53.6356 53.1126 52.6049 52.2851C51.8604 51.6874 51.4471 51.6404 50.9619 52.098C50.6561 52.3864 50.5672 52.7722 50.7113 53.1853C50.9342 53.8244 52.6316 54.9228 53.9199 55.2617C54.6881 55.4638 56.2151 55.4836 56.9451 55.301C57.7234 55.1063 58.4921 54.7696 59.1218 54.3477C59.9304 53.8059 66.7967 46.9278 67.274 46.1816C68.1876 44.753 68.5328 43.0051 68.2092 41.4472C67.6875 38.9364 65.9828 37.0826 63.5547 36.3857C62.8547 36.1848 61.2973 36.1305 60.5683 36.2816ZM43.7665 38.3918C43.598 38.4534 43.3296 38.7182 43.2177 38.9333C43.0026 39.3466 43.1687 39.9168 43.5831 40.1884C43.6847 40.2549 44.4233 40.5818 45.2244 40.9149C46.757 41.552 47.0543 41.6177 47.4589 41.4085C48.0647 41.0952 48.1356 40.0611 47.5763 39.6946C47.4816 39.6326 46.7286 39.3025 45.9031 38.9613C44.4654 38.3669 44.1006 38.2696 43.7665 38.3918ZM43.2274 43.836C42.248 43.9901 41.3811 44.3293 40.5507 44.8832C39.7353 45.4271 32.8789 52.2978 32.3914 53.0595C31.4845 54.4764 31.1459 56.2315 31.4733 57.8179C31.9862 60.3027 33.7033 62.1492 36.1578 62.855C36.6354 62.9924 36.8903 63.0165 37.8408 63.0139C38.8517 63.0111 39.0239 62.9915 39.6077 62.8125C40.4443 62.5561 41.2854 62.1153 41.9219 61.5996C42.2011 61.3735 43.4919 60.1208 44.7904 58.8158C47.3159 56.2777 47.3264 56.264 47.1994 55.6859C47.1322 55.38 46.7189 54.98 46.41 54.922C45.8649 54.8198 45.7629 54.901 43.0078 57.6324C41.507 59.1201 40.2652 60.2922 40.073 60.4021C39.4298 60.7702 38.6642 60.9769 37.913 60.9854C37.1487 60.994 36.6432 60.8921 35.998 60.5993C34.7695 60.0419 33.8761 58.9671 33.5355 57.637C33.3693 56.9874 33.4254 55.7556 33.6506 55.1166C33.968 54.2155 34.3334 53.7978 37.9625 50.1867C39.9912 48.1681 41.5741 46.6511 41.7963 46.5124C42.6745 45.9641 43.9855 45.7248 45.0113 45.9256C45.6517 46.0509 46.4511 46.4401 47.0137 46.9002C47.5856 47.3682 47.8215 47.4698 48.1915 47.4073C48.805 47.3036 49.1742 46.6502 48.9624 46.043C48.7375 45.3985 47.0157 44.2891 45.7538 43.9759C45.0772 43.8079 43.841 43.7395 43.2274 43.836ZM52.171 57.8496C51.5957 58.2003 51.553 59.177 52.0974 59.5337C52.1921 59.5958 52.9499 59.9285 53.7813 60.2731C55.1219 60.8289 55.332 60.8961 55.6386 60.8679C56.5823 60.7811 56.8843 59.56 56.0906 59.04C55.989 58.9734 55.2504 58.6465 54.4494 58.3134C52.8741 57.6586 52.5817 57.599 52.171 57.8496ZM46.2597 60.2951C45.9007 60.524 45.8315 60.6476 45.1842 62.2174C44.5115 63.8493 44.4516 64.1392 44.7031 64.5516C45.0918 65.1892 46.1227 65.1499 46.4653 64.4846C46.8156 63.8042 47.7411 61.4195 47.7411 61.1971C47.7411 60.8761 47.5721 60.5285 47.3303 60.3521C47.0551 60.1512 46.5294 60.1232 46.2597 60.2951ZM49.7946 60.2676C49.4971 60.3972 49.2813 60.6851 49.223 61.0298C49.1813 61.2765 49.2554 61.5077 49.8068 62.8524C50.1542 63.6995 50.5008 64.4824 50.5769 64.5923C50.8884 65.0417 51.6015 65.1543 52.0019 64.8175C52.3158 64.5534 52.4618 64.242 52.4183 63.9291C52.3737 63.607 51.1683 60.6839 51.0047 60.5009C50.7125 60.1739 50.2254 60.0801 49.7946 60.2676Z" fill="white"/>
</g>
<defs>
<filter id="filter0_ii_0_6653" x="-3.99951" y="0" width="108" height="104" filterUnits="userSpaceOnUse" color-interpolation-filters="sRGB">
<feFlood flood-opacity="0" result="BackgroundImageFix"/>
<feBlend mode="normal" in="SourceGraphic" in2="BackgroundImageFix" result="shape"/>
<feColorMatrix in="SourceAlpha" type="matrix" values="0 0 0 0 0 0 0 0 0 0 0 0 0 0 0 0 0 0 127 0" result="hardAlpha"/>
<feOffset dx="4" dy="4"/>
<feGaussianBlur stdDeviation="15"/>
<feComposite in2="hardAlpha" operator="arithmetic" k2="-1" k3="1"/>
<feColorMatrix type="matrix" values="0 0 0 0 0.819608 0 0 0 0 0.85098 0 0 0 0 0.901961 0 0 0 1 0"/>
<feBlend mode="normal" in2="shape" result="effect1_innerShadow_0_6653"/>
<feColorMatrix in="SourceAlpha" type="matrix" values="0 0 0 0 0 0 0 0 0 0 0 0 0 0 0 0 0 0 127 0" result="hardAlpha"/>
<feOffset dx="-4" dy="4"/>
<feGaussianBlur stdDeviation="15"/>
<feComposite in2="hardAlpha" operator="arithmetic" k2="-1" k3="1"/>
<feColorMatrix type="matrix" values="0 0 0 0 1 0 0 0 0 1 0 0 0 0 1 0 0 0 0.5 0"/>
<feBlend mode="normal" in2="effect1_innerShadow_0_6653" result="effect2_innerShadow_0_6653"/>
</filter>
<linearGradient id="paint0_linear_0_6653" x1="26.9536" y1="49.4861" x2="71.9352" y2="49.4861" gradientUnits="userSpaceOnUse">
<stop stop-color="#26A9E1"/>
<stop offset="1" stop-color="#3F6CFF"/>
</linearGradient>
<clipPath id="clip0_0_6653">
<rect width="37" height="37" fill="white" transform="translate(31.3369 31.1142)"/>
</clipPath>
</defs>
</svg>
