<svg width="100" height="100" viewBox="0 0 100 100" fill="none" xmlns="http://www.w3.org/2000/svg">
<g filter="url(#filter0_ii_0_6591)">
<path d="M0.000488281 25C0.000488281 11.1929 11.1934 0 25.0005 0H75.0005C88.8076 0 100 11.1929 100 25V75C100 88.8071 88.8076 100 75.0005 100H0.000488281V25Z" fill="white"/>
</g>
<path d="M0.500488 25C0.500488 11.469 11.4695 0.5 25.0005 0.5H75.0005C88.5315 0.5 99.5005 11.469 99.5005 25V75C99.5005 88.531 88.5315 99.5 75.0005 99.5H0.500488V25Z" stroke="white"/>
<rect x="27.0005" y="27" width="45" height="45" rx="6" fill="url(#paint0_linear_0_6591)"/>
<path fill-rule="evenodd" clip-rule="evenodd" d="M35.1304 36.0962C34.7805 36.2576 34.5603 36.4864 34.4112 36.8435C34.3117 37.0814 34.2993 38.4165 34.2993 48.8339V60.5566L34.4526 60.8732C34.5449 61.0638 34.7225 61.267 34.8989 61.3838L35.1919 61.5778L38.1782 61.5981L41.1646 61.6185L41.165 62.2847C41.1652 62.651 41.201 63.0794 41.2447 63.2365C41.3475 63.607 41.7101 63.9648 42.0848 64.0657C42.2955 64.1225 44.5985 64.1401 49.9988 64.1264L57.6156 64.107L57.9231 63.9035C58.3778 63.6026 58.5048 63.2662 58.5067 62.3569L58.5083 61.6185L61.4947 61.5981L64.481 61.5778L64.7351 61.4036C64.8748 61.3078 65.0675 61.1151 65.1632 60.9753L65.3374 60.7212L65.3581 48.9727C65.3695 42.511 65.3597 37.1179 65.3365 36.9879C65.2814 36.6802 64.9087 36.2604 64.5431 36.0944C64.266 35.9685 63.6269 35.9628 49.8364 35.9628C35.9726 35.9628 35.4084 35.9679 35.1304 36.0962ZM35.3472 36.7695C35.0366 36.9476 35.0267 37.0103 35.0243 38.796L35.022 40.5123H49.8364H64.6509V38.8085V37.1047L64.4396 36.8935L64.2284 36.6822L49.8601 36.6844C39.1892 36.6861 35.4545 36.708 35.3472 36.7695ZM37.4158 38.3373C37.3611 38.3719 37.3164 38.4889 37.3164 38.5973C37.3164 38.8723 37.4315 38.9201 38.0969 38.9214C38.7106 38.9226 38.8521 38.8618 38.8521 38.5973C38.8521 38.5138 38.813 38.4065 38.7653 38.3588C38.6643 38.2578 37.5689 38.2402 37.4158 38.3373ZM40.7983 38.4257C40.7386 38.5373 40.7375 38.6265 40.7943 38.7509C40.8679 38.9126 40.9091 38.9225 41.5099 38.9225C42.1811 38.9225 42.3208 38.8665 42.3208 38.5973C42.3208 38.3285 42.181 38.2721 41.514 38.2721C40.942 38.2721 40.8726 38.287 40.7983 38.4257ZM44.2864 38.3588C44.2387 38.4065 44.1997 38.5138 44.1997 38.5973C44.1997 38.8626 44.341 38.9225 44.9678 38.9225C45.412 38.9225 45.5912 38.8938 45.676 38.809C45.8091 38.6758 45.8164 38.6018 45.7148 38.4119C45.6495 38.29 45.5588 38.2721 45.0066 38.2721C44.6102 38.2721 44.3407 38.3045 44.2864 38.3588ZM47.6635 38.4257C47.6039 38.5373 47.6028 38.6265 47.6595 38.7509L47.7376 38.9225H54.9513C60.4655 38.9225 62.1854 38.902 62.2517 38.8358C62.3632 38.7243 62.3632 38.4703 62.2517 38.3588C62.1854 38.2925 60.4665 38.2721 54.9554 38.2721H47.7458L47.6635 38.4257ZM35.022 50.8857V60.5365L35.1994 60.7138L35.3767 60.8912H38.2707H41.1646V60.277V59.6627H38.8521C36.6359 59.6627 36.5336 59.6567 36.395 59.5182C36.252 59.3752 36.2505 59.2773 36.2505 50.3043V41.235H35.6362H35.022V50.8857ZM36.9731 50.0875V58.9401H39.0656H41.1581L41.1794 56.1759C41.2003 53.472 41.2042 53.4062 41.3597 53.1561C41.4472 53.0154 41.6467 52.8284 41.8032 52.7405L42.0875 52.5807H49.8364H57.5853L57.8697 52.7405C58.0261 52.8284 58.2257 53.0154 58.3131 53.1561C58.4687 53.4062 58.4726 53.472 58.4935 56.1759L58.5147 58.9401H60.6073H62.6997V50.0875V41.235H49.8364H36.9731V50.0875ZM63.4224 50.3043C63.4224 59.2773 63.4208 59.3752 63.2778 59.5182C63.1393 59.6567 63.037 59.6627 60.8208 59.6627H58.5083V60.277V60.8912H61.4024H64.2964L64.4737 60.7L64.6509 60.5088V50.8719V41.235H64.0366H63.4224V50.3043ZM51.8418 42.9029C51.6666 43.0049 51.6752 43.3764 51.8551 43.4727C51.932 43.5138 52.1426 43.5475 52.3232 43.5475C52.5936 43.5475 52.6723 43.5156 52.7698 43.3668C52.8795 43.1994 52.8795 43.1729 52.7698 43.0055C52.6708 42.8542 52.5958 42.8252 52.3099 42.827C52.122 42.8282 51.9113 42.8623 51.8418 42.9029ZM53.793 42.9029C53.6177 43.0049 53.6264 43.3764 53.8063 43.4727C53.8946 43.5199 54.8374 43.5475 56.37 43.5475H58.794L58.9124 43.3668C59.022 43.1994 59.022 43.1729 58.9124 43.0055L58.794 42.8248L56.3567 42.827C54.8361 42.8284 53.8719 42.8569 53.793 42.9029ZM40.5949 44.9386C39.3218 46.2665 38.8521 46.7876 38.8521 46.8717C38.8521 47.0539 41.4023 49.6901 41.5786 49.6901C41.744 49.6901 41.9595 49.476 41.9595 49.3116C41.9595 49.2489 41.4722 48.6823 40.8765 48.0527C40.2809 47.423 39.8013 46.885 39.8106 46.8571C39.82 46.8292 40.3073 46.2992 40.8936 45.6794C41.4798 45.0596 41.9595 44.4939 41.9595 44.4225C41.9595 44.2621 41.7388 44.0533 41.5694 44.0533C41.5002 44.0533 41.0616 44.4517 40.5949 44.9386ZM45.1496 44.1491C45.0531 44.2655 43.1157 49.2272 43.1157 49.3581C43.1157 49.5293 43.3876 49.7101 43.5746 49.6631C43.773 49.6133 43.6966 49.7856 44.9689 46.5204C45.7582 44.4948 45.7905 44.3907 45.6825 44.226C45.5579 44.0357 45.2773 43.9952 45.1496 44.1491ZM47.0654 44.1855C46.9996 44.2582 46.9458 44.3735 46.9458 44.4417C46.9458 44.5099 47.4367 45.0843 48.0367 45.7181L49.1276 46.8704L48.0367 48.023C47.3826 48.7141 46.9458 49.2331 46.9458 49.3193C46.9458 49.4993 47.1309 49.6901 47.3055 49.6901C47.3831 49.6901 47.9582 49.1471 48.6915 48.3817C49.7066 47.3219 49.9448 47.0347 49.9448 46.8702C49.9448 46.7057 49.7069 46.419 48.692 45.3603C47.9978 44.6359 47.3826 44.0533 47.3121 44.0533C47.2422 44.0533 47.1312 44.1128 47.0654 44.1855ZM51.8418 45.3599C51.6666 45.4619 51.6752 45.8335 51.8551 45.9297C51.932 45.9708 52.1426 46.0045 52.3232 46.0045C52.5936 46.0045 52.6723 45.9726 52.7698 45.8238C52.8795 45.6565 52.8795 45.6299 52.7698 45.4625C52.6708 45.3113 52.5958 45.2822 52.3099 45.284C52.122 45.2853 51.9113 45.3194 51.8418 45.3599ZM53.793 45.3599C53.6177 45.4619 53.6264 45.8335 53.8063 45.9297C53.8967 45.9781 55.1057 46.0045 57.2338 46.0045C60.1262 46.0045 60.5351 45.9909 60.635 45.891C60.78 45.7459 60.78 45.5404 60.635 45.3954C60.535 45.2954 60.1269 45.2821 57.2205 45.284C55.1131 45.2855 53.8737 45.3129 53.793 45.3599ZM51.8418 47.8169C51.6666 47.919 51.6752 48.2905 51.8551 48.3867C51.932 48.4279 52.1426 48.4615 52.3232 48.4615C52.5936 48.4615 52.6723 48.4297 52.7698 48.2809C52.8795 48.1135 52.8795 48.0869 52.7698 47.9195C52.6708 47.7683 52.5958 47.7392 52.3099 47.7411C52.122 47.7423 51.9113 47.7764 51.8418 47.8169ZM53.793 47.8169C53.6177 47.919 53.6264 48.2905 53.8063 48.3867C53.8946 48.434 54.8374 48.4615 56.37 48.4615H58.794L58.9124 48.2809C59.022 48.1135 59.022 48.0869 58.9124 47.9195L58.794 47.7389L56.3567 47.7411C54.8361 47.7424 53.8719 47.771 53.793 47.8169ZM51.8418 50.274C51.6965 50.3586 51.672 50.7018 51.8021 50.8319C51.8497 50.8795 52.0592 50.9186 52.2677 50.9186C52.5773 50.9186 52.6671 50.8892 52.7591 50.7579C52.9039 50.5512 52.9011 50.5145 52.7271 50.3404C52.5679 50.1813 52.0656 50.1436 51.8418 50.274ZM53.793 50.274C53.6477 50.3586 53.6232 50.7018 53.7532 50.8319C53.8182 50.8968 54.6787 50.9186 57.1807 50.9186C60.1213 50.9186 60.535 50.905 60.635 50.805C60.7858 50.6542 60.7786 50.4623 60.6164 50.3155C60.4974 50.2078 60.1567 50.1961 57.2018 50.1981C55.1071 50.1995 53.8737 50.227 53.793 50.274ZM42.2124 53.3145C41.8786 53.4971 41.8872 53.3646 41.8872 58.3429V63.0658L42.0646 63.2431L42.242 63.4205H49.8364H57.4309L57.6082 63.2431L57.7856 63.0658L57.7833 58.3471C57.7809 53.363 57.7899 53.4977 57.4472 53.3151C57.229 53.1989 42.4249 53.1983 42.2124 53.3145ZM48.1743 54.5406C47.8629 54.6644 47.6035 54.9754 47.4936 55.3568C47.4355 55.5589 47.0419 57.1041 46.6192 58.7905C45.995 61.2807 45.8649 61.8883 45.9269 62.0244C46.0174 62.2232 46.3011 62.2501 46.4492 62.0741C46.5037 62.0093 46.6966 61.367 46.8777 60.6468L47.207 59.3375H48.5398H49.8726L50.2087 60.6585C50.3936 61.3849 50.5859 62.0289 50.6361 62.0893C50.6863 62.1498 50.8082 62.1896 50.907 62.1776C51.2687 62.1338 51.2674 62.0069 50.8906 60.4774C50.2006 57.6771 49.5304 55.1429 49.4265 54.9417C49.3116 54.719 48.8284 54.4609 48.5356 54.4657C48.4363 54.4674 48.2737 54.5011 48.1743 54.5406ZM53.2009 54.6202C53.1028 54.7603 53.0884 55.2343 53.0884 58.3258C53.0884 62.1651 53.0911 62.192 53.4755 62.192C53.8144 62.192 53.811 62.23 53.811 58.3526C53.811 55.1163 53.7977 54.6734 53.6975 54.5731C53.5371 54.4128 53.3326 54.4322 53.2009 54.6202ZM48.3096 55.3009C48.2551 55.3661 48.0304 56.1303 47.8103 56.9991L47.4102 58.5787H48.556C49.613 58.5787 49.6988 58.569 49.6647 58.4523C49.6443 58.3827 49.4582 57.6591 49.251 56.8444C49.0357 55.9972 48.8269 55.3242 48.7635 55.2726C48.6107 55.1481 48.4278 55.1595 48.3096 55.3009Z" fill="white"/>
<defs>
<filter id="filter0_ii_0_6591" x="-3.99951" y="0" width="108" height="104" filterUnits="userSpaceOnUse" color-interpolation-filters="sRGB">
<feFlood flood-opacity="0" result="BackgroundImageFix"/>
<feBlend mode="normal" in="SourceGraphic" in2="BackgroundImageFix" result="shape"/>
<feColorMatrix in="SourceAlpha" type="matrix" values="0 0 0 0 0 0 0 0 0 0 0 0 0 0 0 0 0 0 127 0" result="hardAlpha"/>
<feOffset dx="4" dy="4"/>
<feGaussianBlur stdDeviation="15"/>
<feComposite in2="hardAlpha" operator="arithmetic" k2="-1" k3="1"/>
<feColorMatrix type="matrix" values="0 0 0 0 0.819608 0 0 0 0 0.85098 0 0 0 0 0.901961 0 0 0 1 0"/>
<feBlend mode="normal" in2="shape" result="effect1_innerShadow_0_6591"/>
<feColorMatrix in="SourceAlpha" type="matrix" values="0 0 0 0 0 0 0 0 0 0 0 0 0 0 0 0 0 0 127 0" result="hardAlpha"/>
<feOffset dx="-4" dy="4"/>
<feGaussianBlur stdDeviation="15"/>
<feComposite in2="hardAlpha" operator="arithmetic" k2="-1" k3="1"/>
<feColorMatrix type="matrix" values="0 0 0 0 1 0 0 0 0 1 0 0 0 0 1 0 0 0 0.5 0"/>
<feBlend mode="normal" in2="effect1_innerShadow_0_6591" result="effect2_innerShadow_0_6591"/>
</filter>
<linearGradient id="paint0_linear_0_6591" x1="26.9536" y1="49.4861" x2="71.9352" y2="49.4861" gradientUnits="userSpaceOnUse">
<stop stop-color="#26A9E1"/>
<stop offset="1" stop-color="#3F6CFF"/>
</linearGradient>
</defs>
</svg>
