<svg width="101" height="100" viewBox="0 0 101 100" fill="none" xmlns="http://www.w3.org/2000/svg">
<g filter="url(#filter0_ii_0_6581)">
<path d="M0.878418 25C0.878418 11.1929 12.0713 0 25.8784 0H75.8784C89.6855 0 100.878 11.1929 100.878 25V75C100.878 88.8071 89.6855 100 75.8784 100H0.878418V25Z" fill="white"/>
</g>
<path d="M1.37842 25C1.37842 11.469 12.3474 0.5 25.8784 0.5H75.8784C89.4094 0.5 100.378 11.469 100.378 25V75C100.378 88.531 89.4094 99.5 75.8784 99.5H1.37842V25Z" stroke="white"/>
<rect x="28" y="27" width="45" height="45" rx="6" fill="url(#paint0_linear_0_6581)"/>
<g clip-path="url(#clip0_0_6581)">
<path fill-rule="evenodd" clip-rule="evenodd" d="M50.8078 31.8668C50.7406 31.8938 49.0253 33.8834 46.9961 36.288C43.1572 40.837 43.1311 40.8725 43.4194 41.1608C43.5175 41.2588 43.8194 41.2744 45.6235 41.2744H47.7141V44.6424C47.7141 47.8123 47.7067 48.0077 47.5884 47.9623C47.1492 47.7937 45.9457 47.7068 44.0466 47.7064L42.0051 47.706V45.5758V43.4456L41.8243 43.3272C41.7249 43.262 41.5826 43.2247 41.5081 43.2441C41.309 43.2962 32.6286 50.6429 32.578 50.8021C32.5543 50.8767 32.5556 50.9912 32.5807 51.0567C32.6059 51.1222 33.7529 52.1268 35.1297 53.289C36.5064 54.4513 38.4885 56.1258 39.5343 57.0102C40.58 57.8945 41.4914 58.6181 41.5597 58.6181C41.628 58.6181 41.7561 58.5674 41.8445 58.5056C42.0043 58.3937 42.0051 58.3824 42.0051 56.2604V54.1276L44.0466 54.1506L46.0881 54.1738L46.4523 54.3661C46.6526 54.4718 46.9559 54.7095 47.1263 54.8943C47.7175 55.5357 47.6735 54.9992 47.7141 62.0752L47.7502 68.3868L47.9208 68.5249C48.0824 68.6557 48.2436 68.663 50.966 68.663C53.6885 68.663 53.8496 68.6557 54.0112 68.5249L54.1819 68.3868L54.218 62.0752C54.2585 54.9992 54.2146 55.5357 54.8058 54.8943C54.9761 54.7095 55.2794 54.4718 55.4797 54.3661L55.844 54.1738L57.8855 54.1506L59.927 54.1276V56.2628V58.398L60.1078 58.5164C60.2072 58.5816 60.3497 58.6189 60.4244 58.5994C60.6274 58.5463 69.3057 51.1939 69.3573 51.0312C69.3818 50.9542 69.3688 50.8296 69.3286 50.7544C69.2317 50.5733 60.6873 43.353 60.469 43.2677C60.3448 43.2192 60.2497 43.2342 60.1132 43.3236L59.927 43.4456V45.5692V47.6926L57.5603 47.7263C56.152 47.7462 55.0619 47.7931 54.8684 47.8419C54.6895 47.887 54.4701 47.9406 54.3806 47.9609L54.218 47.9978V44.6361V41.2744H56.3086C58.1127 41.2744 58.4146 41.2588 58.5127 41.1608C58.801 40.8725 58.7749 40.837 54.936 36.288C51.6974 32.4504 51.1356 31.8177 50.966 31.8177C50.9462 31.8177 50.875 31.8398 50.8078 31.8668ZM47.8078 36.6689L44.6857 40.371L46.5142 40.4072C47.9156 40.4348 48.3705 40.4665 48.462 40.5424C48.5701 40.6323 48.5813 40.9979 48.5813 44.4499V48.2581L49.3276 48.629C49.738 48.8331 50.2742 49.1476 50.5193 49.328L50.9647 49.6559L51.3448 49.3643C51.5538 49.2038 52.0907 48.8892 52.5378 48.665L53.3508 48.2572V44.4494C53.3508 40.9979 53.3619 40.6323 53.4701 40.5424C53.5616 40.4665 54.0165 40.4348 55.4181 40.4072L57.2468 40.371L54.1363 36.6855C52.4255 34.6584 51.0042 32.9925 50.9778 32.9834C50.9515 32.9743 49.525 34.6328 47.8078 36.6689ZM37.4661 47.7011C35.5062 49.3609 33.8537 50.7679 33.7937 50.8278C33.6966 50.9249 34.088 51.2771 37.3932 54.066L41.1018 57.1953L41.1379 55.3354C41.1716 53.6006 41.1835 53.4685 41.3143 53.3729C41.5239 53.2199 45.6285 53.2246 46.2196 53.3785C46.7908 53.5273 47.167 53.7319 47.5809 54.1191C47.7746 54.3003 47.9438 54.4355 47.9568 54.4195C47.9699 54.4036 48.0688 54.1034 48.1767 53.7525C48.513 52.6581 49.4055 51.125 50.0528 50.5298C50.1576 50.4334 50.2434 50.3154 50.2434 50.2673C50.2434 50.0483 48.7012 49.2109 47.7473 48.9117C46.8366 48.6263 46.2069 48.5732 43.7343 48.5732C41.5233 48.5732 41.4209 48.5671 41.2824 48.4287C41.1456 48.2919 41.1379 48.1878 41.1379 46.4775C41.1379 45.4838 41.1135 44.6737 41.0837 44.6771C41.0539 44.6806 39.426 46.0414 37.4661 47.7011ZM60.7942 46.4775C60.7942 48.1878 60.7864 48.2919 60.6496 48.4287C60.511 48.5673 60.4088 48.5732 58.1298 48.5732C55.4959 48.5732 54.9896 48.6254 53.884 49.0115C51.9275 49.6949 50.355 51.0879 49.4434 52.9453C48.9847 53.8798 48.7434 54.746 48.6506 55.7909C48.605 56.3058 48.5841 58.7842 48.5967 62.1953L48.6174 67.7597H50.966H53.3147L53.3508 61.6894C53.3902 55.067 53.3663 55.4337 53.8046 54.7421C54.0384 54.3732 54.6298 53.8272 55.0004 53.6381C55.6449 53.3093 55.9956 53.2705 58.3162 53.2705C60.4088 53.2705 60.5115 53.2768 60.6496 53.415C60.7864 53.5518 60.7942 53.6558 60.7942 55.3662C60.7942 56.3598 60.8096 57.1728 60.8286 57.1728C60.8584 57.1728 62.4297 55.8528 67.1355 51.8746C67.7416 51.3623 68.2375 50.9317 68.2375 50.9179C68.2375 50.8801 60.8776 44.6708 60.8328 44.6708C60.8116 44.6708 60.7942 45.4838 60.7942 46.4775Z" fill="white"/>
</g>
<defs>
<filter id="filter0_ii_0_6581" x="-3.12158" y="0" width="108" height="104" filterUnits="userSpaceOnUse" color-interpolation-filters="sRGB">
<feFlood flood-opacity="0" result="BackgroundImageFix"/>
<feBlend mode="normal" in="SourceGraphic" in2="BackgroundImageFix" result="shape"/>
<feColorMatrix in="SourceAlpha" type="matrix" values="0 0 0 0 0 0 0 0 0 0 0 0 0 0 0 0 0 0 127 0" result="hardAlpha"/>
<feOffset dx="4" dy="4"/>
<feGaussianBlur stdDeviation="15"/>
<feComposite in2="hardAlpha" operator="arithmetic" k2="-1" k3="1"/>
<feColorMatrix type="matrix" values="0 0 0 0 0.819608 0 0 0 0 0.85098 0 0 0 0 0.901961 0 0 0 1 0"/>
<feBlend mode="normal" in2="shape" result="effect1_innerShadow_0_6581"/>
<feColorMatrix in="SourceAlpha" type="matrix" values="0 0 0 0 0 0 0 0 0 0 0 0 0 0 0 0 0 0 127 0" result="hardAlpha"/>
<feOffset dx="-4" dy="4"/>
<feGaussianBlur stdDeviation="15"/>
<feComposite in2="hardAlpha" operator="arithmetic" k2="-1" k3="1"/>
<feColorMatrix type="matrix" values="0 0 0 0 1 0 0 0 0 1 0 0 0 0 1 0 0 0 0.5 0"/>
<feBlend mode="normal" in2="effect1_innerShadow_0_6581" result="effect2_innerShadow_0_6581"/>
</filter>
<linearGradient id="paint0_linear_0_6581" x1="27.9531" y1="49.4861" x2="72.9347" y2="49.4861" gradientUnits="userSpaceOnUse">
<stop stop-color="#26A9E1"/>
<stop offset="1" stop-color="#3F6CFF"/>
</linearGradient>
<clipPath id="clip0_0_6581">
<rect width="37" height="37" fill="white" transform="translate(32.4658 31.7354)"/>
</clipPath>
</defs>
</svg>
