<svg width="101" height="100" viewBox="0 0 101 100" fill="none" xmlns="http://www.w3.org/2000/svg">
<g filter="url(#filter0_ii_0_6601)">
<path d="M0.122314 25C0.122314 11.1929 11.3152 0 25.1223 0H75.1223C88.9294 0 100.122 11.1929 100.122 25V75C100.122 88.8071 88.9294 100 75.1223 100H0.122314V25Z" fill="white"/>
</g>
<path d="M0.622314 25C0.622314 11.469 11.5913 0.5 25.1223 0.5H75.1223C88.6533 0.5 99.6223 11.469 99.6223 25V75C99.6223 88.531 88.6533 99.5 75.1223 99.5H0.622314V25Z" stroke="white"/>
<rect x="27.0002" y="27" width="45" height="45" rx="6" fill="url(#paint0_linear_0_6601)"/>
<path fill-rule="evenodd" clip-rule="evenodd" d="M47.838 35.9406C46.1466 36.152 44.8001 36.5585 43.2853 37.3149C38.9515 39.4789 36.0309 43.7976 35.639 48.6211L35.589 49.2354L34.9769 49.2566C34.2774 49.2809 34.1076 49.3756 34.1076 49.7411C34.1076 49.94 34.3122 50.1952 35.6049 51.6088C36.9543 53.0845 37.1248 53.2461 37.3313 53.2461C37.4572 53.2461 37.6268 53.1892 37.7082 53.1197C37.7895 53.0501 38.476 52.3138 39.2338 51.4835C40.4218 50.1817 40.6115 49.9419 40.6115 49.7422C40.6115 49.3673 40.4377 49.2715 39.7567 49.2715H39.1662L39.1664 48.9644C39.1665 48.7954 39.2165 48.3723 39.2774 48.0241C39.7123 45.5379 41.0431 43.2498 42.9465 41.7156C46.1438 39.1384 50.4267 38.6545 54.0677 40.459C56.2261 41.5288 57.7779 43.1086 58.8734 45.3513C59.3739 46.3762 59.4949 46.4928 59.8771 46.3187C60.1317 46.2027 60.2116 45.9389 60.0936 45.6045C59.9115 45.0882 59.3102 43.9603 58.8703 43.3096C58.2337 42.3681 56.8193 40.976 55.8343 40.3213C53.7359 38.9268 51.4518 38.2767 49.0238 38.3829C44.2109 38.5934 40.082 41.7695 38.6286 46.3794C38.3619 47.2255 38.1545 48.5055 38.1545 49.306C38.1545 50.0561 38.19 50.1219 38.6629 50.2471L38.936 50.3194L38.1664 51.1504C37.7431 51.6075 37.3801 51.9815 37.3595 51.9815C37.339 51.9815 36.9759 51.6075 36.5527 51.1504L35.7831 50.3194L36.0635 50.2471C36.5424 50.1237 36.5772 50.0463 36.6437 48.9595C36.952 43.9239 40.2027 39.5286 44.9837 37.6831C46.2609 37.1901 47.5539 36.9288 49.0304 36.8652C53.7374 36.663 58.1523 39.0782 60.6124 43.2012C60.8141 43.539 61.0183 43.9027 61.0663 44.0093C61.184 44.2704 61.498 44.3998 61.7245 44.2804C61.9481 44.1626 61.9997 44.0756 62.001 43.8143C62.0023 43.5625 61.3613 42.4131 60.7222 41.5213C60.2023 40.7958 58.982 39.5118 58.2524 38.9226C55.3388 36.5694 51.5308 35.479 47.838 35.9406ZM48.3915 41.9797C47.6489 42.0882 46.805 42.3488 46.6303 42.5234C46.479 42.6747 46.465 42.7533 46.465 43.4483C46.465 44.4456 46.431 44.4668 45.5978 43.9883C44.7177 43.4828 44.6904 43.4884 43.8634 44.3433C42.8243 45.4175 42.1364 46.6884 41.8512 48.0607C41.7354 48.6184 41.7355 48.621 41.8975 48.783C41.9869 48.8724 42.3113 49.0934 42.6184 49.2743C43.0057 49.5022 43.1769 49.6454 43.1769 49.7412C43.1769 49.8371 43.0057 49.9803 42.6184 50.2082C42.3113 50.389 41.9869 50.6101 41.8975 50.6995C41.7355 50.8614 41.7354 50.864 41.8512 51.4218C42.1364 52.7941 42.8243 54.065 43.8634 55.1392C44.6904 55.9941 44.7177 55.9997 45.5978 55.4942C46.431 55.0157 46.465 55.0369 46.465 56.0342C46.465 56.7292 46.479 56.8077 46.6303 56.9591C46.9268 57.2555 48.4248 57.5792 49.5002 57.5792C50.5755 57.5792 52.0735 57.2555 52.37 56.9591C52.5213 56.8077 52.5353 56.7292 52.5353 56.0342C52.5353 55.0369 52.5694 55.0157 53.4025 55.4942C53.7417 55.689 54.1089 55.8471 54.2225 55.8473C54.6303 55.848 55.8135 54.5298 56.4274 53.3906C56.7514 52.7893 57.1301 51.7018 57.2007 51.1698C57.2556 50.7557 57.2071 50.6989 56.3778 50.2078C55.9945 49.9807 55.8234 49.8368 55.8234 49.7412C55.8234 49.6456 55.9945 49.5017 56.3778 49.2747C57.3293 48.7112 57.3263 48.7174 57.0825 47.7856C56.7301 46.4391 56.0926 45.3169 55.1057 44.3059C54.3129 43.4938 54.2756 43.4869 53.4025 43.9883C52.5694 44.4668 52.5353 44.4456 52.5353 43.4483C52.5353 42.5104 52.478 42.4316 51.6292 42.2034C50.5423 41.911 49.4014 41.8321 48.3915 41.9797ZM48.497 42.9866C48.2831 43.0178 47.9661 43.083 47.7925 43.1316L47.4767 43.22V43.9171C47.4767 44.4187 47.4464 44.6576 47.3688 44.7685C47.2452 44.945 46.393 45.4414 46.2137 45.4414C46.148 45.4414 45.8229 45.2811 45.4912 45.0852L44.8882 44.7291L44.4624 45.1756C43.7816 45.8894 43.0658 47.183 42.892 48.0133C42.8467 48.23 42.8624 48.2465 43.425 48.5734C43.7438 48.7586 44.0523 48.9833 44.1106 49.0728C44.2536 49.2922 44.2536 50.1903 44.1106 50.4097C44.0523 50.4992 43.7438 50.7238 43.425 50.9091C42.8624 51.236 42.8467 51.2525 42.892 51.4692C43.0656 52.2987 43.7815 53.593 44.4607 54.3052L44.8849 54.75L45.4872 54.3955C45.8184 54.2005 46.1442 54.041 46.2113 54.041C46.3924 54.041 47.2443 54.5363 47.3688 54.714C47.4464 54.8248 47.4767 55.0637 47.4767 55.5653V56.2625L47.7839 56.3439C48.8802 56.6348 50.1201 56.6348 51.2165 56.3439L51.5236 56.2625V55.5653C51.5236 55.0637 51.5539 54.8248 51.6316 54.714C51.756 54.5363 52.6079 54.041 52.789 54.041C52.8561 54.041 53.1819 54.2005 53.5131 54.3955L54.1154 54.75L54.5396 54.3052C55.2164 53.5955 55.9244 52.3143 56.1068 51.4692C56.1537 51.2521 56.1389 51.2366 55.5753 50.9091C55.2565 50.7238 54.948 50.4992 54.8897 50.4097C54.7467 50.1903 54.7467 49.2922 54.8897 49.0728C54.948 48.9833 55.2565 48.7586 55.5753 48.5734C56.1375 48.2467 56.1536 48.2299 56.1089 48.0133C55.9419 47.2049 55.1257 45.7463 54.4594 45.0655L54.1268 44.7258L53.5189 45.0836C53.1845 45.2804 52.8561 45.4414 52.789 45.4414C52.6079 45.4414 51.756 44.9462 51.6316 44.7685C51.5539 44.6577 51.5236 44.4189 51.5236 43.9192V43.2241L51.251 43.1424C50.5485 42.9319 49.3429 42.8637 48.497 42.9866ZM61.2921 46.3628C61.2108 46.4324 60.5243 47.1687 59.7665 47.999C58.5785 49.3008 58.3888 49.5406 58.3888 49.7402C58.3888 50.1093 58.5865 50.2296 59.2569 50.2684L59.8341 50.3018L59.8339 50.5273C59.8327 51.4169 59.3968 53.0454 58.8599 54.166C58.3223 55.2879 57.6869 56.1896 56.8344 57.0401C55.3339 58.537 53.6134 59.4653 51.4513 59.9443C50.9701 60.0509 49.9818 60.0691 42.6349 60.1059C35.0332 60.1441 34.3423 60.1575 34.1363 60.2703C33.8175 60.4449 33.4779 60.8564 33.3893 61.1753C33.2903 61.5316 33.2925 62.2399 33.3937 62.6043C33.5014 62.9924 33.9855 63.4694 34.3793 63.5754C34.6014 63.6352 36.9036 63.6512 42.8331 63.6342C51.8001 63.6083 51.3338 63.6302 53.1496 63.1482C57.6511 61.9533 61.2756 58.4767 62.7571 53.9326C63.014 53.1447 63.2936 51.7366 63.3495 50.95L63.3956 50.3003L63.9976 50.2687C64.6951 50.2321 64.8927 50.1154 64.8927 49.7402C64.8927 49.5406 64.703 49.3008 63.5151 47.999C61.916 46.2467 61.905 46.2364 61.6408 46.2364C61.5304 46.2364 61.3735 46.2932 61.2921 46.3628ZM48.7052 47.0946C48.4866 47.1648 48.2285 47.2651 48.1316 47.3173C47.781 47.5062 47.2401 48.0861 47.0175 48.5116C46.8027 48.9224 46.7902 48.99 46.7902 49.7412C46.7902 50.4943 46.8023 50.5594 47.0202 50.9761C47.7343 52.3422 49.4053 52.8975 50.757 52.2179C51.1926 51.9988 51.7322 51.4499 51.9828 50.9709C52.1976 50.5601 52.2101 50.4924 52.2101 49.7412C52.2101 48.99 52.1976 48.9224 51.9828 48.5116C51.7415 48.0502 51.2022 47.4918 50.7942 47.2807C50.1561 46.9506 49.3708 46.8806 48.7052 47.0946ZM60.8278 48.3294C60.4005 48.7998 60.0509 49.2042 60.0509 49.2281C60.0509 49.2519 60.176 49.2715 60.3288 49.2715C60.7647 49.2715 60.8459 49.4159 60.8459 50.1914C60.8459 51.5407 60.4058 53.3181 59.7258 54.7161C58.2731 57.7024 55.5283 59.9429 52.3201 60.7615C50.9501 61.111 50.6984 61.1202 42.4126 61.1216L34.6387 61.1231L34.4815 61.2903C34.2468 61.5401 34.2549 62.261 34.4947 62.4864L34.6651 62.6465L42.8595 62.6191C51.6901 62.5897 51.1738 62.6112 52.7521 62.2076C55.1496 61.5944 57.6842 59.9946 59.2906 58.0806C61.1577 55.8561 62.1851 53.3249 62.3563 50.5273C62.4249 49.4072 62.4893 49.2715 62.9528 49.2715C63.1056 49.2715 63.2306 49.2513 63.2306 49.2266C63.2306 49.1774 61.7091 47.5094 61.6444 47.4876C61.6226 47.4803 61.2551 47.8591 60.8278 48.3294ZM48.9042 48.0804C47.9162 48.4432 47.4731 49.5751 47.9431 50.5357C48.574 51.8253 50.4263 51.8253 51.0573 50.5357C51.7574 49.1047 50.383 47.5373 48.9042 48.0804ZM39.0176 53.2348C38.7912 53.4182 38.8083 53.6835 39.0875 54.3172C39.6233 55.5338 40.43 56.727 41.3558 57.6723C42.0533 58.3844 42.9641 59.0996 43.1737 59.0996C43.4429 59.0996 43.6707 58.8677 43.6707 58.5936C43.6707 58.3357 43.7018 58.3695 42.7611 57.6029C41.716 56.7511 40.789 55.5236 40.0942 54.071C39.8623 53.5862 39.621 53.1697 39.558 53.1455C39.3587 53.0691 39.1873 53.0974 39.0176 53.2348ZM37.2511 55.2114C36.8783 55.4228 36.9107 55.72 37.4006 56.5852C37.8108 57.3098 38.6921 58.5424 39.0563 58.9009C39.1673 59.0102 39.3365 59.0996 39.4323 59.0996C39.6426 59.0996 39.9611 58.7999 39.9611 58.6018C39.9611 58.5231 39.7723 58.2208 39.5415 57.9301C39.0057 57.2551 38.4722 56.4585 38.113 55.7971C37.9544 55.5051 37.7573 55.2435 37.6638 55.2009C37.4596 55.1079 37.4325 55.1085 37.2511 55.2114ZM61.7906 58.7842C61.6679 58.9401 61.6408 59.0774 61.6408 59.543V60.1114H60.9342C60.0731 60.1114 59.9064 60.1934 59.9064 60.6172C59.9064 61.0719 60.0436 61.1231 61.2627 61.1231C62.2653 61.1231 62.3033 61.1175 62.4751 60.9457C62.5983 60.8225 62.6525 60.6882 62.6525 60.5059V60.2435L63.5016 61.0265C63.9686 61.4572 64.3507 61.8421 64.3507 61.8819C64.3507 61.9216 63.9686 62.3065 63.5016 62.7372L62.6525 63.5202V63.2578C62.6525 63.0755 62.5983 62.9412 62.4751 62.8181L62.2978 62.6406H59.2393C55.7844 62.6406 55.8595 62.6294 55.8595 63.1465C55.8595 63.6589 55.8203 63.6524 58.9108 63.6524H61.6408V64.2337C61.6408 64.7547 61.6592 64.8336 61.8182 64.9925C62.0381 65.2125 62.195 65.216 62.4856 65.0073C62.916 64.6984 65.6163 62.1737 65.6584 62.0408C65.6817 61.9676 65.6827 61.8368 65.6609 61.7502C65.6236 61.6031 62.9836 59.1138 62.4856 58.7564C62.1875 58.5424 61.974 58.5509 61.7906 58.7842Z" fill="white"/>
<defs>
<filter id="filter0_ii_0_6601" x="-3.87769" y="0" width="108" height="104" filterUnits="userSpaceOnUse" color-interpolation-filters="sRGB">
<feFlood flood-opacity="0" result="BackgroundImageFix"/>
<feBlend mode="normal" in="SourceGraphic" in2="BackgroundImageFix" result="shape"/>
<feColorMatrix in="SourceAlpha" type="matrix" values="0 0 0 0 0 0 0 0 0 0 0 0 0 0 0 0 0 0 127 0" result="hardAlpha"/>
<feOffset dx="4" dy="4"/>
<feGaussianBlur stdDeviation="15"/>
<feComposite in2="hardAlpha" operator="arithmetic" k2="-1" k3="1"/>
<feColorMatrix type="matrix" values="0 0 0 0 0.819608 0 0 0 0 0.85098 0 0 0 0 0.901961 0 0 0 1 0"/>
<feBlend mode="normal" in2="shape" result="effect1_innerShadow_0_6601"/>
<feColorMatrix in="SourceAlpha" type="matrix" values="0 0 0 0 0 0 0 0 0 0 0 0 0 0 0 0 0 0 127 0" result="hardAlpha"/>
<feOffset dx="-4" dy="4"/>
<feGaussianBlur stdDeviation="15"/>
<feComposite in2="hardAlpha" operator="arithmetic" k2="-1" k3="1"/>
<feColorMatrix type="matrix" values="0 0 0 0 1 0 0 0 0 1 0 0 0 0 1 0 0 0 0.5 0"/>
<feBlend mode="normal" in2="effect1_innerShadow_0_6601" result="effect2_innerShadow_0_6601"/>
</filter>
<linearGradient id="paint0_linear_0_6601" x1="26.9533" y1="49.4861" x2="71.935" y2="49.4861" gradientUnits="userSpaceOnUse">
<stop stop-color="#26A9E1"/>
<stop offset="1" stop-color="#3F6CFF"/>
</linearGradient>
</defs>
</svg>
