<svg width="101" height="100" viewBox="0 0 101 100" fill="none" xmlns="http://www.w3.org/2000/svg">
<g filter="url(#filter0_ii_0_6612)">
<path d="M0.878418 25C0.878418 11.1929 12.0713 0 25.8784 0H75.8784C89.6855 0 100.878 11.1929 100.878 25V75C100.878 88.8071 89.6855 100 75.8784 100H0.878418V25Z" fill="white"/>
</g>
<path d="M1.37842 25C1.37842 11.469 12.3474 0.5 25.8784 0.5H75.8784C89.4094 0.5 100.378 11.469 100.378 25V75C100.378 88.531 89.4094 99.5 75.8784 99.5H1.37842V25Z" stroke="white"/>
<rect x="28" y="27" width="45" height="45" rx="6" fill="url(#paint0_linear_0_6612)"/>
<g clip-path="url(#clip0_0_6612)">
<path fill-rule="evenodd" clip-rule="evenodd" d="M35.8725 33.7948C33.9059 33.9856 32.3628 35.7154 32.3687 37.7226C32.3708 38.4357 32.7328 39.5202 33.0595 39.7914C33.1626 39.877 33.7483 39.9017 36.3917 39.9314L39.5988 39.9676L36.8324 41.1469C35.0159 41.9213 34.01 42.3879 33.9032 42.5059L33.7406 42.6856L33.7411 45.518C33.7414 47.6402 33.7681 48.5271 33.8477 49.0551C34.1826 51.2768 35.4944 53.2808 37.3939 54.473L38.0015 54.8543L38.0029 56.2664L38.0043 57.6786L37.4804 57.8014C36.79 57.9631 36.2408 58.3373 35.9296 58.8581C35.5562 59.483 35.5066 59.8506 35.613 61.2027C35.6635 61.8446 35.738 62.5325 35.7785 62.7312C35.9512 63.5796 36.577 64.2909 37.7152 64.9324C38.7217 65.4995 38.6547 65.3958 38.6547 66.3871C38.6547 66.8554 38.687 67.3234 38.7265 67.4273C38.8751 67.8181 38.9614 67.826 43.0859 67.826C46.9887 67.826 47.2537 67.808 47.4004 67.5341C47.4392 67.4614 47.4711 67.0711 47.4711 66.6668V65.9317L56.2333 65.9529L64.9955 65.9741L65.4652 65.8097C67.1203 65.2305 68.2113 63.7278 68.2113 62.0277C68.2113 61.2102 67.7921 60.087 67.4164 59.8976C67.2793 59.8286 66.464 59.8064 64.038 59.8056L60.8402 59.8045V56.5121C60.8402 53.8986 60.8589 53.2305 60.9306 53.2719C60.9803 53.3006 61.3165 53.5139 61.6779 53.7459C62.4467 54.2395 62.8085 54.3017 63.117 53.9933C63.4168 53.6935 63.414 53.5142 63.0907 52.3204C62.9261 51.7125 62.7914 51.1669 62.7914 51.108C62.7914 51.0491 63.1962 50.681 63.6909 50.2899C64.8118 49.4039 64.9777 49.1241 64.6757 48.6288C64.4863 48.3183 64.2489 48.2607 62.9249 48.2037L61.7938 48.1552L61.6339 47.7107C61.5459 47.4663 61.3302 46.9005 61.1546 46.4533C60.8422 45.6582 60.8356 45.6243 60.8558 44.9112L60.8764 44.1822L61.599 44.6572C62.2042 45.055 62.3721 45.1325 62.6321 45.1334C62.8649 45.1343 62.9862 45.0909 63.117 44.9601C63.4168 44.6603 63.414 44.481 63.0907 43.2872C62.9261 42.6793 62.7914 42.1359 62.7914 42.0797C62.7914 42.0234 63.1714 41.6715 63.6358 41.2977C64.1001 40.9238 64.5387 40.5554 64.6104 40.4788C64.9358 40.1315 64.7987 39.5008 64.3584 39.3194C64.2252 39.2646 63.6391 39.2028 62.9668 39.1729L61.8053 39.1212L61.3791 37.9928C60.9812 36.9393 60.8637 36.7196 60.6135 36.5612C60.5593 36.5268 60.4068 36.2812 60.2745 36.0153C59.9934 35.4501 59.3286 34.6953 58.8302 34.3756C58.6376 34.252 58.2875 34.0786 58.0522 33.9904C57.6335 33.8334 57.545 33.8296 53.9027 33.8095C45.4321 33.763 36.2778 33.7555 35.8725 33.7948ZM35.8528 34.9493C34.2974 35.1644 33.1889 36.8632 33.6249 38.3634L33.7447 38.7752H36.7417H39.7387L39.7375 38.468C39.7355 37.9938 39.553 37.2399 39.3281 36.7778C38.9068 35.9121 37.8119 35.0924 36.9285 34.9814C36.7451 34.9583 36.5138 34.9298 36.4145 34.918C36.3151 34.9062 36.0624 34.9203 35.8528 34.9493ZM39.7163 35.3319C40.1465 35.8025 40.5496 36.549 40.7174 37.1853C40.7941 37.4768 40.8582 38.0891 40.8861 38.7985L40.9311 39.942L43.7934 41.1688C46.0699 42.1446 46.675 42.4319 46.7504 42.5727L46.8451 42.7498H51.6418H56.4386L56.616 42.9272C56.8507 43.1618 56.8507 43.494 56.616 43.7286L56.4386 43.906H51.6296H46.8207V45.0969V46.2878L51.6327 46.3073L56.4446 46.3269L56.619 46.5297C56.8328 46.7782 56.8406 47.0062 56.644 47.2561L56.4946 47.446L51.6757 47.4646L46.8568 47.4832L46.8089 48.2781C46.7826 48.7153 46.7264 49.2194 46.6842 49.3982C46.642 49.5771 46.6067 49.7641 46.6056 49.8137C46.6043 49.8849 47.4228 49.9041 50.4621 49.9041C54.7531 49.9041 54.5721 49.8832 54.6698 50.389C54.7073 50.5831 54.6787 50.6568 54.4949 50.8406L54.2752 51.0603H50.2267H46.1782L45.9204 51.5481C45.6873 51.9891 45.2825 52.5661 44.7545 53.2102L44.562 53.4451H50.4664H56.3709L56.5821 53.6563C56.8428 53.917 56.8546 54.1853 56.616 54.4239L56.4386 54.6013H50.2895H44.1403L43.963 54.4239C43.8654 54.3264 43.7856 54.2114 43.7856 54.1683C43.7856 54.1253 43.5862 54.2255 43.3425 54.391C42.9056 54.6877 41.7801 55.2517 41.625 55.2517C41.5809 55.2517 41.5453 55.3744 41.5453 55.5261V55.8006L42.0079 55.7711C42.5891 55.7341 42.8921 55.8333 43.3035 56.1954C43.5912 56.4487 43.6504 56.4731 43.8201 56.4086C44.3546 56.2054 45.1439 56.3985 45.5515 56.8325L45.7638 57.0584H51.1012H56.4386L56.616 57.2358C56.8916 57.5113 56.8097 57.9736 56.4568 58.1344C56.3342 58.1903 55.0058 58.2146 52.0842 58.2146H47.8879L47.9314 58.3772C47.9554 58.4667 47.9754 58.8244 47.9759 59.1721L47.977 59.8045H53.8305H59.684V56.5186V53.2326L58.9634 53.7002C58.1002 54.2603 57.7935 54.3118 57.4382 53.9565C57.1534 53.6717 57.1629 53.4597 57.5188 52.1704C57.6793 51.5889 57.8013 51.0881 57.7898 51.0576C57.7783 51.0271 57.3427 50.6604 56.8216 50.2426C56.3005 49.8249 55.8534 49.4288 55.8279 49.3624C55.7194 49.0796 55.7829 48.7488 55.9901 48.5168L56.1985 48.2835L57.4535 48.2188C58.1437 48.1833 58.73 48.1333 58.7565 48.1078C58.7828 48.0822 59.0024 47.5364 59.2443 46.8949C59.6813 45.7357 59.684 45.724 59.684 44.963V44.1973L58.9596 44.666C58.0931 45.2264 57.7922 45.2773 57.4382 44.9233C57.1534 44.6385 57.1629 44.4265 57.5188 43.1372C57.6793 42.5557 57.8013 42.056 57.7898 42.0268C57.7783 41.9975 57.395 41.673 56.9379 41.3055C55.8566 40.4361 55.7816 40.3516 55.7816 40.0008C55.7816 39.79 55.8353 39.6569 55.9901 39.4836L56.1985 39.2503L57.4535 39.1856C58.1437 39.1501 58.7303 39.1001 58.7571 39.0746C58.7839 39.049 58.9678 38.5954 59.1658 38.0667L59.5259 37.1053L59.2744 36.6027C58.9575 35.9693 58.4357 35.4291 57.8969 35.1766L57.4799 34.9812L48.4201 34.9618L39.3604 34.9423L39.7163 35.3319ZM60.1852 38.6126C60.1449 38.7219 60.0279 39.0389 59.9251 39.3172C59.8225 39.5954 59.6445 39.9204 59.5296 40.0393C59.3252 40.2511 59.3034 40.2562 58.4873 40.2821C58.0289 40.2967 57.6634 40.3334 57.6752 40.3636C57.687 40.3939 57.9731 40.6437 58.3109 40.9187C59.1044 41.5646 59.1274 41.6426 58.8349 42.696C58.7164 43.123 58.6293 43.4724 58.6416 43.4724C58.6538 43.4724 58.9687 43.2773 59.3415 43.0388C60.2461 42.46 60.3684 42.4598 61.2343 43.0364C61.5901 43.2733 61.8931 43.4555 61.9074 43.4411C61.9218 43.4267 61.8502 43.1108 61.7483 42.7391C61.6464 42.3674 61.563 41.9587 61.563 41.8309C61.5629 41.5482 61.7989 41.2665 62.4581 40.7625C62.718 40.5637 62.9318 40.3767 62.9333 40.347C62.9348 40.3172 62.6351 40.2925 62.2675 40.2923C61.0659 40.2916 60.9684 40.2214 60.5471 39.053C60.4204 38.7015 60.3036 38.4138 60.2876 38.4138C60.2716 38.4138 60.2255 38.5032 60.1852 38.6126ZM43.9354 39.3992C43.7384 39.6496 43.746 39.8774 43.9599 40.1261L44.1343 40.3289L48.98 40.3489C54.2896 40.3709 54.2543 40.3734 54.4124 39.9577C54.5012 39.7238 54.3893 39.3868 54.1867 39.2783C54.1071 39.2357 52.1246 39.2088 49.0709 39.2088H44.0851L43.9354 39.3992ZM37.5707 42.0888L34.933 43.2251L34.9116 45.7155C34.8881 48.4693 34.9321 49.0021 35.2677 50.0125C35.5312 50.806 35.8517 51.3922 36.3947 52.0738C36.7761 52.5525 37.7796 53.4451 37.9363 53.4451C37.9737 53.4451 38.0043 53.1519 38.0043 52.7924C38.0043 52.4021 38.0443 52.0441 38.1037 51.9019C38.5951 50.7257 40.2028 50.4651 41.0669 51.4216C41.4187 51.811 41.5453 52.2926 41.5453 53.2415C41.5453 53.6714 41.5697 54.0228 41.5995 54.0222C41.7024 54.0203 42.7314 53.4336 43.0232 53.2106C44.362 52.1874 45.2962 50.6561 45.5885 49.0055C45.6325 48.7571 45.6645 47.4501 45.6645 45.8975V43.2181L43.0085 42.0807C41.5477 41.455 40.3201 40.9452 40.2805 40.9478C40.2409 40.9504 39.0214 41.4639 37.5707 42.0888ZM43.0185 45.5127C42.9038 45.6015 42.1335 46.2886 41.3066 47.0397L39.8034 48.4052L39.166 47.7816C38.6362 47.2631 38.4901 47.158 38.2994 47.158C37.9902 47.158 37.7152 47.4356 37.7152 47.7477C37.7152 47.9519 37.8316 48.099 38.6037 48.8711C39.4184 49.6858 39.5142 49.7595 39.7583 49.7595C40.0046 49.7595 40.1691 49.628 41.9772 47.9853C43.8216 46.3096 43.9301 46.197 43.9301 45.9586C43.9301 45.6572 43.6637 45.3513 43.4011 45.3513C43.3053 45.3513 43.1331 45.424 43.0185 45.5127ZM60.1852 47.6458C60.1449 47.755 60.0279 48.0721 59.9251 48.3504C59.8225 48.6286 59.6445 48.9536 59.5296 49.0725C59.3252 49.2843 59.3034 49.2894 58.4873 49.3153C58.0289 49.3299 57.6634 49.3678 57.6752 49.3997C57.687 49.4315 57.98 49.6894 58.3263 49.9727C59.1103 50.6142 59.1277 50.6746 58.8327 51.7372C58.7153 52.1599 58.631 52.5056 58.6452 52.5056C58.6595 52.5056 58.9754 52.3105 59.3472 52.072C60.2431 51.4975 60.3642 51.4975 61.2359 52.0707C61.5926 52.3053 61.8955 52.4862 61.909 52.4727C61.9225 52.4592 61.8502 52.144 61.7483 51.7723C61.4421 50.6553 61.4592 50.6022 62.3592 49.8755C62.6726 49.6225 62.9089 49.3953 62.8843 49.3707C62.8597 49.3461 62.5605 49.3257 62.2193 49.3255C61.0713 49.3248 60.9655 49.2463 60.5471 48.0862C60.4204 47.7347 60.3036 47.447 60.2876 47.447C60.2716 47.447 60.2255 47.5365 60.1852 47.6458ZM39.2996 52.1862L39.1244 52.3726L39.0883 56.7809C39.0534 61.0392 39.0474 61.1928 38.9119 61.2918C38.7319 61.4234 38.3609 61.4234 38.1807 61.2919C38.055 61.2002 38.0367 61.0707 38.0043 60.0453L37.9682 58.9011L37.7875 58.9244C37.3168 58.9851 36.8417 59.4091 36.7251 59.8725C36.6705 60.0893 36.8256 62.1787 36.9244 62.5575C37.0594 63.0751 37.3629 63.3708 38.4 63.9949C39.6693 64.7586 39.7601 64.8816 39.8109 65.9055L39.8471 66.6336L43.0703 66.6524L46.2935 66.6712L46.3347 66.002C46.367 65.4751 46.4192 65.2406 46.5801 64.8992L46.7846 64.4656L46.805 61.5279L46.8253 58.59L46.6274 58.4344C46.3914 58.2487 46.1517 58.2841 45.8773 58.545C45.6571 58.7543 45.3144 58.7757 45.0922 58.594C44.9895 58.51 44.9169 58.3358 44.8762 58.0756C44.8077 57.6374 44.6723 57.492 44.3334 57.492C44.1696 57.492 44.0469 57.5652 43.8497 57.781C43.6579 57.9907 43.5281 58.0701 43.3764 58.0701C43.0545 58.0701 42.8533 57.8873 42.7985 57.5454C42.7338 57.1401 42.4976 56.9138 42.1393 56.9138C41.8398 56.9138 41.6054 57.0958 41.5132 57.3998C41.4483 57.614 41.1342 57.8533 40.9181 57.8533C40.8222 57.8533 40.664 57.7734 40.5665 57.6759L40.3891 57.4985V54.9985C40.3891 52.0283 40.3826 51.9998 39.7093 51.9998C39.5507 51.9998 39.4181 52.0601 39.2996 52.1862ZM47.9762 62.6048C47.9757 63.509 47.9559 64.3666 47.9321 64.5106L47.8888 64.7724L56.1531 64.8037C60.6985 64.8209 64.5775 64.8099 64.7731 64.7792C66.3099 64.5379 67.3856 62.8575 66.954 61.3725L66.8342 60.9607H57.4056H47.977L47.9762 62.6048Z" fill="white"/>
</g>
<defs>
<filter id="filter0_ii_0_6612" x="-3.12158" y="0" width="108" height="104" filterUnits="userSpaceOnUse" color-interpolation-filters="sRGB">
<feFlood flood-opacity="0" result="BackgroundImageFix"/>
<feBlend mode="normal" in="SourceGraphic" in2="BackgroundImageFix" result="shape"/>
<feColorMatrix in="SourceAlpha" type="matrix" values="0 0 0 0 0 0 0 0 0 0 0 0 0 0 0 0 0 0 127 0" result="hardAlpha"/>
<feOffset dx="4" dy="4"/>
<feGaussianBlur stdDeviation="15"/>
<feComposite in2="hardAlpha" operator="arithmetic" k2="-1" k3="1"/>
<feColorMatrix type="matrix" values="0 0 0 0 0.819608 0 0 0 0 0.85098 0 0 0 0 0.901961 0 0 0 1 0"/>
<feBlend mode="normal" in2="shape" result="effect1_innerShadow_0_6612"/>
<feColorMatrix in="SourceAlpha" type="matrix" values="0 0 0 0 0 0 0 0 0 0 0 0 0 0 0 0 0 0 127 0" result="hardAlpha"/>
<feOffset dx="-4" dy="4"/>
<feGaussianBlur stdDeviation="15"/>
<feComposite in2="hardAlpha" operator="arithmetic" k2="-1" k3="1"/>
<feColorMatrix type="matrix" values="0 0 0 0 1 0 0 0 0 1 0 0 0 0 1 0 0 0 0.5 0"/>
<feBlend mode="normal" in2="effect1_innerShadow_0_6612" result="effect2_innerShadow_0_6612"/>
</filter>
<linearGradient id="paint0_linear_0_6612" x1="27.9531" y1="49.4861" x2="72.9347" y2="49.4861" gradientUnits="userSpaceOnUse">
<stop stop-color="#26A9E1"/>
<stop offset="1" stop-color="#3F6CFF"/>
</linearGradient>
<clipPath id="clip0_0_6612">
<rect width="37" height="37" fill="white" transform="translate(31.7896 32.2712)"/>
</clipPath>
</defs>
</svg>
