<svg width="101" height="100" viewBox="0 0 101 100" fill="none" xmlns="http://www.w3.org/2000/svg">
<g filter="url(#filter0_ii_0_6643)">
<path d="M0.878418 25C0.878418 11.1929 12.0713 0 25.8784 0H75.8784C89.6855 0 100.878 11.1929 100.878 25V75C100.878 88.8071 89.6855 100 75.8784 100H0.878418V25Z" fill="white"/>
</g>
<path d="M1.37842 25C1.37842 11.469 12.3474 0.5 25.8784 0.5H75.8784C89.4094 0.5 100.378 11.469 100.378 25V75C100.378 88.531 89.4094 99.5 75.8784 99.5H1.37842V25Z" stroke="white"/>
<rect x="28" y="27" width="45" height="45" rx="6" fill="url(#paint0_linear_0_6643)"/>
<g clip-path="url(#clip0_0_6643)">
<path fill-rule="evenodd" clip-rule="evenodd" d="M59.1076 31.8697C58.9513 32.0259 58.9302 32.1105 58.9302 32.5801V33.1133L58.4446 33.306L57.9589 33.4986L57.5931 33.1375C57.2952 32.8432 57.1808 32.7763 56.9758 32.7763C56.7491 32.7763 56.6289 32.8715 55.7675 33.7347C54.9099 34.5942 54.811 34.7191 54.811 34.9429C54.811 35.1456 54.8791 35.2615 55.1722 35.5584L55.5334 35.9241L55.3407 36.4098L55.1481 36.8954H54.6149C54.1453 36.8954 54.0607 36.9165 53.9045 37.0728C53.7285 37.2487 53.7271 37.2614 53.7271 38.6298C53.7271 39.9982 53.7285 40.0109 53.9045 40.1868C54.0607 40.3431 54.1453 40.3642 54.6149 40.3642H55.1481L55.3407 40.8498L55.5334 41.3355L55.1722 41.7012C54.8791 41.9981 54.811 42.114 54.811 42.3166C54.811 42.5405 54.9099 42.6654 55.7675 43.5248C56.6289 44.3881 56.7491 44.4833 56.9758 44.4833C57.1808 44.4833 57.2952 44.4164 57.5931 44.1221L57.9589 43.7609L58.4446 43.9536L58.9302 44.1463V44.6794C58.9302 45.1491 58.9513 45.2336 59.1076 45.3899C59.2835 45.5658 59.2961 45.5673 60.6646 45.5673C62.033 45.5673 62.0456 45.5658 62.2215 45.3899C62.3778 45.2336 62.3989 45.1491 62.3989 44.6794V44.1463L62.8846 43.9536L63.3702 43.7609L63.736 44.1221C64.0339 44.4164 64.1483 44.4833 64.3533 44.4833C64.58 44.4833 64.7002 44.3881 65.5616 43.5248C66.4192 42.6654 66.5181 42.5405 66.5181 42.3166C66.5181 42.114 66.45 41.9981 66.1569 41.7012L65.7957 41.3355L65.9884 40.8498L66.181 40.3642H66.7142C67.1838 40.3642 67.2684 40.3431 67.4246 40.1868C67.6006 40.0109 67.6021 39.9982 67.6021 38.6298C67.6021 37.2614 67.6006 37.2487 67.4246 37.0728C67.2684 36.9165 67.1838 36.8954 66.7142 36.8954H66.181L65.9884 36.4098L65.7957 35.9241L66.1569 35.5584C66.4511 35.2604 66.5181 35.146 66.5181 34.941C66.5181 34.7143 66.4228 34.5942 65.5596 33.7328C64.7002 32.8751 64.5753 32.7763 64.3514 32.7763C64.1488 32.7763 64.0329 32.8443 63.736 33.1375L63.3702 33.4986L62.8846 33.306L62.3989 33.1133V32.5801C62.3989 32.1105 62.3778 32.0259 62.2215 31.8697C62.0456 31.6937 62.033 31.6923 60.6646 31.6923C59.2961 31.6923 59.2835 31.6937 59.1076 31.8697ZM60.0864 33.2508C60.0864 33.6443 59.9999 33.9158 59.8407 34.0214C59.797 34.0505 59.5499 34.1422 59.2915 34.2253C59.0332 34.3085 58.6515 34.4718 58.4435 34.5881C57.9186 34.8817 57.7642 34.864 57.3334 34.4611L56.9713 34.1224L56.5643 34.5295L56.1571 34.9366L56.4958 35.2986C56.8988 35.7295 56.9164 35.8838 56.6229 36.4087C56.5065 36.6168 56.3433 36.9984 56.2601 37.2567C56.177 37.5151 56.0852 37.7622 56.0562 37.806C55.9506 37.9651 55.679 38.0517 55.2855 38.0517H54.8833V38.6298V39.2079H55.3394C55.9134 39.2079 56.0414 39.316 56.2539 39.9804C56.3405 40.2511 56.5065 40.6428 56.6229 40.8509C56.9164 41.3757 56.8988 41.5301 56.4958 41.9609L56.1571 42.323L56.5643 42.7301L56.9713 43.1372L57.3334 42.7985C57.7642 42.3956 57.9186 42.3779 58.4435 42.6715C58.6515 42.7878 59.0332 42.9511 59.2915 43.0342C59.5499 43.1173 59.797 43.2091 59.8407 43.2382C59.9999 43.3438 60.0864 43.6153 60.0864 44.0088V44.411H60.6646H61.2427V43.955C61.2427 43.3809 61.3507 43.253 62.0152 43.0405C62.2859 42.9539 62.6776 42.7878 62.8856 42.6715C63.4105 42.3779 63.5649 42.3956 63.9957 42.7985L64.3578 43.1372L64.7648 42.7301L65.172 42.323L64.8333 41.9609C64.4303 41.5301 64.4127 41.3757 64.7062 40.8509C64.8226 40.6428 64.9886 40.2511 65.0752 39.9804C65.2877 39.316 65.4157 39.2079 65.9897 39.2079H66.4458V38.6298V38.0517H65.9897C65.4157 38.0517 65.2877 37.9436 65.0752 37.2791C64.9886 37.0084 64.8226 36.6168 64.7062 36.4087C64.4127 35.8838 64.4303 35.7295 64.8333 35.2986L65.172 34.9366L64.7648 34.5295L64.3578 34.1224L63.9957 34.4611C63.5721 34.8572 63.3971 34.8826 62.9387 34.6139C62.7643 34.5117 62.3568 34.3345 62.033 34.22C61.7093 34.1055 61.4001 33.9533 61.3459 33.8819C61.2877 33.8052 61.2464 33.5666 61.245 33.3002L61.2427 32.8485H60.6646H60.0864V33.2508ZM60.0142 34.628C58.4954 34.9222 57.2892 35.9866 56.7895 37.4735C56.5878 38.0737 56.6035 39.2362 56.8219 39.872C57.2416 41.0944 58.1999 42.0527 59.4223 42.4724C60.0593 42.6913 61.2214 42.7066 61.8208 42.5042C62.7983 42.1741 63.5249 41.6185 64.0579 40.7938C64.5113 40.0923 64.6733 39.5228 64.6733 38.6298C64.6733 37.7372 64.5113 37.1673 64.0587 36.4669C63.3148 35.3161 62.1912 34.6695 60.8452 34.618C60.4875 34.6042 60.1135 34.6088 60.0142 34.628ZM59.9866 35.8149C59.5293 35.9298 58.8784 36.315 58.5625 36.6577C58.4003 36.8338 58.1645 37.1951 58.0388 37.4605C57.8317 37.8977 57.8101 38.0085 57.8101 38.6335C57.8101 39.285 57.8252 39.3545 58.08 39.8699C58.405 40.5276 58.8234 40.9373 59.4953 41.2556C59.9319 41.4624 60.0437 41.4843 60.6646 41.4843C61.2854 41.4843 61.3973 41.4624 61.8338 41.2556C62.5057 40.9373 62.9241 40.5276 63.2491 39.8699C63.5042 39.3539 63.519 39.2856 63.519 38.6298C63.519 37.974 63.5042 37.9057 63.2491 37.3897C62.7608 36.4016 61.8933 35.8218 60.8271 35.7711C60.5191 35.7564 60.1408 35.7762 59.9866 35.8149ZM39.4513 40.5416C39.2804 40.7124 39.2739 40.7548 39.2739 41.6978V42.6767H37.4279H35.5818L35.4045 42.8541L35.2271 43.0314V52.9713V62.911H34.2482C33.3052 62.911 33.2628 62.9175 33.092 63.0885C32.9159 63.2644 32.9146 63.2766 32.9146 64.6518C32.9146 65.5288 32.9469 66.1471 33.0024 66.3353C33.1197 66.7322 33.7184 67.3309 34.1153 67.4482C34.548 67.576 67.1248 67.576 67.5575 67.4482C67.9545 67.3309 68.5531 66.7322 68.6704 66.3353C68.726 66.1471 68.7583 65.5288 68.7583 64.6518C68.7583 63.2766 68.7569 63.2644 68.5809 63.0885C68.4101 62.9175 68.3676 62.911 67.4246 62.911H66.4458V53.661V44.411H65.8677H65.2896V53.661V62.911H50.8364H36.3833V53.372V43.8329H37.8286H39.2739V44.122V44.411H38.2951C37.3521 44.411 37.3097 44.4175 37.1388 44.5885L36.9614 44.7658V53.372V61.9782L37.1388 62.1555L37.3162 62.3329H50.8364H64.3567L64.534 62.1555L64.7114 61.9782V53.4836V44.9892H64.1333H63.5552V53.0829V61.1767H50.8364H38.1177V53.372V45.5673H38.6958H39.2739V47.4133V49.2594L39.4513 49.4368L39.6287 49.6142H43.8989H48.1692L48.3465 49.4368L48.5239 49.2594V47.4133V45.5673H51.1255H53.7271V44.9892V44.411H51.1255H48.5239V44.122V43.8329H51.1255H53.7271V43.2548V42.6767H51.1255H48.5239V41.6978C48.5239 40.7548 48.5174 40.7124 48.3465 40.5416L48.1692 40.3642H43.8989H39.6287L39.4513 40.5416ZM40.4302 44.9892V48.4579H43.8989H47.3677V44.9892V41.5204H43.8989H40.4302V44.9892ZM44.5326 44.2792C43.8813 45.3204 43.3178 46.1814 43.2804 46.1925C43.243 46.2037 42.9848 45.9025 42.7065 45.5233C42.4283 45.1441 42.1597 44.7995 42.1097 44.7576C42.0207 44.683 41.8427 44.7803 41.3018 45.1991L41.1256 45.3355L42.0512 46.5724C43.0128 47.8572 43.1445 47.9704 43.5228 47.836C43.6581 47.7879 44.0878 47.1584 45.2035 45.3743L46.7024 42.9771L46.2582 42.7072C46.0139 42.5588 45.7921 42.4258 45.7653 42.4117C45.7386 42.3976 45.1839 43.2379 44.5326 44.2792ZM57.7739 46.4546V46.7638L57.2751 46.8923C57.0007 46.963 56.5886 47.1338 56.3594 47.2718L55.9425 47.5228L55.7172 47.3044L55.4918 47.086L55.0796 47.5027L54.6672 47.9194L54.8866 48.1389L55.106 48.3583L54.8542 48.7764C54.7158 49.0064 54.5446 49.419 54.4739 49.6934L54.3454 50.1923H54.0363H53.7271V50.7704V51.3485H54.0363H54.3454L54.4739 51.8474C54.5446 52.1218 54.7158 52.5344 54.8542 52.7644L55.106 53.1826L54.8866 53.402L54.6672 53.6214L55.0796 54.0381L55.4918 54.4548L55.7172 54.2364L55.9425 54.018L56.3594 54.269C56.5886 54.407 57.0007 54.5779 57.2751 54.6486L57.7739 54.777V55.0862V55.3954H58.3521H58.9302V55.0862V54.777L59.429 54.6486C59.7034 54.5779 60.1161 54.4067 60.3461 54.2682L60.7642 54.0164L60.9836 54.2358L61.2031 54.4552L61.6198 54.0429L62.0364 53.6306L61.8181 53.4053L61.5997 53.18L61.8506 52.7631C61.9887 52.5338 62.1595 52.1218 62.2302 51.8474L62.3587 51.3485H62.6678H62.9771V50.7704V50.1923H62.6678H62.3587L62.2302 49.6934C62.1595 49.419 61.9883 49.0064 61.8499 48.7764L61.5981 48.3583L61.8175 48.1389L62.0369 47.9194L61.6245 47.5027L61.2123 47.086L60.9869 47.3044L60.7616 47.5228L60.3447 47.2718C60.1155 47.1338 59.7034 46.963 59.429 46.8923L58.9302 46.7638V46.4546V46.1454H58.3521H57.7739V46.4546ZM57.6741 47.9555C57.2168 48.0704 56.5659 48.4556 56.25 48.7984C56.0878 48.9744 55.852 49.3357 55.7263 49.6012C55.5192 50.0383 55.4976 50.1491 55.4976 50.7742C55.4976 51.4256 55.5127 51.4951 55.7675 52.0105C56.0925 52.6683 56.5109 53.0779 57.1828 53.3962C57.6194 53.603 57.7312 53.6249 58.3521 53.6249C58.9729 53.6249 59.0848 53.603 59.5213 53.3962C60.1932 53.0779 60.6116 52.6683 60.9366 52.0105C61.1917 51.4945 61.2065 51.4262 61.2065 50.7704C61.2065 50.1146 61.1917 50.0463 60.9366 49.5303C60.4483 48.5422 59.5808 47.9625 58.5146 47.9117C58.2066 47.8971 57.8283 47.9168 57.6741 47.9555ZM57.8056 48.5211C57.4522 48.613 56.838 48.9748 56.6438 49.2056C56.5456 49.3224 56.3788 49.584 56.2733 49.7871C56.1104 50.1007 56.0813 50.2484 56.0799 50.7704C56.0785 51.3329 56.0991 51.423 56.3239 51.84C56.5974 52.3472 56.8241 52.5661 57.3687 52.8491C57.6834 53.0127 57.8282 53.0409 58.3521 53.0409C58.879 53.0409 59.0199 53.0131 59.3433 52.8452C59.8221 52.5964 60.1781 52.2404 60.4268 51.7617C60.5947 51.4383 60.6226 51.2974 60.6226 50.7704C60.6226 50.2466 60.5943 50.1018 60.4308 49.7871C60.1492 49.2452 59.9285 49.0153 59.4398 48.7549C58.9729 48.506 58.2577 48.4036 57.8056 48.5211ZM57.8787 49.7158C57.1496 50.0334 56.9774 51.0026 57.5486 51.5739C58.3605 52.3858 59.691 51.6586 59.4774 50.5196C59.3495 49.8384 58.5362 49.4295 57.8787 49.7158ZM39.4513 50.9478L39.2739 51.1252V55.3954V59.6657L39.4513 59.843L39.6287 60.0204H43.8989H48.1692L48.3465 59.843L48.5239 59.6657V55.3954V51.1252L48.3465 50.9478L48.1692 50.7704H43.8989H39.6287L39.4513 50.9478ZM40.4302 55.3954V58.8642H43.8989H47.3677V55.3954V51.9267H43.8989H40.4302V55.3954ZM41.5857 53.1198L41.1925 53.518L42.1291 54.4567L43.0658 55.3954L42.1283 56.335L41.1908 57.2746L41.6053 57.6891L42.0197 58.1036L42.9593 57.1661L43.8989 56.2286L44.8385 57.1661L45.7781 58.1036L46.1926 57.6891L46.6071 57.2746L45.6696 56.335L44.7321 55.3954L45.6524 54.473C46.1586 53.9657 46.5728 53.5174 46.5728 53.4767C46.5728 53.384 45.9058 52.7216 45.8125 52.7216C45.7747 52.7216 45.3286 53.1357 44.8213 53.642L43.8989 54.5623L42.9765 53.642C42.4692 53.1357 42.0372 52.7216 42.0166 52.7216C41.9959 52.7216 41.802 52.9007 41.5857 53.1198ZM34.0708 65.0461C34.0708 65.9891 34.0773 66.0315 34.2482 66.2024L34.4256 66.3798H50.8364H67.2473L67.4246 66.2024C67.5955 66.0315 67.6021 65.9891 67.6021 65.0461V64.0673H50.8364H34.0708V65.0461Z" fill="white"/>
</g>
<defs>
<filter id="filter0_ii_0_6643" x="-3.12158" y="0" width="108" height="104" filterUnits="userSpaceOnUse" color-interpolation-filters="sRGB">
<feFlood flood-opacity="0" result="BackgroundImageFix"/>
<feBlend mode="normal" in="SourceGraphic" in2="BackgroundImageFix" result="shape"/>
<feColorMatrix in="SourceAlpha" type="matrix" values="0 0 0 0 0 0 0 0 0 0 0 0 0 0 0 0 0 0 127 0" result="hardAlpha"/>
<feOffset dx="4" dy="4"/>
<feGaussianBlur stdDeviation="15"/>
<feComposite in2="hardAlpha" operator="arithmetic" k2="-1" k3="1"/>
<feColorMatrix type="matrix" values="0 0 0 0 0.819608 0 0 0 0 0.85098 0 0 0 0 0.901961 0 0 0 1 0"/>
<feBlend mode="normal" in2="shape" result="effect1_innerShadow_0_6643"/>
<feColorMatrix in="SourceAlpha" type="matrix" values="0 0 0 0 0 0 0 0 0 0 0 0 0 0 0 0 0 0 127 0" result="hardAlpha"/>
<feOffset dx="-4" dy="4"/>
<feGaussianBlur stdDeviation="15"/>
<feComposite in2="hardAlpha" operator="arithmetic" k2="-1" k3="1"/>
<feColorMatrix type="matrix" values="0 0 0 0 1 0 0 0 0 1 0 0 0 0 1 0 0 0 0.5 0"/>
<feBlend mode="normal" in2="effect1_innerShadow_0_6643" result="effect2_innerShadow_0_6643"/>
</filter>
<linearGradient id="paint0_linear_0_6643" x1="27.9531" y1="49.4861" x2="72.9347" y2="49.4861" gradientUnits="userSpaceOnUse">
<stop stop-color="#26A9E1"/>
<stop offset="1" stop-color="#3F6CFF"/>
</linearGradient>
<clipPath id="clip0_0_6643">
<rect width="37" height="37" fill="white" transform="translate(32.3364 31.1142)"/>
</clipPath>
</defs>
</svg>
