<svg width="100" height="100" viewBox="0 0 100 100" fill="none" xmlns="http://www.w3.org/2000/svg">
<g filter="url(#filter0_ii_0_6622)">
<path d="M0.000488281 25C0.000488281 11.1929 11.1934 0 25.0005 0H75.0005C88.8076 0 100 11.1929 100 25V75C100 88.8071 88.8076 100 75.0005 100H0.000488281V25Z" fill="white"/>
</g>
<path d="M0.500488 25C0.500488 11.469 11.4695 0.5 25.0005 0.5H75.0005C88.5315 0.5 99.5005 11.469 99.5005 25V75C99.5005 88.531 88.5315 99.5 75.0005 99.5H0.500488V25Z" stroke="white"/>
<rect x="27.0005" y="27" width="45" height="45" rx="6" fill="url(#paint0_linear_0_6622)"/>
<path fill-rule="evenodd" clip-rule="evenodd" d="M48.5472 32.8198C46.8143 33.0594 45.1726 34.2601 44.4184 35.8394C44.0055 36.7038 43.862 37.4279 43.9031 38.4387C43.9614 39.8728 44.4144 40.9306 45.4261 41.9958L45.938 42.5346L45.0746 44.2668L44.2113 45.999L43.9222 45.9417C43.7632 45.9101 43.1941 45.8866 42.6576 45.8894C41.7914 45.894 41.6171 45.9167 41.1038 46.0924C39.2978 46.7102 37.9194 48.2045 37.4782 50.023C37.3234 50.6611 37.3234 51.875 37.4782 52.5132C37.7159 53.4927 38.1697 54.291 38.9537 55.1084L39.4141 55.5883L38.5391 57.3369C37.9149 58.5846 37.6356 59.0746 37.5641 59.0471C37.2163 58.9136 36.2372 58.8527 35.6291 58.9267C33.6437 59.168 31.9398 60.4739 31.191 62.3278C30.7683 63.3742 30.7024 64.7755 31.0263 65.8296C31.3165 66.7742 31.7136 67.4295 32.4291 68.145C33.1515 68.8674 33.7984 69.257 34.7806 69.5611C35.4865 69.7797 36.8725 69.7982 37.599 69.5986C39.5363 69.0663 40.9707 67.6306 41.5093 65.6851C41.7234 64.9112 41.7255 63.7557 41.5142 62.9647C41.2544 61.9926 40.7611 61.1459 40.042 60.4377L39.6178 60.0202L40.4913 58.2745C41.2963 56.6655 41.3772 56.5325 41.5233 56.5773C41.6106 56.604 42.0732 56.644 42.5514 56.6661C43.2873 56.7002 43.5134 56.6829 44.0237 56.5539C45.431 56.198 46.568 55.3994 47.317 54.2409C47.9518 53.2591 48.1844 52.4621 48.1844 51.2681C48.1844 50.8072 48.1403 50.26 48.0856 50.0396C47.8425 49.0621 47.2777 48.0737 46.5708 47.3887L46.1421 46.9734L47.0192 45.2175C47.5781 44.0988 47.9286 43.474 47.9852 43.4957C48.3226 43.6252 49.3559 43.6871 49.9219 43.6118C50.2607 43.5667 50.5779 43.5145 50.6268 43.4957C50.6834 43.474 51.0339 44.0988 51.5928 45.2175L52.4699 46.9734L52.0531 47.3772C50.9369 48.4586 50.4339 49.6673 50.4339 51.2681C50.4339 52.8605 50.9427 54.0832 52.0531 55.159L52.4699 55.5628L51.5928 57.3187C51.0554 58.3943 50.6824 59.0618 50.6298 59.0416C50.5826 59.0235 50.2752 58.9719 49.9467 58.9269C47.4522 58.5853 44.9662 60.1774 44.1332 62.6499C43.8521 63.4845 43.8051 64.7191 44.0219 65.5763C44.8279 68.7637 48.0519 70.5171 51.1351 69.4448C52.82 68.8589 54.1388 67.3835 54.5909 65.5789C54.719 65.0673 54.7384 64.8243 54.7089 64.0975C54.6505 62.6634 54.1976 61.6055 53.1859 60.5404L52.674 60.0016L53.5374 58.2694L54.4007 56.5372L54.6898 56.5945C55.0577 56.6675 56.5449 56.6691 56.9474 56.597L57.2539 56.542L58.1257 58.2844L58.9974 60.0267L58.5697 60.4439C56.4696 62.4925 56.3719 65.7793 58.3455 67.9854C59.3932 69.1564 61.0739 69.8458 62.6365 69.7455C63.4963 69.6903 64.0115 69.5493 64.8431 69.1415C65.422 68.8575 65.6325 68.702 66.1862 68.1483C66.7399 67.5946 66.8954 67.3841 67.1794 66.8052C67.5033 66.1447 67.7337 65.4343 67.7337 65.096C67.7337 65.0074 67.7662 64.9147 67.806 64.8902C67.8457 64.8656 67.8783 64.5691 67.8783 64.2312C67.8783 63.8934 67.8527 63.6328 67.8215 63.6521C67.7902 63.6714 67.7241 63.4733 67.6745 63.2119C67.4089 61.8116 66.4487 60.4473 65.1872 59.6776C64.1933 59.0713 62.8398 58.7771 61.7382 58.9279C61.4136 58.9723 61.1029 59.026 61.0479 59.0471C60.9764 59.0746 60.6971 58.5846 60.0728 57.3369L59.1979 55.5883L59.6583 55.1084C60.4415 54.2918 60.8637 53.5501 61.1245 52.5327C61.2893 51.8894 61.293 50.695 61.1322 50.023C60.6986 48.2112 59.3149 46.7104 57.5081 46.0924C56.9948 45.9167 56.8206 45.894 55.9544 45.8894C55.4179 45.8866 54.8488 45.9101 54.6898 45.9417L54.4007 45.999L53.5374 44.2668L52.674 42.5346L53.1859 41.9958C54.1976 40.9306 54.6505 39.8728 54.7089 38.4387C54.7384 37.7119 54.719 37.4689 54.5909 36.9573C53.9037 34.2138 51.3093 32.4378 48.5472 32.8198ZM48.4976 35.0374C46.6492 35.5732 45.6409 37.4133 46.2013 39.2277C46.4915 40.1672 47.3985 41.0591 48.3548 41.3452C48.8795 41.5023 49.7325 41.5023 50.2572 41.3452C51.2311 41.0538 52.1256 40.1635 52.4206 39.1922C52.6191 38.5389 52.5875 37.6388 52.344 37.0069C52.0425 36.2248 51.27 35.4614 50.4681 35.153C49.9569 34.9564 48.9755 34.8988 48.4976 35.0374ZM41.7373 48.167C40.8208 48.4574 39.9263 49.3764 39.6449 50.3169C39.4878 50.8416 39.4878 51.6946 39.6449 52.2193C40.0461 53.5601 41.3482 54.52 42.766 54.52C45.6166 54.52 47.0952 51.1658 45.172 49.0615C44.9708 48.8414 44.6631 48.5774 44.4881 48.4749C43.6957 48.0105 42.6136 47.8894 41.7373 48.167ZM54.7878 48.1835C52.5697 48.9396 51.8375 51.6951 53.3946 53.427C54.8264 55.0195 57.3543 54.8522 58.5377 53.0865C58.9232 52.5115 59.0896 51.963 59.0896 51.2681C59.0896 50.5732 58.9232 50.0247 58.5377 49.4497C57.7217 48.2322 56.176 47.7103 54.7878 48.1835ZM35.6546 61.1057C34.7876 61.2496 33.8201 61.9467 33.3896 62.7377C32.3557 64.6373 33.3696 66.9424 35.4811 67.4923C37.747 68.0825 39.9285 66.0093 39.4511 63.7195C39.1723 62.3825 38.2115 61.4089 36.8958 61.1301C36.3512 61.0147 36.2184 61.0121 35.6546 61.1057ZM48.6114 61.1274C47.0984 61.4706 46.054 62.7711 46.054 64.312C46.054 65.9426 47.1751 67.2642 48.7938 67.5417C50.7545 67.8779 52.5579 66.3311 52.5579 64.3132C52.5579 62.2455 50.6111 60.6739 48.6114 61.1274ZM61.7873 61.0991C60.8459 61.2574 59.8904 61.9795 59.4555 62.8613C58.8195 64.1509 59.0464 65.6034 60.0404 66.6055C61.8551 68.4346 64.8767 67.6021 65.5302 65.093C65.9993 63.2921 64.7505 61.4025 62.8919 61.1012C62.3679 61.0162 62.2811 61.0161 61.7873 61.0991ZM30.8316 64.312C30.8314 64.6698 30.8436 64.8252 30.8588 64.6575C30.8739 64.4897 30.8741 64.1971 30.8592 64.0071C30.8443 63.8171 30.8319 63.9543 30.8316 64.312Z" fill="white"/>
<defs>
<filter id="filter0_ii_0_6622" x="-3.99951" y="0" width="108" height="104" filterUnits="userSpaceOnUse" color-interpolation-filters="sRGB">
<feFlood flood-opacity="0" result="BackgroundImageFix"/>
<feBlend mode="normal" in="SourceGraphic" in2="BackgroundImageFix" result="shape"/>
<feColorMatrix in="SourceAlpha" type="matrix" values="0 0 0 0 0 0 0 0 0 0 0 0 0 0 0 0 0 0 127 0" result="hardAlpha"/>
<feOffset dx="4" dy="4"/>
<feGaussianBlur stdDeviation="15"/>
<feComposite in2="hardAlpha" operator="arithmetic" k2="-1" k3="1"/>
<feColorMatrix type="matrix" values="0 0 0 0 0.819608 0 0 0 0 0.85098 0 0 0 0 0.901961 0 0 0 1 0"/>
<feBlend mode="normal" in2="shape" result="effect1_innerShadow_0_6622"/>
<feColorMatrix in="SourceAlpha" type="matrix" values="0 0 0 0 0 0 0 0 0 0 0 0 0 0 0 0 0 0 127 0" result="hardAlpha"/>
<feOffset dx="-4" dy="4"/>
<feGaussianBlur stdDeviation="15"/>
<feComposite in2="hardAlpha" operator="arithmetic" k2="-1" k3="1"/>
<feColorMatrix type="matrix" values="0 0 0 0 1 0 0 0 0 1 0 0 0 0 1 0 0 0 0.5 0"/>
<feBlend mode="normal" in2="effect1_innerShadow_0_6622" result="effect2_innerShadow_0_6622"/>
</filter>
<linearGradient id="paint0_linear_0_6622" x1="26.9536" y1="49.4861" x2="71.9352" y2="49.4861" gradientUnits="userSpaceOnUse">
<stop stop-color="#26A9E1"/>
<stop offset="1" stop-color="#3F6CFF"/>
</linearGradient>
</defs>
</svg>
