<svg width="45" height="45" viewBox="0 0 45 45" fill="none" xmlns="http://www.w3.org/2000/svg">
<rect width="45" height="45" rx="6" fill="url(#paint0_linear_0_6475)"/>
<g clip-path="url(#clip0_0_6475)">
<path fill-rule="evenodd" clip-rule="evenodd" d="M9.04851 4.13803C8.87941 4.27483 8.8776 4.29195 8.84176 6.07113L8.80563 7.86621L7.01951 7.90234C5.43061 7.9345 5.21908 7.95271 5.10447 8.06754C4.98162 8.19047 4.97468 8.96154 4.95698 24.3866L4.93848 40.5766L5.15021 40.7883L5.36188 41H17.8654H30.3688L30.5716 40.8257L30.7744 40.6514L30.7961 38.8745L30.8177 37.0977H32.572C34.3124 37.0977 34.3276 37.0964 34.4835 36.9304C34.6383 36.7655 34.6406 36.7284 34.6406 34.343V31.9229L35.2006 31.6939C36.4107 31.199 37.6573 30.2337 38.4738 29.1594C38.9481 28.5353 39.5807 27.2432 39.7704 26.5107C40.3434 24.2992 39.9513 21.9879 38.684 20.1063C37.8388 18.8517 36.2091 17.5773 34.9116 17.1568L34.6406 17.0689V12.6846V8.30038L32.4871 6.15019L30.3336 4H19.7763C9.49273 4 9.21465 4.00361 9.04851 4.13803ZM9.99801 6.5293V7.90234H18.2515H26.5049L28.557 9.94385C29.6857 11.0666 30.6544 12.09 30.7098 12.2179C30.7885 12.3997 30.8105 12.9259 30.8105 14.6275V16.8046L31.1841 16.7532C31.6517 16.6889 32.9696 16.6894 33.2639 16.7541L33.4843 16.8025V12.9666V9.13086H31.6468H29.8093L29.6595 8.94044C29.5171 8.75941 29.5097 8.66157 29.5097 6.95313V5.15625H19.7539H9.99801V6.5293ZM30.666 6.98197V7.97461H31.6416C32.1781 7.97461 32.6172 7.96601 32.6172 7.95553C32.6172 7.94505 32.1781 7.49838 31.6416 6.96289L30.666 5.98933V6.98197ZM6.09567 24.4512V39.8438H17.875H29.6543V35.8463V31.8489L29.2387 31.6767C27.5675 30.9846 26.1021 29.6373 25.3307 28.0838L25.0712 27.5613L17.709 27.5418L10.3468 27.5225L10.1724 27.3197C9.95848 27.071 9.95082 26.8432 10.1478 26.5928L10.2976 26.4023H17.4424C21.372 26.4023 24.6041 26.3749 24.6248 26.3414C24.6455 26.3078 24.6236 26.1534 24.5761 25.9981C24.5235 25.8265 24.4892 25.2272 24.4885 24.4692L24.4873 23.2227H17.4201H10.3528L10.1754 23.0452C9.9407 22.8106 9.9407 22.4785 10.1754 22.2438L10.3528 22.0664H17.5894H24.826L24.867 21.9099C24.8894 21.8238 25.0604 21.4417 25.2469 21.0608C25.6521 20.2331 26.313 19.3348 26.9288 18.7749C27.5363 18.2226 28.5495 17.563 29.1558 17.3251L29.6543 17.1295V15.0814V13.0332H27.8517C26.0507 13.0332 26.0489 13.0331 25.8463 12.8589L25.6435 12.6846L25.6219 10.8716L25.6003 9.05859H15.848H6.09567V24.4512ZM26.7636 10.8652V11.877H27.7925H28.8213L27.8115 10.8652C27.2561 10.3088 26.7931 9.85352 26.7826 9.85352C26.7722 9.85352 26.7636 10.3088 26.7636 10.8652ZM10.1754 13.6442C9.96007 13.8595 9.94381 14.1788 10.1361 14.4163L10.2743 14.5869L15.6824 14.6064C19.4521 14.6199 21.1478 14.602 21.2799 14.5472C21.6451 14.396 21.7365 13.9253 21.4554 13.6442L21.278 13.4668H15.8154H10.3528L10.1754 13.6442ZM10.4511 17.7806C10.2484 17.8206 9.99801 18.1324 9.99801 18.3447C9.99801 18.4334 10.0654 18.5916 10.1478 18.6963L10.2976 18.8867H17.875H25.4524L25.6021 18.6963C25.7991 18.4459 25.7914 18.218 25.5775 17.9694L25.4032 17.7666L18.0077 17.7577C13.9402 17.7528 10.5397 17.7631 10.4511 17.7806ZM31.5226 17.8861C28.9148 18.1234 26.5671 20.1178 25.821 22.7294C25.6023 23.4952 25.5524 24.8658 25.7124 25.7158C26.2057 28.3368 28.2433 30.4061 30.9081 30.9925C31.7778 31.1839 33.3083 31.1152 34.1347 30.8478C35.5305 30.3961 36.5575 29.7024 37.4126 28.6336C38.5168 27.2536 39.0401 25.4669 38.8391 23.7633C38.4066 20.0951 35.2359 17.5482 31.5226 17.8861ZM35.3058 20.8471C35.098 20.95 34.3696 21.6426 33.1036 22.9413L31.2117 24.8817L30.3026 23.9821C29.34 23.0298 29.0742 22.8613 28.5336 22.8613C27.6465 22.8613 27.0237 23.6703 27.2142 24.5752C27.2819 24.8964 27.3951 25.03 28.8139 26.4625C29.6537 27.3105 30.4297 28.0509 30.5383 28.1078C30.6469 28.1648 30.8776 28.2309 31.0511 28.2547C31.6801 28.3409 31.8314 28.2205 34.5228 25.4941C35.8794 24.12 37.0624 22.8628 37.1518 22.7003C37.7778 21.5634 36.4836 20.2641 35.3058 20.8471ZM33.6293 24.0523C31.5942 26.0892 31.4067 26.2578 31.1774 26.2578C30.9537 26.2578 30.8172 26.1467 29.801 25.1377C29.1806 24.5216 28.6185 24.0176 28.5519 24.0176C28.4853 24.0176 28.3942 24.0859 28.3496 24.1694C28.2757 24.3074 28.3922 24.4457 29.6274 25.6871C30.3748 26.4383 31.0487 27.0727 31.1248 27.0969C31.234 27.1315 31.5982 26.807 32.8483 25.5611C33.7201 24.6923 34.8278 23.5641 35.3097 23.054C36.0343 22.287 36.1728 22.1058 36.1101 22.0061C36.0684 21.9399 35.989 21.877 35.9336 21.8663C35.8783 21.8557 34.8413 22.8394 33.6293 24.0523ZM10.3098 30.7388C9.96751 30.8767 9.8951 31.3646 10.1754 31.6449L10.3528 31.8223H17.875H25.3972L25.5745 31.6449C25.8501 31.3693 25.7682 30.907 25.4154 30.7462C25.199 30.6477 10.5539 30.6404 10.3098 30.7388ZM30.8105 34.0806V35.9414H32.1474H33.4843L33.4842 34.0806L33.4841 32.2197H32.1473H30.8104L30.8105 34.0806ZM10.1478 35.1924C9.95082 35.4428 9.95848 35.6706 10.1724 35.9193L10.3468 36.1221H17.875H25.4031L25.5775 35.9193C25.8002 35.6604 25.7992 35.404 25.5745 35.1794L25.3972 35.002H17.8474H10.2976L10.1478 35.1924Z" fill="white"/>
</g>
<defs>
<linearGradient id="paint0_linear_0_6475" x1="-0.0469116" y1="22.4861" x2="44.9347" y2="22.4861" gradientUnits="userSpaceOnUse">
<stop stop-color="#26A9E1"/>
<stop offset="1" stop-color="#3F6CFF"/>
</linearGradient>
<clipPath id="clip0_0_6475">
<rect width="37" height="37" fill="white" transform="translate(4 4)"/>
</clipPath>
</defs>
</svg>
