<svg width="45" height="45" viewBox="0 0 45 45" fill="none" xmlns="http://www.w3.org/2000/svg">
<rect width="45" height="45" rx="6" fill="url(#paint0_linear_0_6485)"/>
<path fill-rule="evenodd" clip-rule="evenodd" d="M9.72481 6.45836C8.46789 6.7876 7.38261 7.648 6.83556 8.74875C6.26986 9.88693 6.30614 8.84602 6.32869 23.2949L6.34885 36.1943L6.51 36.5881C6.87277 37.4748 7.52815 38.1353 8.39086 38.4837L8.80588 38.6513L21.6872 38.6703C36.0787 38.6917 35.1033 38.725 36.2307 38.1722C37.0674 37.7619 37.7564 37.0709 38.1747 36.2224C38.7167 35.1232 38.6928 35.6358 38.671 25.5874L38.6516 16.6103L38.4873 16.2042C38.1154 15.2846 37.3616 14.565 36.4785 14.2867L36.0862 14.163V12.9628C36.0862 11.6419 36.0045 11.1704 35.6682 10.5496C35.266 9.80701 34.4055 9.16868 33.5714 8.99416C33.3115 8.93975 31.5145 8.91402 27.9808 8.91402H22.7732L21.5691 7.734C20.5716 6.75653 20.3041 6.53323 20.0105 6.43321C19.6931 6.3251 19.1647 6.31289 14.9537 6.31643C10.5658 6.32012 10.216 6.32966 9.72481 6.45836ZM9.93359 7.5831C8.77719 7.89406 7.78332 8.93729 7.54485 10.0906C7.49028 10.3543 7.47258 14.3144 7.48595 23.2587L7.5051 36.0498L7.66423 36.3472C8.07087 37.1073 8.68166 37.4887 9.4924 37.4887C10.3032 37.4887 10.9139 37.1073 11.3206 36.3472L11.4797 36.0498L11.5163 26.9082C11.551 18.2809 11.5605 17.7442 11.6859 17.3691C12.2207 15.77 13.3871 14.661 14.9563 14.2597C15.4974 14.1213 15.7961 14.1171 25.2217 14.1171H34.9299V12.974C34.9299 11.5117 34.8495 11.209 34.3203 10.6798C33.684 10.0435 33.9632 10.0703 27.9561 10.0703C23.2745 10.0703 22.7066 10.058 22.3883 9.94952C22.0948 9.8495 21.8273 9.6262 20.8298 8.64873L19.6256 7.46871L14.9745 7.47348C11.1487 7.47738 10.2543 7.49682 9.93359 7.5831ZM15.1367 15.3878C14.9222 15.4455 14.5915 15.5771 14.4018 15.6804C13.9602 15.9207 13.32 16.5605 13.0802 17.0009C12.6566 17.7792 12.6721 17.4015 12.6721 26.9921C12.6721 33.2308 12.6485 35.9011 12.5909 36.1727C12.5062 36.5715 12.2303 37.1868 12.0384 37.4047C11.9324 37.5251 12.471 37.5311 23.2297 37.5301C35.6275 37.529 35.0448 37.5488 35.8283 37.1003C36.2962 36.8325 36.8327 36.296 37.1005 35.8281C37.5429 35.0553 37.5292 35.3753 37.5304 25.7831C37.5316 15.8014 37.5768 16.5379 36.9219 15.883C36.2627 15.2237 37.1759 15.2727 25.6487 15.2782C17.0416 15.2822 15.4682 15.2986 15.1367 15.3878ZM24.8127 18.8117C24.0463 18.9535 23.3037 19.3666 22.8151 19.9232C22.4397 20.351 21.5608 21.919 21.5608 22.1612C21.5608 22.3898 21.7693 22.6215 22.035 22.6882C22.3295 22.7621 22.5577 22.5344 23.0634 21.6617C23.8353 20.3298 24.3633 19.939 25.3908 19.939C26.0767 19.939 26.5618 20.1416 26.999 20.6108C27.2352 20.8642 29.1487 24.0456 29.1487 24.1848C29.1487 24.1988 29.046 24.2103 28.9204 24.2103C28.7616 24.2103 28.6407 24.2701 28.523 24.407C28.31 24.6546 28.3078 24.8959 28.5163 25.1367C28.6507 25.2919 28.792 25.3427 29.3293 25.4295C30.2077 25.5714 30.544 25.5656 30.6883 25.4061C30.8734 25.2016 31.3981 23.9628 31.4051 23.7137C31.4141 23.3973 31.0913 23.1196 30.7856 23.1807C30.5385 23.2301 30.3049 23.414 30.3049 23.559C30.3049 23.6125 30.2791 23.6562 30.2475 23.6562C30.216 23.6562 29.7526 22.8875 29.2177 21.9481C28.1989 20.1583 27.8591 19.6985 27.2822 19.3282C26.5947 18.8871 25.5674 18.6723 24.8127 18.8117ZM20.0469 23.6669C19.378 23.7368 19.1297 23.8526 19.0609 24.1269C18.961 24.5248 19.2543 24.8847 19.6782 24.8847C19.7598 24.8847 19.8264 24.9055 19.8264 24.9309C19.8264 24.9563 19.3867 25.7315 18.8494 26.6538C17.7128 28.6042 17.5778 28.9338 17.5717 29.7739C17.5607 31.2584 18.4301 32.5181 19.8181 33.0289C20.3398 33.2209 20.4314 33.2314 21.5849 33.2314H22.8014L22.976 33.0286C23.1863 32.7844 23.1985 32.5478 23.0127 32.318C22.8802 32.1542 22.8261 32.1458 21.6577 32.1073C20.524 32.07 20.4126 32.0538 20.0316 31.8703C19.5513 31.639 19.1581 31.2305 18.9168 30.7122C18.6751 30.1933 18.6738 29.4057 18.9137 28.8955C19.0936 28.5129 20.733 25.6866 20.8356 25.582C20.8689 25.5482 20.9178 25.5892 20.9445 25.6731C20.9951 25.8327 21.3247 26.041 21.5266 26.041C21.6799 26.041 22.0666 25.6528 22.0666 25.4991C22.0666 25.2772 21.4759 23.8669 21.3234 23.7249C21.1578 23.5706 21.0264 23.5646 20.0469 23.6669ZM31.0604 26.6227C30.8304 26.8769 30.8946 27.1774 31.3403 27.9331C31.9685 28.9983 32.036 29.1791 32.037 29.7988C32.0377 30.2201 31.9994 30.4235 31.8649 30.7122C31.6247 31.2282 31.2319 31.6376 30.7501 31.8742L30.341 32.0752L28.2537 32.0983C26.258 32.1203 26.1689 32.1156 26.2233 31.9899C26.2545 31.9175 26.2952 31.7507 26.3136 31.6191C26.3724 31.1997 25.9379 30.9051 25.5055 31.071C25.4428 31.0951 25.1572 31.4086 24.8709 31.7677C24.2044 32.6034 24.2023 32.661 24.8076 33.5041C25.0579 33.8527 25.3313 34.186 25.4151 34.2448C25.9023 34.586 26.4781 33.9583 26.1832 33.4073C26.1101 33.2707 26.153 33.2675 28.0441 33.2663C30.2158 33.2649 30.6844 33.2036 31.3866 32.8293C31.876 32.5684 32.4025 32.0796 32.7045 31.6054C33.1866 30.8485 33.3338 29.6779 33.0582 28.7923C32.9183 28.3429 32.1428 26.9321 31.8735 26.6372C31.6774 26.4224 31.2486 26.4147 31.0604 26.6227Z" fill="white"/>
<defs>
<linearGradient id="paint0_linear_0_6485" x1="-0.0469116" y1="22.4861" x2="44.9347" y2="22.4861" gradientUnits="userSpaceOnUse">
<stop stop-color="#26A9E1"/>
<stop offset="1" stop-color="#3F6CFF"/>
</linearGradient>
</defs>
</svg>
