<svg width="45" height="45" viewBox="0 0 45 45" fill="none" xmlns="http://www.w3.org/2000/svg">
<rect width="45" height="45" rx="6" fill="url(#paint0_linear_0_6547)"/>
<g clip-path="url(#clip0_0_6547)">
<path fill-rule="evenodd" clip-rule="evenodd" d="M19.8143 3.70929C16.9079 4.0717 14.3241 5.00899 11.9012 6.57961C9.80124 7.94095 7.74955 10.0155 6.37773 12.1647C5.90584 12.9039 4.91457 14.8854 4.84664 15.2253C4.71078 15.9045 5.57602 16.1067 5.86905 15.4642C6.28465 14.5527 7.03347 13.1179 7.10855 13.0891C7.15762 13.0703 7.8414 13.1867 8.62808 13.3479C9.41477 13.5089 10.6113 13.7267 11.287 13.8318C11.9626 13.9368 12.5248 14.0313 12.5362 14.0418C12.5476 14.0524 12.2469 15.3003 11.8678 16.815C11.4887 18.3297 11.1786 19.685 11.1786 19.8267C11.1786 20.0071 11.2343 20.14 11.3644 20.2702C11.5305 20.4363 11.5903 20.4517 11.9245 20.4152C12.1303 20.3926 12.3881 20.3524 12.4974 20.3259L12.6961 20.2777V20.9003V21.5231H8.64926H4.60238V21.355C4.60238 20.9797 4.76787 19.5618 4.89347 18.8607C5.04168 18.0336 5.00909 17.8158 4.71757 17.6829C4.48228 17.5757 4.19668 17.6555 4.05793 17.8672C3.82104 18.2288 3.52013 20.5526 3.51905 22.0289C3.51753 24.1071 3.98111 26.6554 4.69705 28.5043L4.94593 29.1471L4.70225 29.4815C4.38602 29.9154 4.0614 30.6165 3.90336 31.2066C3.7159 31.9068 3.73396 33.1693 3.94209 33.9166C4.54637 36.0863 6.38301 38.2218 8.54086 39.2637C10.6225 40.2687 12.7455 40.4178 15.3336 39.7406L16.1191 39.535L16.8356 39.7398C20.2571 40.7178 23.9398 40.7001 27.2819 39.6896C31.7675 38.3334 35.5562 35.3384 37.9473 31.2585C38.7553 29.8798 38.9278 29.3358 38.6397 29.075C38.4757 28.9266 38.1052 28.9124 37.9415 29.0482C37.8811 29.0984 37.6694 29.4626 37.4712 29.8576C37.1425 30.5126 36.4768 31.6418 36.2417 31.9432C36.1527 32.0573 36.0787 32.0516 35.1346 31.8599C34.5782 31.7468 33.5538 31.5653 32.8582 31.4565C32.1627 31.3478 31.5843 31.2513 31.5729 31.2421C31.5614 31.2329 31.8975 29.8473 32.3196 28.1628C32.7418 26.4784 33.0877 24.9875 33.0883 24.8497C33.0892 24.6597 33.0351 24.5507 32.8643 24.3981C32.5961 24.1584 32.4734 24.1518 31.8104 24.3414C31.5325 24.4209 31.2805 24.4859 31.2505 24.4859C31.1841 24.4859 31.1812 23.9301 31.2434 23.131L31.2898 22.5348H35.2856C37.4832 22.5348 39.2956 22.5591 39.3131 22.589C39.4184 22.7691 39.1291 24.9891 38.8426 26.1985C38.7145 26.7392 38.7009 26.8979 38.7698 27.0491C38.9505 27.4457 39.5556 27.4316 39.7144 27.0271C39.9965 26.3087 40.278 24.6299 40.3786 23.0669C40.5245 20.7986 40.2678 18.777 39.5294 16.3793L39.2695 15.5354L39.4849 15.2592C40.6939 13.7085 40.8304 11.5505 39.8467 9.5417C38.618 7.03286 36.3375 5.26343 33.5786 4.67844C32.4552 4.44026 30.9675 4.45406 29.7732 4.71385L28.8923 4.9055L28.0404 4.61174C26.6453 4.13067 25.3162 3.83192 23.8821 3.67699C22.9628 3.57769 20.7277 3.59547 19.8143 3.70929ZM21.1151 4.73662C20.7375 4.82731 19.9846 5.16934 19.5545 5.44561C18.1981 6.31685 16.7218 8.35373 15.8049 10.6191L15.6407 11.0247L15.8763 11.6489C16.0058 11.9922 16.1272 12.2731 16.1461 12.2731C16.165 12.2731 16.5102 11.9593 16.9133 11.5759C18.1356 10.4134 19.6425 9.23342 20.9234 8.43589L21.4343 8.11778L21.4373 6.40147C21.4396 5.0707 21.42 4.68704 21.3499 4.69355C21.3003 4.69817 21.1946 4.71754 21.1151 4.73662ZM22.5243 6.05337C22.5243 6.81122 22.5407 7.43126 22.5608 7.43126C22.5809 7.43126 23.0118 7.22349 23.5183 6.96955C24.0249 6.71561 24.6101 6.43522 24.8187 6.34641C25.0273 6.25759 25.1981 6.15693 25.1981 6.1226C25.1981 6.01637 24.3909 5.41982 23.8973 5.16132C23.639 5.02604 23.2812 4.8779 23.1024 4.83208C22.9235 4.78626 22.7202 4.73228 22.6507 4.71212C22.5334 4.67808 22.5243 4.77521 22.5243 6.05337ZM18.0799 5.08226C18.0402 5.09563 17.6987 5.19167 17.3211 5.29559C14.4778 6.07837 11.8842 7.59552 9.74762 9.72569C8.93268 10.5382 7.78207 11.9006 7.78207 12.053C7.78207 12.1505 12.7285 13.0597 12.8109 12.9773C12.8225 12.9656 13.0313 12.1381 13.2748 11.1382C13.7666 9.1183 13.8488 8.94884 14.3367 8.94884C14.6644 8.94884 14.8378 9.04972 14.9788 9.32223L15.0949 9.54691L15.5102 8.76008C16.2566 7.34591 16.8396 6.52382 17.7724 5.57042C18.2403 5.09209 18.2914 5.01101 18.0799 5.08226ZM26.0079 5.38462L26.3374 5.71415L26.7118 5.58971C26.9179 5.52135 27.0707 5.44966 27.0515 5.43051C27.0323 5.41136 26.7156 5.31908 26.3475 5.22542L25.6784 5.05516L26.0079 5.38462ZM30.7686 5.62577C30.1244 5.71603 28.6456 6.09246 27.6551 6.41831C23.697 7.72039 20.304 9.78596 17.237 12.7606C16.3488 13.622 16.2239 13.7184 15.9944 13.7184C15.5705 13.7184 15.4265 13.5116 14.926 12.1847C14.6753 11.52 14.4497 11.016 14.4245 11.0646C14.3438 11.2209 12.3868 19.1421 12.4207 19.1759C12.4386 19.1939 14.2308 18.7303 16.4034 18.1458C18.5759 17.5613 20.3297 17.0613 20.3006 17.0346C20.2717 17.008 19.7782 16.8137 19.2042 16.603C18.126 16.2073 17.9351 16.0906 17.8571 15.7797C17.7727 15.4434 17.8909 15.2447 18.4493 14.784C22.9464 11.074 28.8567 9.191 34.4842 9.67532C35.5511 9.76717 37.2702 10.0512 38.2626 10.2995C38.6714 10.4018 39.0231 10.4682 39.0442 10.4471C39.0653 10.426 38.9788 10.2022 38.8521 9.94979C37.7805 7.81578 35.8908 6.33853 33.5086 5.77262C32.7979 5.60373 31.4439 5.53118 30.7686 5.62577ZM31.3407 10.7305C29.9641 10.8623 29.4618 10.924 29.4618 10.9614C29.4618 10.9856 29.6152 11.4836 29.8026 12.0679C30.1322 13.0951 30.1496 13.1294 30.3266 13.1007C30.4272 13.0844 31.0137 13.0021 31.6297 12.9177C33.3131 12.6874 36.1832 12.149 36.1817 12.0641C36.1813 12.0399 36.0431 11.8385 35.8745 11.6167C35.2371 10.7771 35.3553 10.8498 34.4846 10.7621C33.7677 10.69 31.9547 10.6718 31.3407 10.7305ZM27.5828 11.333C26.1216 11.7037 24.9804 12.127 23.4456 12.8674C22.7349 13.2103 22.5243 13.344 22.5243 13.4521C22.5243 13.5879 22.5721 13.5907 24.0599 13.5446C26.0252 13.4836 28.9007 13.288 28.9839 13.2096C29.0387 13.1581 28.5301 11.4592 28.388 11.219C28.3562 11.1651 28.104 11.2008 27.5828 11.333ZM36.9051 11.1816C36.9051 11.2207 36.9337 11.2705 36.9687 11.2921C37.088 11.3658 38.0455 12.9579 38.3954 13.6642C38.5873 14.0517 38.7647 14.3688 38.7897 14.3688C38.8807 14.3688 39.282 13.381 39.3621 12.9596C39.4075 12.7211 39.4342 12.3488 39.4215 12.1322L39.3983 11.7384L38.4227 11.4738C37.2272 11.1495 36.9051 11.0875 36.9051 11.1816ZM35.0913 13.3957C34.2726 13.5659 32.8914 13.8075 32.022 13.9326C31.1526 14.0577 30.4321 14.1693 30.4209 14.1805C30.4097 14.1917 30.4792 14.5882 30.5754 15.0616C30.9113 16.7149 31.1263 18.5353 31.2383 20.6745L31.2827 21.5243L35.3044 21.5056L39.326 21.4869L39.3061 21.0172C39.2087 18.7268 38.5111 16.2111 37.357 13.9894C36.9691 13.2426 36.8501 13.0697 36.7291 13.0772C36.6471 13.0821 35.91 13.2255 35.0913 13.3957ZM28.1971 14.3714C27.4638 14.4448 25.304 14.5689 23.7347 14.6278L22.5243 14.6732V18.0981V21.5231H26.365H30.2059L30.1559 20.421C30.0706 18.5386 29.847 16.7401 29.4753 14.9469L29.3479 14.3326L29.0616 14.323C28.9041 14.3177 28.5151 14.3395 28.1971 14.3714ZM19.8667 15.0372C19.5823 15.2458 19.3484 15.4375 19.347 15.4629C19.3448 15.5057 21.2761 16.2477 21.3898 16.2477C21.4175 16.2477 21.4403 15.8899 21.4403 15.4527V14.6578H20.9121C20.3887 14.6578 20.3791 14.6613 19.8667 15.0372ZM17.556 18.944L13.7801 19.965V20.744V21.5231H17.6102H21.4403V19.7164C21.4403 18.7228 21.4158 17.9127 21.3861 17.9164C21.3563 17.92 19.6328 18.3825 17.556 18.944ZM4.60238 22.7029C4.60238 23.2009 4.78167 24.5802 4.96819 25.5172C5.20992 26.7317 5.61179 27.9934 6.11851 29.1289C6.47074 29.9184 7.3862 31.5472 7.66579 31.8821L7.8182 32.0646L9.04672 31.8173C9.7224 31.6812 11.0715 31.4534 12.0447 31.311C13.0179 31.1686 13.82 31.0462 13.8271 31.0391C13.8341 31.0318 13.7451 30.6357 13.6292 30.1588C13.1606 28.2295 12.8306 25.8364 12.7301 23.6368L12.6798 22.5348H8.64109H4.60238V22.7029ZM13.8044 23.7264C13.8303 24.3819 13.9018 25.3656 13.9635 25.9125C14.1965 27.9808 14.7789 30.8171 14.9869 30.897C15.0457 30.9195 15.8308 30.8853 16.7314 30.8208C17.6321 30.7564 19.0601 30.682 19.9046 30.6556L21.4403 30.6076V26.5712V22.5348H17.5988H13.7574L13.8044 23.7264ZM22.5243 24.6666C22.5243 26.1297 22.5485 26.7984 22.6014 26.7984C22.7321 26.7984 30.0006 24.8346 30.0526 24.7853C30.0795 24.7598 30.1246 24.2429 30.153 23.6368L30.2046 22.5348H26.3645H22.5243V24.6666ZM27.8921 26.5102C25.737 27.0904 23.9577 27.5812 23.938 27.6009C23.9183 27.6206 24.3807 27.812 24.9656 28.0263C26.1214 28.4497 26.4286 28.6579 26.4241 29.015C26.4193 29.3957 26.2185 29.609 25.0536 30.4717C20.9217 33.5315 16.4694 35.0367 11.5506 35.0367C9.54361 35.0367 7.94315 34.8465 6.08773 34.3874C5.61287 34.2699 5.21245 34.1858 5.19785 34.2004C5.15117 34.247 5.66078 35.2235 5.97962 35.6985C6.36942 36.2793 7.39039 37.2982 7.98998 37.7049C9.19154 38.5199 10.6243 38.9946 12.0883 39.0629C13.1547 39.1126 13.829 39.0233 15.2254 38.6474C19.7943 37.4176 23.7242 35.1611 27.0958 31.8315C27.5632 31.3699 28.0273 30.9718 28.127 30.9467C28.4054 30.8768 28.7301 31.049 28.8752 31.3434C28.9458 31.4868 29.1775 32.0683 29.39 32.6356C29.6025 33.2029 29.7995 33.6419 29.8278 33.6111C29.8902 33.5432 31.8604 25.5691 31.8311 25.5026C31.8197 25.4767 30.0472 25.9301 27.8921 26.5102ZM22.5243 29.4723V30.6285H22.7461C22.8753 30.6285 23.1091 30.5333 23.3062 30.4005C23.9178 29.9882 24.909 29.2419 24.9084 29.194C24.9079 29.1499 22.695 28.316 22.5785 28.316C22.5486 28.316 22.5243 28.8363 22.5243 29.4723ZM5.2217 30.7201C4.9976 31.1782 4.82214 31.962 4.82041 32.513L4.81918 32.9159L5.63217 33.1394C6.37195 33.3427 7.41698 33.5914 7.5316 33.5914C7.55696 33.5914 7.47378 33.4532 7.3466 33.2843C6.9211 32.7189 6.01423 31.3145 5.75863 30.825C5.61952 30.5586 5.48373 30.3404 5.45685 30.34C5.42997 30.3397 5.3241 30.5107 5.2217 30.7201ZM18.6942 31.7548C18.5948 31.7661 17.8245 31.815 16.9823 31.8633C16.1402 31.9117 15.4114 31.9759 15.3629 32.006C15.2506 32.0753 15.7757 33.5191 15.9131 33.5191C16.0893 33.5191 17.4368 33.1486 18.1883 32.8936C19.0603 32.5977 20.0854 32.18 20.6092 31.9073L20.9705 31.7192L19.9227 31.7267C19.3464 31.7308 18.7935 31.7434 18.6942 31.7548ZM12.6961 32.2923C11.2347 32.4924 8.74768 32.9248 8.60207 33.004C8.54953 33.0327 8.66096 33.2093 8.90435 33.483L9.28989 33.9166H11.3001C13.2947 33.9166 14.4563 33.854 14.6468 33.7362C14.7273 33.6865 14.6943 33.5345 14.4717 32.9286C14.3208 32.5181 14.1767 32.1636 14.1513 32.1408C14.1261 32.1179 13.4712 32.1861 12.6961 32.2923ZM30.905 33.8167C30.4711 35.5557 30.3851 35.72 29.9088 35.72C29.5241 35.72 29.368 35.5672 29.1283 34.9561C29.0209 34.6825 28.9241 34.4586 28.9132 34.4586C28.9023 34.4586 28.6905 34.8407 28.4425 35.3077C27.7029 36.7008 27.112 37.5284 26.1489 38.5201L25.6785 39.0045L26.1429 38.8972C26.9579 38.7088 28.5145 38.1488 29.4176 37.719C30.896 37.0155 32.0194 36.2743 33.4144 35.082C34.258 34.3611 35.4309 33.0966 35.3361 33.0103C35.2555 32.937 31.6468 32.2906 31.318 32.2906C31.3003 32.2906 31.1143 32.9774 30.905 33.8167ZM27.3642 33.0585C25.9475 34.3965 24.5827 35.4674 23.2312 36.3015L22.529 36.735L22.5266 38.0587C22.5244 39.2858 22.5335 39.3797 22.6507 39.3457C22.7202 39.3255 22.9229 39.2713 23.1012 39.2251C24.834 38.7764 26.7273 36.6733 27.983 33.8021C28.3258 33.0183 28.3507 32.8813 28.21 32.552L28.1211 32.3437L27.3642 33.0585ZM21.1904 37.5034C21.0729 37.5745 20.5958 37.8038 20.1302 38.0128C19.6645 38.2218 19.2988 38.4177 19.3176 38.4481C19.4645 38.6856 21.2887 39.476 21.4101 39.3547C21.429 39.3357 21.4354 38.8823 21.4243 38.3471L21.4041 37.3739L21.1904 37.5034ZM18.0799 38.9391C18.1045 38.9788 18.1571 39.0113 18.1968 39.0113C18.2366 39.0113 18.249 38.9788 18.2245 38.9391C18.1999 38.8993 18.1473 38.8668 18.1075 38.8668C18.0678 38.8668 18.0554 38.8993 18.0799 38.9391Z" fill="white"/>
</g>
<defs>
<linearGradient id="paint0_linear_0_6547" x1="-0.0469116" y1="22.4861" x2="44.9347" y2="22.4861" gradientUnits="userSpaceOnUse">
<stop stop-color="#26A9E1"/>
<stop offset="1" stop-color="#3F6CFF"/>
</linearGradient>
<clipPath id="clip0_0_6547">
<rect width="37" height="37" fill="white" transform="translate(3.51855 3.52893)"/>
</clipPath>
</defs>
</svg>
