<svg width="45" height="45" viewBox="0 0 45 45" fill="none" xmlns="http://www.w3.org/2000/svg">
<rect width="45" height="45" rx="6" fill="url(#paint0_linear_0_6537)"/>
<path fill-rule="evenodd" clip-rule="evenodd" d="M6.01766 5.3015C5.27368 5.42746 4.57603 5.97466 4.24462 6.69211L4.03613 7.14355V20.043V32.9424L4.24462 33.3938C4.49357 33.9329 4.93295 34.3627 5.50067 34.6226C5.8461 34.7807 6.03905 34.8135 6.79603 34.8427L7.68555 34.8769V34.2609V33.6449L6.90869 33.6155C6.02561 33.5821 5.78554 33.492 5.46714 33.0746L5.26465 32.8091V20.043V7.27681L5.46714 7.01138C5.5785 6.8654 5.77362 6.68907 5.90073 6.61955C6.11811 6.50068 6.94699 6.49208 19.888 6.47437C29.0136 6.46187 33.7357 6.48023 33.9162 6.52879C34.5848 6.70887 34.7981 7.07887 34.843 8.1372L34.876 8.91406H35.4909H36.1058L36.0683 8.06494C36.0214 7.00227 35.8608 6.53414 35.3699 6.0303C34.9564 5.60574 34.5981 5.41257 34.0289 5.30735C33.5295 5.21507 6.56174 5.20943 6.01766 5.3015ZM6.45703 8.2998V8.91406H7.07129H7.68555V8.2998V7.68554H7.07129H6.45703V8.2998ZM8.96226 7.73375C8.93574 7.76019 8.91406 8.03661 8.91406 8.348V8.91406H9.52832H10.1426V8.2998V7.68554H9.57652C9.26513 7.68554 8.98871 7.70722 8.96226 7.73375ZM11.4193 7.73375C11.3928 7.76019 11.3711 8.03661 11.3711 8.348V8.91406H11.9854H12.5996V8.2998V7.68554H12.0336C11.7222 7.68554 11.4457 7.70722 11.4193 7.73375ZM11.0452 10.2138C10.299 10.3236 9.52666 10.8834 9.20515 11.5476C9.12183 11.7196 9.02246 12.0511 8.9843 12.2842C8.88227 12.9073 8.89043 37.1602 8.9929 37.7144C9.1469 38.5474 9.63209 39.1825 10.3777 39.5269L10.8291 39.7353L24.7402 39.7575C35.0192 39.7737 38.7551 39.7578 39.0488 39.6964C39.2674 39.6507 39.5782 39.5374 39.7395 39.4446C40.0685 39.2552 40.5718 38.7384 40.7325 38.4247C41.007 37.8892 41.009 37.7855 40.9861 24.7402L40.9639 12.0576L40.7709 11.646C40.4006 10.8559 39.6956 10.3383 38.8168 10.2112C38.2756 10.133 11.578 10.1355 11.0452 10.2138ZM10.8 11.5935C10.4457 11.81 10.3041 12.0094 10.214 12.4189C10.1574 12.6762 10.1408 16.3612 10.1566 25.21C10.1773 36.8843 10.1864 37.6537 10.3051 37.8708C10.3746 37.9979 10.551 38.193 10.6969 38.3043L10.9624 38.5068L24.7707 38.5275C32.3653 38.5388 38.6855 38.5291 38.8155 38.5058C39.109 38.4534 39.5441 38.0802 39.6739 37.7696C39.7546 37.5763 39.7712 35.3644 39.7699 24.9774C39.7684 12.8865 39.7633 12.4079 39.6338 12.1227C39.5598 11.9598 39.3898 11.7485 39.256 11.653L39.0127 11.4795L25.0293 11.4614L11.0459 11.4433L10.8 11.5935ZM11.3863 13.2681L11.4072 13.8643L12.0034 13.8852L12.5996 13.9062V13.289V12.6719H11.9825H11.3652L11.3863 13.2681ZM13.9004 13.289V13.9062L14.4966 13.8852L15.0928 13.8643L15.1137 13.2681L15.1348 12.6719H14.5175H13.9004V13.289ZM16.3574 13.289V13.9062L16.9536 13.8852L17.5498 13.8643L17.5708 13.2681L17.5918 12.6719H16.9746H16.3574V13.289ZM11.3863 15.7251L11.4072 16.3213L24.9751 16.3396L38.543 16.3578V15.7434V15.1289H24.9541H11.3652L11.3863 15.7251ZM22.8113 17.6722C22.5725 17.7877 22.5434 17.9044 22.502 18.9103L22.4639 19.8373L21.9219 20.0483C21.6238 20.1643 21.3466 20.2593 21.306 20.2595C21.2653 20.2596 20.9726 19.9969 20.6556 19.6755C19.9857 18.9966 19.8416 18.9188 19.5156 19.0605C19.3883 19.1158 18.667 19.7819 17.9128 20.5405C16.5892 21.8719 16.5413 21.9301 16.5413 22.2101C16.5413 22.4785 16.5892 22.5484 17.1802 23.1421L17.819 23.7839L17.5872 24.3648L17.3553 24.9458L16.4284 24.9695C15.5634 24.9916 15.489 25.0049 15.3151 25.1683L15.1289 25.3436V27.4502V29.5568L15.3154 29.732C15.4891 29.8954 15.5647 29.909 16.4302 29.9324L17.3587 29.9576L17.5903 30.5323L17.822 31.1071L17.162 31.7801C16.4723 32.4834 16.4153 32.6045 16.6048 32.9641C16.6614 33.0714 17.3218 33.769 18.0725 34.5142C19.378 35.8102 19.4497 35.8691 19.7207 35.8691C19.981 35.8691 20.0573 35.8162 20.657 35.219L21.3099 34.5687L21.8869 34.8193L22.4639 35.0699L22.5 36.018C22.5354 36.9478 22.54 36.9695 22.7389 37.1403L22.9417 37.3144H24.9297C26.9504 37.3144 27.1197 37.2944 27.3214 37.0317C27.3797 36.9557 27.4102 36.6052 27.4117 35.9934C27.4138 35.1798 27.4292 35.0645 27.5405 35.0259C27.61 35.0017 27.8784 34.891 28.1367 34.7798L28.6064 34.5776L29.2651 35.2234C30.25 36.1888 30.1229 36.2276 31.9468 34.4038C33.7578 32.5928 33.7125 32.7409 32.7497 31.7741L32.0874 31.109L32.2726 30.6888C32.3744 30.4577 32.4785 30.1986 32.5039 30.1132C32.5475 29.9663 32.6015 29.9564 33.4854 29.9325C34.3959 29.9079 34.426 29.9019 34.621 29.707L34.8213 29.5067L34.8441 27.6113C34.8592 26.35 34.8396 25.6232 34.7853 25.4392C34.6693 25.0458 34.4147 24.9572 33.3964 24.9562L32.5811 24.9554L32.3432 24.3676L32.1053 23.7797L32.7588 23.1135C33.703 22.1506 33.7515 22.3056 31.9357 20.4837C30.1059 18.6478 30.2506 18.6923 29.2727 19.6651C28.7565 20.1785 28.582 20.3122 28.498 20.2585C28.4384 20.2205 28.1701 20.1047 27.9019 20.0014L27.4141 19.8135V18.877C27.4141 17.9569 27.4107 17.9372 27.2228 17.7631L27.0316 17.5859L25.0007 17.5908C23.7292 17.5939 22.9105 17.6243 22.8113 17.6722ZM11.4202 18.2113C11.3932 18.2383 11.3711 18.5151 11.3711 18.8265V19.3926H13.8671H16.3633L16.3422 18.7964L16.3213 18.2002L13.8953 18.1812C12.561 18.1707 11.4473 18.1843 11.4202 18.2113ZM23.7285 19.6357C23.7285 20.6143 23.6557 20.7571 23.0591 20.9479C22.851 21.0146 22.3667 21.2136 21.9829 21.3901C21.4469 21.6369 21.2386 21.6996 21.0843 21.6608C20.9739 21.6331 20.6192 21.3568 20.2963 21.0467L19.7091 20.483L18.8494 21.3449L17.9898 22.2067L18.5828 22.8143C19.271 23.5193 19.3 23.6307 18.9674 24.2907C18.8528 24.518 18.6688 24.9643 18.5585 25.2822C18.2488 26.1746 18.2324 26.1855 17.212 26.1855H16.3574V27.4141V28.6426H17.0264C17.7746 28.6426 18.1331 28.7194 18.2782 28.9108C18.3321 28.9819 18.4468 29.2514 18.5332 29.5098C18.6196 29.7681 18.7995 30.1982 18.933 30.4655C19.3168 31.2339 19.2891 31.3625 18.5828 32.0861L17.9898 32.6936L18.8508 33.5569L19.7118 34.4201L20.2972 33.8487C20.6191 33.5344 20.9727 33.2546 21.0827 33.227C21.2351 33.1888 21.4328 33.2466 21.9095 33.4686C22.2542 33.6292 22.7145 33.8174 22.9326 33.8868C23.1506 33.9563 23.4189 34.103 23.5288 34.213C23.7239 34.4081 23.7285 34.4319 23.7285 35.2493V36.0859H24.951H26.1735L26.1975 35.2261C26.2256 34.2262 26.2711 34.139 26.8625 33.9499C27.0665 33.8846 27.5514 33.6849 27.9401 33.506C28.4711 33.2616 28.6957 33.1926 28.8434 33.2285C28.9516 33.2548 29.3008 33.5345 29.6195 33.8499L30.1989 34.4235L31.0601 33.56L31.9213 32.6966L31.3298 32.0805C30.6344 31.3561 30.615 31.2705 30.981 30.5377C31.1146 30.2704 31.2968 29.8302 31.3859 29.5593C31.4751 29.2886 31.6232 28.9797 31.715 28.873C31.8762 28.6855 31.9116 28.6781 32.7571 28.6531L33.6323 28.6273L33.6126 27.4245L33.5928 26.2217L32.7009 26.1855C31.6596 26.1433 31.6475 26.1355 31.384 25.3352C31.2959 25.0676 31.1146 24.63 30.981 24.3626C30.615 23.6299 30.6344 23.5443 31.3298 22.8199L31.9213 22.2038L31.0618 21.3421L30.2023 20.4803L29.6169 21.0517C29.2949 21.366 28.9493 21.6438 28.8489 21.6689C28.7192 21.7015 28.4876 21.6322 28.0496 21.4299C27.7105 21.2732 27.2211 21.0746 26.9622 20.9883C26.2606 20.7549 26.2262 20.6957 26.1975 19.6743L26.1735 18.8145H24.951H23.7285V19.6357ZM11.3863 21.2895L11.4072 21.8857H13.25H15.0928L15.1137 21.2895L15.1348 20.6934H13.25H11.3652L11.3863 21.2895ZM23.9309 23.2623C23.287 23.4184 22.6067 23.7884 22.0851 24.2661C21.1426 25.1292 20.6825 26.1631 20.6843 27.4141C20.6861 28.671 21.0583 29.5852 21.9214 30.4523C23.2602 31.7977 25.0953 32.1191 26.8255 31.3114C28.261 30.6413 29.2904 29.0288 29.2904 27.4502C29.2904 25.9257 28.3508 24.3729 26.9753 23.6243C26.1836 23.1934 24.8628 23.0364 23.9309 23.2623ZM24.1221 24.4858C22.0947 25.1263 21.2714 27.4162 22.4361 29.1746C23.9156 31.4083 27.4255 30.6863 27.9657 28.0373C28.2826 26.483 27.3475 24.9463 25.806 24.4886C25.3663 24.358 24.5308 24.3566 24.1221 24.4858ZM34.8574 36.7002V37.3144H36.7002H38.543V36.7002V36.0859H36.7002H34.8574V36.7002Z" fill="white"/>
<defs>
<linearGradient id="paint0_linear_0_6537" x1="-0.0469116" y1="22.4861" x2="44.9347" y2="22.4861" gradientUnits="userSpaceOnUse">
<stop stop-color="#26A9E1"/>
<stop offset="1" stop-color="#3F6CFF"/>
</linearGradient>
</defs>
</svg>
