<svg width="45" height="45" viewBox="0 0 45 45" fill="none" xmlns="http://www.w3.org/2000/svg">
<rect width="45" height="45" rx="6" fill="url(#paint0_linear_0_6526)"/>
<path fill-rule="evenodd" clip-rule="evenodd" d="M16.0255 6.30948C11.3179 6.95597 7.4883 10.4447 6.42773 15.0528C5.88588 17.407 6.10651 19.8944 7.05167 22.0867L7.33192 22.7366L6.7204 25.6141C6.06604 28.6932 6.06083 28.7531 6.42766 28.959C6.60666 29.0595 6.81536 29.0252 9.46187 28.4608C11.0249 28.1274 12.3526 27.8569 12.4122 27.8595C12.4718 27.8622 12.8316 27.9965 13.2117 28.158C14.0276 28.5046 15.0559 28.7835 15.935 28.8967C16.9653 29.0294 16.8651 28.9602 16.9169 29.5747C17.0502 31.1509 17.725 33.064 18.6446 34.4722C21.0807 38.2029 25.3639 40.2029 29.6853 39.6275C30.8744 39.4691 32.1884 39.0954 33.0094 38.6819L33.3362 38.5173L36.1891 39.1242C37.7583 39.458 39.1005 39.7312 39.1718 39.7313C39.3735 39.7317 39.6563 39.4042 39.6563 39.1705C39.6563 39.0569 39.3845 37.7199 39.0524 36.1993L38.4485 33.4344L38.7292 32.7832C41.105 27.2725 38.7284 20.8086 33.3331 18.1068C32.1777 17.5282 30.7375 17.0958 29.632 16.9956C29.3367 16.9689 29.0533 16.9053 29.0023 16.8543C28.9513 16.8033 28.8877 16.52 28.861 16.2246C28.6521 13.9191 27.4033 11.3685 25.5992 9.56274C23.0779 7.03901 19.5192 5.82971 16.0255 6.30948ZM16.2134 7.43372C12.3795 7.96494 9.07185 10.6793 7.82939 14.3139C7.056 16.5763 7.12784 19.2283 8.02061 21.3761C8.59794 22.7648 8.60003 22.3086 8.00333 25.1173C7.71391 26.4795 7.49733 27.6142 7.52197 27.6388C7.54662 27.6635 8.69123 27.4457 10.0655 27.1548L12.5642 26.626L12.9399 26.7914C14.8586 27.6364 16.3382 27.9451 18.0489 27.8571C22.7239 27.6165 26.5774 24.3062 27.6042 19.6485C27.8245 18.649 27.8263 16.5811 27.6076 15.5939C27.1474 13.5157 26.2578 11.8833 24.7698 10.3866C23.3093 8.91741 21.6465 8.00758 19.6189 7.56799C18.8401 7.39918 16.9892 7.32619 16.2134 7.43372ZM16.3949 12.1348C15.3105 12.2687 14.2333 13.0655 13.7501 14.0911C13.4898 14.6436 13.3165 15.4658 13.3946 15.7771C13.4934 16.1708 14.0673 16.3121 14.3412 16.0103C14.4266 15.9163 14.5084 15.6954 14.5351 15.4864C14.6258 14.7789 14.7926 14.4297 15.2602 13.9682C15.79 13.4454 16.2554 13.2517 16.9685 13.2574C17.8273 13.2643 18.6575 13.7842 19.0452 14.5579C19.2374 14.9413 19.2901 15.1952 19.2862 15.7197C19.2797 16.5932 18.8443 17.1958 17.7499 17.846C17.161 18.1958 16.6373 18.6441 16.4941 18.9211C16.3389 19.2213 16.2821 19.8664 16.3838 20.1745C16.4818 20.4715 16.6372 20.5812 16.9602 20.5812C17.297 20.5812 17.4708 20.3618 17.4708 19.9367C17.4708 19.7412 17.492 19.5259 17.518 19.4581C17.544 19.3904 17.8448 19.1562 18.1865 18.9375C19.5504 18.0649 20.0224 17.5615 20.2904 16.6938C20.4676 16.12 20.4803 15.2018 20.3186 14.6505C19.8204 12.9526 18.1978 11.9122 16.3949 12.1348ZM28.9596 18.1913C28.9555 18.5261 28.7357 19.9039 28.6045 20.4177C28.4175 21.15 28.0997 22.0203 27.8087 22.5968C27.6873 22.8373 27.588 23.0502 27.588 23.07C27.588 23.0897 28.9566 23.1151 30.6294 23.1262L33.6709 23.1466L33.8452 23.3494C34.0591 23.598 34.0668 23.8259 33.8698 24.0763L33.7201 24.2667H30.2653H26.8104L26.4981 24.6822C25.8024 25.6076 24.6915 26.591 23.4892 27.3459L22.8687 27.7354H28.2668H33.6649L33.8422 27.9129C33.9541 28.0247 34.0196 28.1728 34.0196 28.3136C34.0196 28.4543 33.9541 28.6025 33.8422 28.7143L33.6649 28.8917H28.2384H22.8119L22.6345 28.7143C22.4327 28.5125 22.403 28.2062 22.5632 27.9775C22.6545 27.8472 22.5782 27.8653 22.0154 28.1079C20.9318 28.5751 19.7929 28.8596 18.436 29.002L17.992 29.0487L18.0251 29.3496C18.4555 33.2709 21.1466 36.6765 24.846 37.9818C27.1875 38.8081 29.8085 38.7473 32.0489 37.8147C33.3799 37.2606 32.9339 37.2561 35.7379 37.8521C37.1004 38.1416 38.2349 38.3586 38.2592 38.3344C38.2834 38.3101 38.0664 37.1756 37.7768 35.8132C37.1809 33.0091 37.1854 33.4551 37.7395 32.1241C38.8432 29.4726 38.7166 26.353 37.3985 23.7247C36.4422 21.8175 34.7277 20.1094 32.7949 19.1379C31.7886 18.632 30.5717 18.2673 29.4488 18.1351C29.0295 18.0857 28.9608 18.0936 28.9596 18.1913ZM16.6397 21.5318C16.3428 21.6942 16.2321 22.0166 16.3594 22.3484C16.4143 22.4913 16.7574 22.6769 16.9669 22.6769C17.1854 22.6769 17.543 22.2956 17.543 22.0626C17.543 21.8217 17.1819 21.4475 16.9524 21.4505C16.8599 21.4517 16.7192 21.4883 16.6397 21.5318ZM22.6345 32.5379C22.3958 32.7765 22.4077 33.0448 22.6683 33.3055L22.8796 33.5167H28.2384H33.5971L33.8084 33.3055C34.069 33.0448 34.0809 32.7765 33.8422 32.5379L33.6649 32.3604H28.2384H22.8119L22.6345 32.5379Z" fill="white"/>
<defs>
<linearGradient id="paint0_linear_0_6526" x1="-0.0469116" y1="22.4861" x2="44.9347" y2="22.4861" gradientUnits="userSpaceOnUse">
<stop stop-color="#26A9E1"/>
<stop offset="1" stop-color="#3F6CFF"/>
</linearGradient>
</defs>
</svg>
