<svg width="45" height="45" viewBox="0 0 45 45" fill="none" xmlns="http://www.w3.org/2000/svg">
<rect width="45" height="45" rx="6" fill="url(#paint0_linear_0_6506)"/>
<g clip-path="url(#clip0_0_6506)">
<path fill-rule="evenodd" clip-rule="evenodd" d="M7.25172 6.2807C5.68761 6.61789 4.35525 7.97873 4.07702 9.52355C4.02412 9.81723 4.00013 13.9156 4.001 22.5314C4.00208 33.1679 4.01827 35.1857 4.10578 35.5986C4.35474 36.7737 5.21116 37.8543 6.31227 38.3828C6.65011 38.5449 7.11948 38.7123 7.35535 38.7548C7.95602 38.863 37.0435 38.863 37.6442 38.7548C38.36 38.6259 39.2311 38.1587 39.7769 37.6109C40.3227 37.0632 40.8216 36.1575 40.899 35.5739C40.9252 35.3767 40.9748 35.1981 41.0093 35.1768C41.0444 35.155 41.072 29.5331 41.072 22.4192C41.072 15.2565 41.0446 9.71736 41.0094 9.73919C40.9749 9.76051 40.9259 9.62609 40.9005 9.44051C40.875 9.25494 40.7215 8.829 40.5593 8.49391C40.0097 7.35833 38.956 6.53789 37.7117 6.27665C36.9713 6.12128 7.97373 6.12511 7.25172 6.2807ZM7.5535 7.47381C6.67591 7.64652 5.89566 8.268 5.49516 9.11344L5.26442 9.60058L5.24216 12.1841L5.21998 14.7676H22.4998H39.7796L39.7574 12.1841L39.7351 9.60058L39.5044 9.11344C39.0909 8.24076 38.3274 7.64717 37.3894 7.46933C36.9132 7.37899 8.01311 7.38333 7.5535 7.47381ZM8.12953 9.2097C6.91287 9.44456 6.24037 10.7853 6.77354 11.9131C7.34177 13.115 8.94498 13.3768 9.87468 12.4194C10.1771 12.108 10.4314 11.4972 10.4314 11.082C10.4314 10.6127 10.175 10.0466 9.81014 9.71021C9.30811 9.24749 8.76757 9.08649 8.12953 9.2097ZM13.6834 9.35336C12.3933 9.93662 12.1221 11.6432 13.1761 12.5455C13.9673 13.2227 15.0553 13.1858 15.7842 12.4568C16.9916 11.2494 16.1481 9.2063 14.4422 9.2063C14.1608 9.2063 13.8944 9.2579 13.6834 9.35336ZM19.6853 9.328C19.5024 9.39253 19.2196 9.58584 19.0289 9.77648C17.8221 10.9832 18.6632 13.0274 20.3679 13.0309C21.4341 13.0331 22.2798 12.187 22.2798 11.1182C22.2798 9.7845 20.9639 8.87655 19.6853 9.328ZM4.03511 22.5C4.03511 29.5152 4.04356 32.385 4.05397 28.8774C4.0643 25.3698 4.0643 19.6301 4.05397 16.1226C4.04356 12.6149 4.03511 15.4848 4.03511 22.5ZM8.21495 10.4631C7.42025 10.8144 7.87964 11.984 8.71467 11.7352C9.20152 11.5902 9.35162 11.0287 9.00417 10.6521C8.76063 10.3883 8.51644 10.3297 8.21495 10.4631ZM13.9461 10.6221C13.5226 11.0457 13.841 11.8047 14.4422 11.8047C14.6376 11.8047 14.7611 11.7498 14.9174 11.5935C15.1943 11.3166 15.2033 10.965 14.9416 10.654C14.6874 10.3519 14.231 10.3373 13.9461 10.6221ZM19.8926 10.6429C19.7363 10.7993 19.6814 10.9227 19.6814 11.1182C19.6814 11.7193 20.4404 12.0377 20.864 11.6142C21.1488 11.3293 21.1342 10.8729 20.8321 10.6187C20.5211 10.357 20.1695 10.366 19.8926 10.6429ZM5.22829 25.52C5.22829 36.0332 5.20567 35.502 5.68566 36.252C6.00102 36.7446 6.37832 37.0679 6.95926 37.3431L7.43239 37.5674H22.4998H37.5672L38.0403 37.3431C38.6212 37.0679 38.9985 36.7446 39.3139 36.252C39.7939 35.502 39.7713 36.0332 39.7713 25.52V15.9961H22.4998H5.22829V25.52ZM23.1869 19.6997C23.0108 19.8519 22.9178 20.2467 21.7321 25.8752C20.5829 31.3302 20.4744 31.9069 20.5619 32.0894C20.7641 32.5115 21.2967 32.5588 21.5697 32.179C21.6527 32.0636 22.1253 29.9592 22.9418 26.0686C24.0569 20.7559 24.1779 20.1116 24.0974 19.9174C23.9388 19.5342 23.4998 19.4293 23.1869 19.6997ZM18.1917 22.1543C17.5585 22.6407 14.1783 25.565 14.1171 25.6794C13.9922 25.9127 14.0374 26.1626 14.2434 26.3788C14.5503 26.7007 18.1557 29.7505 18.3557 29.8574C18.5739 29.974 18.9934 29.8595 19.1039 29.6533C19.2253 29.4264 19.1851 29.0948 19.013 28.9035C18.9235 28.8042 18.1349 28.1158 17.2605 27.374C16.3861 26.6321 15.6613 26.0008 15.65 25.9711C15.6386 25.9413 16.3658 25.2892 17.266 24.5219C18.1662 23.7547 18.9641 23.0611 19.0391 22.9805C19.2354 22.7698 19.2162 22.3895 18.9981 22.1715C18.7752 21.9485 18.468 21.942 18.1917 22.1543ZM26.0014 22.1715C25.7834 22.3895 25.7642 22.7698 25.9604 22.9805C26.0354 23.0611 26.8333 23.7547 27.7335 24.5219C28.6337 25.2892 29.361 25.9413 29.3495 25.9711C29.3382 26.0008 28.6134 26.6321 27.739 27.374C26.8646 28.1158 26.0761 28.8042 25.9866 28.9035C25.8144 29.0948 25.7743 29.4264 25.8957 29.6533C26.0061 29.8595 26.4256 29.974 26.6438 29.8574C26.8439 29.7505 30.4493 26.7007 30.7561 26.3788C30.9621 26.1626 31.0073 25.9127 30.8824 25.6794C30.8212 25.565 27.4411 22.6407 26.8079 22.1543C26.5315 21.942 26.2243 21.9485 26.0014 22.1715Z" fill="white"/>
</g>
<defs>
<linearGradient id="paint0_linear_0_6506" x1="-0.0469116" y1="22.4861" x2="44.9347" y2="22.4861" gradientUnits="userSpaceOnUse">
<stop stop-color="#26A9E1"/>
<stop offset="1" stop-color="#3F6CFF"/>
</linearGradient>
<clipPath id="clip0_0_6506">
<rect width="37" height="37" fill="white" transform="translate(4 4)"/>
</clipPath>
</defs>
</svg>
