<svg width="45" height="45" viewBox="0 0 45 45" fill="none" xmlns="http://www.w3.org/2000/svg">
<rect width="45" height="45" rx="6" fill="url(#paint0_linear_0_6465)"/>
<path fill-rule="evenodd" clip-rule="evenodd" d="M14.7758 5.59318C13.025 5.99057 11.6346 7.17085 11.1003 8.71348C10.9747 9.07629 10.9487 9.78918 10.905 14.0848L10.8544 19.0378L10.5525 19.5692C10.3032 20.0079 10.0401 20.2799 9.04344 21.1289C8.33249 21.7346 7.81244 22.2399 7.77817 22.3585C7.68737 22.6727 7.89014 22.9146 9.13458 23.9776C10.0486 24.7583 10.3433 25.0629 10.5697 25.4611L10.8544 25.9621L10.905 30.9151C10.9487 35.2108 10.9747 35.9237 11.1003 36.2865C11.656 37.8907 13.1645 39.1186 14.9853 39.4484C15.7311 39.5835 17.9956 39.6026 18.315 39.4764C18.6306 39.3518 18.7717 39.0153 18.6313 38.7217C18.5705 38.5944 18.4497 38.4573 18.3628 38.417C18.2759 38.3767 17.6188 38.3434 16.9027 38.3428C16.0815 38.3423 15.4334 38.3034 15.1479 38.2375C13.6995 37.9032 12.5981 36.8436 12.3875 35.5819C12.3438 35.3204 12.3073 33.1115 12.3064 30.6732C12.3052 27.7747 12.2714 26.1002 12.2087 25.8362C12.012 25.0081 11.5505 24.3602 10.4699 23.395L9.46786 22.5L10.4829 21.5941C11.5742 20.6201 12.0054 20.0127 12.2082 19.1637C12.2717 18.8977 12.3048 17.2354 12.3051 14.2887C12.3054 11.8171 12.3431 9.61909 12.3894 9.37397C12.6244 8.13085 13.7222 7.09148 15.1479 6.76249C15.4334 6.69661 16.0815 6.65768 16.9027 6.65715C17.6188 6.65662 18.2759 6.62325 18.3628 6.58296C18.4497 6.54266 18.5705 6.40555 18.6313 6.27827C18.7608 6.0074 18.6305 5.63492 18.3628 5.51076C18.2759 5.47047 17.5793 5.43939 16.8148 5.44167C15.7349 5.44495 15.28 5.47877 14.7758 5.59318ZM26.5664 5.58724C26.311 5.79336 26.2446 6.01906 26.3651 6.27111C26.5222 6.59994 26.7821 6.65616 28.151 6.65715C29.5235 6.65814 30.0389 6.74162 30.7538 7.07884C31.335 7.35298 32.0334 7.99648 32.2999 8.50317C32.6624 9.19268 32.6938 9.66022 32.6956 14.3877C32.6975 19.3116 32.6923 19.2547 33.2319 20.2046C33.4366 20.5651 33.7813 20.9375 34.5216 21.5983L35.532 22.5L34.5216 23.4017C33.7813 24.0625 33.4366 24.4349 33.2319 24.7953C32.6923 25.7453 32.6975 25.6884 32.6956 30.6123C32.6945 33.3629 32.6583 35.2985 32.6021 35.6015C32.3643 36.8836 31.3004 37.9032 29.852 38.2375C29.5649 38.3037 28.9151 38.3423 28.0756 38.3428C26.8817 38.3437 26.7336 38.3584 26.5664 38.4935C26.4643 38.5759 26.3544 38.7155 26.322 38.8038C26.2397 39.0288 26.4259 39.3742 26.6848 39.4764C27.0051 39.6029 29.2693 39.5835 30.0146 39.4479C31.7908 39.1246 33.2199 38.0079 33.8151 36.4775L34.0522 35.8681L34.0989 30.917L34.1454 25.9658L34.389 25.5152C34.5768 25.1675 34.9219 24.81 35.8985 23.9514C36.6153 23.3212 37.1896 22.752 37.2222 22.6392C37.3128 22.3266 37.1053 22.0804 35.8757 21.0403C34.9481 20.2557 34.6803 19.9789 34.4403 19.5568L34.1454 19.0378L34.0989 14.0848L34.0522 9.13182L33.8151 8.52245C33.3651 7.3657 32.4514 6.44295 31.2451 5.92712C30.3729 5.55418 29.6343 5.44038 28.0756 5.43878C26.8797 5.43764 26.7339 5.45196 26.5664 5.58724Z" fill="white"/>
<defs>
<linearGradient id="paint0_linear_0_6465" x1="-0.0469116" y1="22.4861" x2="44.9347" y2="22.4861" gradientUnits="userSpaceOnUse">
<stop stop-color="#26A9E1"/>
<stop offset="1" stop-color="#3F6CFF"/>
</linearGradient>
</defs>
</svg>
