<svg width="45" height="45" viewBox="0 0 45 45" fill="none" xmlns="http://www.w3.org/2000/svg">
<rect width="45" height="45" rx="6" fill="url(#paint0_linear_0_6455)"/>
<path fill-rule="evenodd" clip-rule="evenodd" d="M23.8348 6.15278C23.6938 6.29555 23.6839 6.40738 23.6839 7.86595V9.42642L23.8827 9.5847C24.0455 9.71441 24.1887 9.74306 24.6747 9.74306H25.268V10.4921V11.2412L24.5821 11.3743C22.6326 11.7528 20.4288 12.8195 18.9218 14.1142L18.4234 14.5423L17.9975 14.1065L17.5717 13.6707L17.8439 13.4065C17.9937 13.2612 18.1484 13.0587 18.1878 12.9564C18.3471 12.5424 17.9018 12.0916 17.4931 12.2532C17.3921 12.2931 16.8767 12.7703 16.3477 13.3135C15.4837 14.201 15.3859 14.3285 15.3859 14.5694C15.3859 15.1601 15.9515 15.2751 16.4638 14.7886L16.7815 14.487L17.2092 14.9139L17.6369 15.3408L17.2658 15.7924C16.8674 16.2772 16.8052 16.5313 17.0121 16.8302C17.1575 17.0405 17.5668 17.0597 17.7787 16.8663C17.8593 16.7928 18.1356 16.4863 18.3927 16.1852C19.6034 14.7678 21.5575 13.4641 23.4136 12.8357C25.8257 12.019 28.6775 12.036 30.9851 12.881C31.877 13.2075 32.151 13.2385 32.3518 13.0351C32.5214 12.8634 32.5564 12.571 32.4349 12.341C32.3062 12.0977 30.8779 11.5986 29.6056 11.3523L28.9267 11.221L28.9051 10.482L28.8836 9.74306H29.5275C30.502 9.74306 30.4731 9.80012 30.4731 7.87153C30.4731 6.40738 30.4633 6.29563 30.3223 6.15278C30.1763 6.00497 30.0708 6 27.0785 6C24.0862 6 23.9807 6.00497 23.8348 6.15278ZM24.7914 7.11925C24.7631 7.1479 24.74 7.4921 24.74 7.88428V8.59722H27.0812H29.4225L29.4009 7.85243L29.3793 7.10764L27.111 7.08747C25.8635 7.07632 24.8197 7.09068 24.7914 7.11925ZM26.3996 10.4306V11.1181H27.0785H27.7574V10.4306V9.74306H27.0785H26.3996V10.4306ZM36.1769 11.4427C36.073 11.5372 33.3894 15.0308 30.2132 19.2063C24.0968 27.2468 24.2413 27.0367 24.5891 27.3889C24.7348 27.5364 24.8406 27.5417 27.6443 27.5417C29.2416 27.5417 30.5487 27.5674 30.5488 27.599C30.5489 27.6305 29.9888 30.0664 29.3041 33.012C28.6194 35.9577 28.0592 38.4353 28.0592 38.5178C28.0592 38.7255 28.3685 39 28.6026 39C28.7094 39 28.8655 38.9398 28.9496 38.8663C29.0335 38.7928 31.7768 35.2097 35.0456 30.9039C41.3906 22.5462 41.2144 22.8027 40.8581 22.4416C40.7389 22.3209 40.4545 22.3071 37.6738 22.2874L34.6205 22.2659L34.6731 22.0582C34.7022 21.9441 35.2579 19.5993 35.9083 16.8475C37.1772 11.4784 37.1736 11.5018 36.7579 11.3418C36.4836 11.2362 36.3848 11.2533 36.1769 11.4427ZM30.7185 20.381L26.1091 26.434L28.8299 26.4722L31.5508 26.5104L31.7016 26.7151L31.8525 26.9197L30.8182 31.3592C30.2494 33.801 29.7947 35.8277 29.8079 35.8632C29.8211 35.8987 31.9636 33.1213 34.5689 29.6913L39.306 23.4549L36.4926 23.4143C34.9452 23.3921 33.6731 23.3662 33.6657 23.357C33.6583 23.3478 33.5989 23.2863 33.5337 23.2203C33.4685 23.1542 33.4154 22.9909 33.4157 22.8574C33.4159 22.7238 33.8548 20.7587 34.3909 18.4904C34.927 16.2222 35.3571 14.3577 35.3468 14.3472C35.3364 14.3366 33.2536 17.0519 30.7185 20.381ZM26.3377 15.4847C24.4683 15.641 22.6495 16.4773 21.2625 17.818C20.1886 18.8563 19.4389 20.0201 19.0199 21.2997C17.6892 25.3635 19.254 29.5529 22.9216 31.7457C23.5743 32.1358 23.9239 32.1807 24.1462 31.9026C24.4544 31.5172 24.3077 31.2409 23.5802 30.8365C21.7204 29.803 20.408 28.0848 19.8672 25.9757C19.7021 25.3317 19.6712 25.044 19.6702 24.1424C19.6691 23.2323 19.6983 22.9593 19.8659 22.3108C20.436 20.1057 21.8579 18.3415 23.8725 17.3399C25.1056 16.7269 25.7027 16.5948 27.278 16.5866C28.4384 16.5805 28.5876 16.5649 28.7301 16.4343C28.9296 16.2516 28.936 15.9018 28.7435 15.7069C28.5219 15.4825 27.4965 15.3877 26.3377 15.4847ZM4.14593 18.4514C3.9424 18.6575 3.95312 18.996 4.16962 19.202L4.34425 19.3681H10.6894H17.0346L17.1909 19.1668C17.2769 19.0561 17.3473 18.9061 17.3473 18.8333C17.3473 18.7606 17.2769 18.6106 17.1909 18.4999L17.0346 18.2986H10.6656C4.39736 18.2986 4.29439 18.3011 4.14593 18.4514ZM7.65032 22.5348C7.33024 22.8588 7.47945 23.3418 7.93471 23.4557C8.02908 23.4794 9.74729 23.4889 11.7528 23.4768L15.3993 23.4549L15.5435 23.2745C15.7396 23.0293 15.7246 22.7596 15.5025 22.5348L15.3173 22.3472H11.5764H7.83544L7.65032 22.5348ZM10.811 26.4487C10.3947 26.5312 10.2312 27.1363 10.5538 27.4008C10.711 27.5297 10.8938 27.5417 12.7067 27.5417H14.6879L14.9304 28.2865C16.3446 32.632 20.1134 36.0202 24.5421 36.9276C25.284 37.0795 25.5845 37.0424 25.7222 36.7817C25.9681 36.3165 25.6752 36.0192 24.7994 35.8451C21.3249 35.1538 18.2272 32.743 16.5982 29.4621C16.3099 28.8813 15.86 27.6396 15.686 26.9438C15.5537 26.4151 15.4497 26.394 13.0309 26.4062C11.899 26.412 10.9 26.431 10.811 26.4487Z" fill="white"/>
<defs>
<linearGradient id="paint0_linear_0_6455" x1="-0.0469116" y1="22.4861" x2="44.9347" y2="22.4861" gradientUnits="userSpaceOnUse">
<stop stop-color="#26A9E1"/>
<stop offset="1" stop-color="#3F6CFF"/>
</linearGradient>
</defs>
</svg>
