<svg width="45" height="45" viewBox="0 0 45 45" fill="none" xmlns="http://www.w3.org/2000/svg">
<rect width="45" height="45" rx="6" fill="url(#paint0_linear_0_6516)"/>
<g clip-path="url(#clip0_0_6516)">
<path fill-rule="evenodd" clip-rule="evenodd" d="M29.7948 4.52032C29.5018 4.64274 29.4372 4.81176 29.3999 5.55372L29.3637 6.27131L28.8579 6.46918C28.5797 6.57801 28.2545 6.71972 28.1352 6.78404L27.9184 6.90104L27.4414 6.43059C27.0449 6.03949 26.9128 5.9532 26.6589 5.91916L26.3534 5.87819L25.0222 7.20947C23.9526 8.279 23.6909 8.57912 23.6909 8.73586V8.93105L14.9648 8.95049L6.23873 8.97L5.76901 9.19475C5.08082 9.52406 4.66529 9.92745 4.34335 10.5789L4.07076 11.1305V21.7971V32.4638L4.34335 33.0154C4.66529 33.6669 5.08082 34.0702 5.76901 34.3996L6.23873 34.6243L12.3271 34.6443L18.4155 34.6644V35.8847V37.105L17.2412 37.1296C16.1322 37.1528 16.0423 37.1655 15.6253 37.358C15.0717 37.6134 14.5805 38.1075 14.3197 38.6712C14.1442 39.0504 14.1157 39.2115 14.0916 39.9565C14.0731 40.5308 14.0936 40.8791 14.1543 41.0258C14.3398 41.4736 13.9931 41.4534 21.4904 41.4534H28.3303L28.5846 41.1992L28.8387 40.945L28.809 40.0249C28.7831 39.2226 28.755 39.0523 28.5902 38.6947C28.3268 38.1234 27.8821 37.6679 27.3149 37.3885C26.8453 37.1571 26.8209 37.1532 25.662 37.1293L24.4858 37.105V35.8827V34.6604L30.3935 34.6596C35.2694 34.6588 36.3687 34.6408 36.6873 34.5559C37.5527 34.3256 38.3201 33.6384 38.6688 32.7815L38.8305 32.3841L38.8509 26.1376L38.8713 19.8912L39.2391 19.5022C39.5848 19.1368 39.6046 19.0955 39.5674 18.8184C39.5351 18.5773 39.4423 18.4368 39.0574 18.0466L38.587 17.5696L38.704 17.3528C38.7683 17.2336 38.91 16.9084 39.0189 16.6302L39.2167 16.1243L39.9378 16.0882C40.6834 16.0508 40.9363 15.9472 40.98 15.6614C40.9897 15.5981 41.0143 19.2859 41.0346 23.8567L41.0717 32.1673L41.0771 21.7249C41.0802 15.9816 41.061 11.4776 41.0346 11.7161C41.0083 11.9546 40.9812 12.0978 40.9745 12.0344C40.9447 11.7522 40.6848 11.6451 39.9378 11.6077L39.2167 11.5716L39.0189 11.0657C38.91 10.7875 38.7683 10.4623 38.704 10.343L38.587 10.1263L39.0574 9.64923C39.4485 9.2527 39.5348 9.12067 39.5689 8.86673L39.6098 8.56127L38.2683 7.21973L36.9268 5.87819L36.6213 5.91916C36.3674 5.9532 36.2353 6.03949 35.8388 6.43059L35.3618 6.90104L35.145 6.78404C35.0257 6.71972 34.7005 6.57801 34.4223 6.46918L33.9165 6.27131L33.8803 5.54468C33.8253 4.43866 33.9348 4.49315 31.7286 4.47421C30.7459 4.46583 29.8757 4.48657 29.7948 4.52032ZM30.8447 6.31424C30.8443 6.82617 30.7426 7.21142 30.5656 7.37163C30.4917 7.43848 30.2074 7.55598 29.9336 7.63287C29.6599 7.70976 29.1096 7.93631 28.7107 8.13642C27.7413 8.62269 27.6281 8.61814 27.0621 8.06943L26.6176 7.63865L26.0237 8.22827L25.4297 8.81781L25.8611 9.26708C26.4068 9.83531 26.4173 9.98194 25.9732 10.8227C25.7976 11.1551 25.5696 11.7062 25.4666 12.0474C25.2113 12.8929 25.1032 12.9853 24.3104 13.0347L23.6909 13.0734V13.8479V14.6225L24.3104 14.6611C25.1032 14.7106 25.2113 14.8029 25.4666 15.6484C25.5696 15.9897 25.7976 16.5408 25.9732 16.8732C26.4178 17.7149 26.4072 17.8631 25.8616 18.426L25.4308 18.8704L26.0204 19.4643L26.61 20.0583L27.0593 19.6269C27.6275 19.0813 27.7741 19.0707 28.6148 19.5149C28.9473 19.6905 29.4984 19.9184 29.8396 20.0214C30.6851 20.2768 30.7775 20.3849 30.8269 21.1776L30.8656 21.7971H31.6401H32.4146L32.4533 21.1776C32.5027 20.3849 32.5951 20.2768 33.4406 20.0214C33.7818 19.9184 34.3329 19.6905 34.6654 19.5149C35.5061 19.0707 35.6527 19.0813 36.2209 19.6269L36.6702 20.0583L37.2598 19.4643L37.8494 18.8704L37.4186 18.426C36.8699 17.8599 36.8653 17.7467 37.3516 16.7773C37.5517 16.3784 37.7783 15.8281 37.8552 15.5544C37.932 15.2807 38.0496 14.9963 38.1164 14.9224C38.2766 14.7455 38.6619 14.6437 39.1738 14.6433L39.5893 14.6429V13.8572V13.0716L39.0081 13.0379C38.3034 12.9971 38.0794 12.8624 37.9409 12.3962C37.7502 11.7537 37.4666 11.0554 37.2301 10.6463C36.864 10.0129 36.8913 9.81392 37.4186 9.2699L37.8494 8.82547L37.2598 8.23152L36.6702 7.63757L36.2209 8.06892C35.6717 8.59639 35.4742 8.62341 34.8418 8.2579C34.4327 8.02144 33.7344 7.7378 33.0918 7.54709C32.6256 7.40863 32.4909 7.18468 32.4501 6.47994L32.4165 5.89871H31.6308H30.8452L30.8447 6.31424ZM30.5717 9.51337C28.9494 9.93843 27.719 11.1782 27.3021 12.808C26.7037 15.1478 28.1886 17.5691 30.6001 18.1859C32.9419 18.7848 35.3608 17.3014 35.9781 14.8879C36.3563 13.4088 35.906 11.8298 34.7841 10.7008C33.6741 9.58375 32.0501 9.12595 30.5717 9.51337ZM6.43464 10.4608C6.11256 10.5536 5.65092 11.0311 5.55734 11.3681C5.50596 11.5531 5.48059 13.8713 5.48038 18.4163L5.47994 25.1889L8.41299 25.2093L11.3461 25.2298L11.5204 25.4325C11.7074 25.6499 11.7527 26.0344 11.6204 26.2816C11.4365 26.6251 11.3085 26.6389 8.30192 26.6389H5.47994V27.6501V28.6612L19.0642 28.6799L32.6486 28.6985L32.8473 28.8972C33.1429 29.193 33.1279 29.6157 32.8116 29.8983L32.5772 30.1077H19.022H5.46672L5.49136 31.1736C5.51391 32.1461 5.53111 32.2637 5.68756 32.5154C5.78187 32.6671 5.99086 32.8785 6.15201 32.9851L6.44498 33.179L21.3008 33.1988C37.8765 33.2208 36.5149 33.2632 37.0145 32.7101C37.1535 32.5563 37.3017 32.3062 37.3439 32.1543C37.4259 31.8588 37.4587 21.4358 37.3776 21.4358C37.3535 21.4358 37.2332 21.5205 37.1101 21.6241C36.9256 21.7793 36.8362 21.8055 36.5998 21.7738C36.3678 21.7427 36.2245 21.6468 35.8489 21.2712L35.3848 20.807L34.7951 21.054C34.4708 21.1898 34.1324 21.3305 34.0429 21.3668C33.8904 21.4287 33.8803 21.4751 33.8803 22.1168C33.8803 22.7357 33.8637 22.8201 33.706 23.0036L33.5315 23.2063H31.6401H29.7487L29.5742 23.0036C29.4165 22.8201 29.3999 22.7357 29.3999 22.1168C29.3999 21.4754 29.3897 21.4285 29.2373 21.3659C29.1478 21.3291 28.8101 21.1875 28.4868 21.0513L27.8988 20.8036L27.433 21.2695C27.0439 21.6586 26.9166 21.7422 26.6603 21.7766L26.3534 21.8177L25.0119 20.4761L23.6704 19.1346L23.7115 18.8278C23.7459 18.5716 23.8293 18.4442 24.2168 18.0568L24.681 17.5926L24.4341 17.003C24.2983 16.6786 24.1575 16.3402 24.1212 16.2508C24.0594 16.0982 24.0129 16.0882 23.3713 16.0882C22.7524 16.0882 22.6679 16.0715 22.4845 15.9138L22.2817 15.7393V13.8562C22.2817 11.5363 22.2219 11.663 23.3443 11.6077L24.0784 11.5716L24.3109 10.9754L24.5435 10.3792L15.6079 10.3857C10.2112 10.3897 6.57824 10.4194 6.43464 10.4608ZM30.8452 10.9286C28.6204 11.5239 27.8705 14.3505 29.5041 15.984C31.243 17.723 34.2054 16.7623 34.6231 14.3239C34.9898 12.1829 32.9636 10.3618 30.8452 10.9286ZM4.06982 21.7971C4.06982 27.5405 4.07835 29.89 4.08883 27.0183C4.09931 24.1467 4.09931 19.4476 4.08883 16.576C4.07835 13.7043 4.06982 16.0538 4.06982 21.7971ZM14.2801 13.0934C13.9989 13.246 13.935 13.4104 13.935 13.9818V14.4864L13.5623 14.7015L13.1897 14.9167L12.7434 14.6714C12.2012 14.3734 11.982 14.3636 11.6969 14.6248C11.4728 14.8299 10.1772 17.0513 10.1772 17.2303C10.1772 17.5092 10.4192 17.8096 10.8301 18.0407L11.2612 18.2832V18.7027V19.1221L10.8557 19.3509C10.3858 19.6161 10.1538 19.9313 10.2094 20.2288C10.2579 20.4883 11.5089 22.6601 11.7059 22.8269C11.9329 23.019 12.3163 22.9835 12.7684 22.7284L13.1671 22.5033L13.5508 22.7103L13.9345 22.9173L13.9348 23.4468C13.935 23.9355 13.9513 23.9925 14.1463 24.1875L14.3575 24.3987H15.8708H17.384L17.5657 24.217C17.7665 24.0164 17.8374 23.7611 17.8374 23.2396C17.8374 22.9022 17.846 22.8886 18.1806 22.6989L18.5239 22.5042L18.9343 22.7288C19.4302 23.0002 19.7786 23.0198 20.0342 22.7908C20.2944 22.5576 21.4578 20.5081 21.5007 20.2073C21.5468 19.8837 21.3643 19.6421 20.8523 19.3492L20.4746 19.1331L20.4857 18.7127L20.4967 18.2923L20.8834 18.0603C21.3044 17.8077 21.522 17.5287 21.5226 17.2407C21.5231 16.9809 20.159 14.6562 19.9324 14.5308C19.6514 14.3753 19.4256 14.4082 18.962 14.6723L18.5328 14.9167L18.1936 14.7273L17.8543 14.5379L17.8208 14.0165C17.784 13.4419 17.6494 13.1601 17.3592 13.0498C17.2593 13.0118 16.57 12.982 15.8273 12.9836C14.7769 12.9859 14.4333 13.0102 14.2801 13.0934ZM15.3665 14.857C15.3284 15.3848 15.2148 15.5249 14.5991 15.804C14.3481 15.9178 14.0179 16.1098 13.8654 16.2306C13.4632 16.5491 13.2359 16.5728 12.7827 16.343C12.5739 16.2372 12.394 16.161 12.383 16.1737C12.372 16.1862 12.2616 16.3777 12.1378 16.599L11.9125 17.0015L12.1868 17.1557C12.7143 17.4522 12.7259 17.4838 12.7273 18.6339C12.728 19.2012 12.7057 19.7367 12.6778 19.8239C12.6498 19.9112 12.4654 20.082 12.2679 20.2035L11.9088 20.4245L12.1251 20.803C12.244 21.0113 12.3752 21.1929 12.4167 21.2067C12.4582 21.2205 12.6073 21.164 12.748 21.0809C13.1274 20.857 13.4952 20.8827 13.8347 21.1566C13.9893 21.2812 14.3498 21.491 14.6359 21.6228C15.2295 21.8962 15.3803 22.0991 15.3803 22.6246V22.9534H15.8862H16.3921V22.5333C16.3921 22.1675 16.4177 22.0897 16.5908 21.9306C16.7 21.8301 16.9033 21.7041 17.0424 21.6505C17.3122 21.5466 17.6869 21.319 17.9819 21.0797C18.2325 20.8765 18.6431 20.8878 19.0195 21.1085L19.324 21.2869L19.5637 20.8509C19.6955 20.6111 19.7919 20.4063 19.7779 20.3959C19.7639 20.3854 19.6288 20.3026 19.4777 20.2117C19.035 19.9453 19.0087 19.8596 19.0102 18.6897C19.011 18.1134 19.0407 17.586 19.0762 17.5177C19.1118 17.4494 19.2866 17.3081 19.4646 17.2037C19.6428 17.0993 19.7885 17.0002 19.7885 16.9835C19.7885 16.9348 19.3437 16.1604 19.3157 16.1604C19.3018 16.1604 19.1374 16.2417 18.9505 16.3411C18.7637 16.4405 18.5381 16.5218 18.4492 16.5218C18.3604 16.5218 18.08 16.3795 17.8261 16.2057C17.5722 16.0318 17.1931 15.8159 16.9836 15.7258C16.4938 15.515 16.3921 15.3633 16.3921 14.8435V14.4261H15.8949H15.3977L15.3665 14.857ZM15.5971 18.0471C14.9068 18.318 15.1007 19.4124 15.8389 19.4124C16.1364 19.4124 16.4977 19.1435 16.5661 18.8712C16.6315 18.6104 16.4394 18.2121 16.1845 18.0802C15.9362 17.9518 15.8521 17.9471 15.5971 18.0471ZM13.5094 25.2945C12.8566 25.6563 13.1491 26.6389 13.9095 26.6389C14.1833 26.6389 14.5854 26.209 14.5854 25.9163C14.5854 25.7496 14.5168 25.6164 14.3397 25.4393C14.0724 25.172 13.8122 25.1266 13.5094 25.2945ZM34.9282 28.7426C34.4805 29.0001 34.3923 29.5468 34.742 29.8965C35.0298 30.1843 35.3814 30.1849 35.7022 29.8983C36.1581 29.4909 35.9339 28.7817 35.3217 28.6948C35.1848 28.6754 35.0077 28.6969 34.9282 28.7426ZM21.0973 30.9312C20.4445 31.293 20.737 32.2757 21.4974 32.2757C21.7712 32.2757 22.1733 31.8458 22.1733 31.553C22.1733 31.3864 22.1047 31.2531 21.9276 31.0761C21.6603 30.8087 21.4001 30.7634 21.0973 30.9312ZM19.8608 35.8889V37.1175H21.4506H23.0405V35.8889V34.6604H21.4506H19.8608V35.8889ZM16.2114 38.6648C15.7911 38.8515 15.5249 39.2763 15.5249 39.7599V40.0081H21.4598H27.3948L27.3604 39.6498C27.3196 39.2244 27.0684 38.8557 26.7011 38.6814C26.4768 38.5749 25.9395 38.5631 21.4397 38.5656C17.4248 38.5678 16.385 38.5876 16.2114 38.6648Z" fill="white"/>
</g>
<defs>
<linearGradient id="paint0_linear_0_6516" x1="-0.0469116" y1="22.4861" x2="44.9347" y2="22.4861" gradientUnits="userSpaceOnUse">
<stop stop-color="#26A9E1"/>
<stop offset="1" stop-color="#3F6CFF"/>
</linearGradient>
<clipPath id="clip0_0_6516">
<rect width="37" height="37" fill="white" transform="translate(4.03467 4.45337)"/>
</clipPath>
</defs>
</svg>
