<svg width="45" height="45" viewBox="0 0 45 45" fill="none" xmlns="http://www.w3.org/2000/svg">
<rect width="45" height="45" rx="6" fill="url(#paint0_linear_0_6496)"/>
<g clip-path="url(#clip0_0_6496)">
<path fill-rule="evenodd" clip-rule="evenodd" d="M5.80321 4.09802C5.15578 4.27348 4.49469 4.85088 4.19241 5.50489L4.03624 5.8428V15.0928V24.3428L4.2276 24.751C4.47128 25.2707 4.91499 25.7144 5.43472 25.9581C5.81867 26.1381 5.91688 26.1508 7.08946 26.1721L8.33604 26.1949V28.8975C8.33604 31.9959 8.34941 32.0781 8.96447 32.7623C9.56499 33.4302 10.1931 33.6289 11.7036 33.6289H12.5876L12.6149 36.3208C12.6411 38.905 12.6487 39.0291 12.804 39.4208C13.0318 39.9952 13.4507 40.4416 14.0293 40.7264L14.5117 40.9639H26.8345H39.1573L39.5638 40.7643C40.0437 40.5286 40.5863 39.9754 40.8057 39.4981L40.9624 39.1573L41.0164 28.5703C41.0461 22.7475 41.0625 15.2843 41.0529 11.9854L41.0354 5.98733L41.0154 13.4307C40.9958 20.698 40.9923 20.8652 40.8656 20.4983C40.6091 19.7562 40.1646 19.2918 39.416 18.9838C39.0531 18.8345 38.8956 18.8177 37.8385 18.8162L36.6642 18.8145V16.1073C36.6642 13.5462 36.6561 13.3784 36.5145 13.0001C36.3033 12.4355 35.774 11.8791 35.2038 11.6225C34.7792 11.4312 34.672 11.4156 33.5808 11.3852L32.4125 11.3527L32.3853 8.66998C32.3591 6.09523 32.3515 5.97093 32.1962 5.57925C31.9684 5.00488 31.5495 4.5585 30.971 4.2737L30.4886 4.03616L18.3102 4.02258C8.84863 4.01195 6.05859 4.02879 5.80321 4.09802ZM5.98741 5.33094C5.71808 5.45119 5.40705 5.77747 5.30551 6.04623C5.26129 6.16316 5.22862 6.81629 5.22862 7.58187V8.91409H18.1642H31.0997V7.47962V6.04515L30.8903 5.75601C30.4764 5.18475 31.5315 5.22818 18.1447 5.23136C8.32947 5.23367 6.16562 5.25145 5.98741 5.33094ZM4.03516 15.1289C4.03516 20.1171 4.04376 22.1576 4.05431 19.6636C4.06486 17.1695 4.06486 13.0883 4.05431 10.5943C4.04376 8.10016 4.03516 10.1408 4.03516 15.1289ZM6.66837 6.66829C6.40641 6.93025 6.39904 7.17184 6.64423 7.46321C6.78667 7.63253 6.89088 7.68558 7.08108 7.68558C7.65176 7.68558 7.89934 7.01105 7.46329 6.64416C7.17192 6.39896 6.93033 6.40633 6.66837 6.66829ZM9.2755 6.55057C8.88302 6.74908 8.83569 7.26745 9.18495 7.5422C9.69131 7.94046 10.3359 7.40605 10.0978 6.78551C10.0501 6.66128 9.70729 6.45634 9.55011 6.45814C9.49844 6.45872 9.37486 6.50035 9.2755 6.55057ZM11.7476 6.53265C11.5499 6.612 11.3803 6.97788 11.4273 7.22358C11.4718 7.45671 11.7726 7.68558 12.0346 7.68558C12.3135 7.68558 12.5997 7.39745 12.5997 7.11663C12.5997 6.80379 12.5347 6.6813 12.3055 6.56278C12.0741 6.44311 11.9831 6.4382 11.7476 6.53265ZM23.9399 6.66829C23.7144 6.89376 23.6772 7.09256 23.8127 7.34708C23.9909 7.6816 23.9845 7.68088 26.8212 7.68326L29.5165 7.68558L29.6938 7.50816C29.8684 7.33364 29.9228 7.03692 29.8263 6.78551C29.7088 6.47924 29.5016 6.45706 26.7618 6.45706H24.1511L23.9399 6.66829ZM5.22862 17.0688V23.9948L5.39505 24.3096C5.5088 24.5246 5.66106 24.6769 5.87612 24.7906C6.16374 24.9427 6.28305 24.9571 7.26341 24.9571H8.33604V19.1786C8.33604 13.5113 8.33894 13.3922 8.48571 13.0001C8.69506 12.4405 9.22549 11.8808 9.79646 11.6172L10.2511 11.4073L20.6754 11.3875L31.0997 11.3678V10.7552V10.1426H18.1642H5.22862V17.0688ZM10.5129 12.672C10.2262 12.7398 9.95732 12.9277 9.7497 13.2054C9.61254 13.3889 9.59896 13.522 9.57851 14.8811L9.55632 16.3575H22.5001H35.4439L35.4217 14.8811C35.4013 13.522 35.3877 13.3889 35.2505 13.2054C35.0352 12.9172 34.7779 12.7438 34.4545 12.6688C34.104 12.5876 10.8575 12.5907 10.5129 12.672ZM10.9705 14.0778C10.7535 14.2948 10.7397 14.608 10.9359 14.8575C11.1114 15.0805 11.3615 15.1359 11.6485 15.0153C11.9289 14.8973 12.0469 14.6721 11.9892 14.3646C11.9021 13.9002 11.3138 13.7346 10.9705 14.0778ZM13.4275 14.0778C13.0511 14.4542 13.3224 15.0711 13.8644 15.0711C14.0822 15.0711 14.187 15.0264 14.3136 14.8792C14.6611 14.4752 14.3973 13.9004 13.8644 13.9004C13.6852 13.9004 13.5499 13.9553 13.4275 14.0778ZM16.0128 13.9488C15.8473 14.0153 15.695 14.4033 15.7449 14.6308C15.8431 15.0773 16.4711 15.2273 16.7731 14.8763C17.1115 14.4829 16.8502 13.894 16.3427 13.9061C16.2118 13.9092 16.0633 13.9285 16.0128 13.9488ZM28.2144 14.0908C28.0158 14.3433 28.025 14.6413 28.2389 14.89L28.4134 15.0928H31.1359H33.8583L34.0328 14.89C34.2606 14.6251 34.2595 14.3075 34.0297 14.0778L33.8524 13.9004H31.1082H28.3641L28.2144 14.0908ZM9.56456 24.4826C9.56456 29.1922 9.58899 31.4438 9.64167 31.5827C9.68402 31.6946 9.78974 31.8624 9.87653 31.9556C10.2003 32.3034 10.4041 32.3564 11.5338 32.3872L12.5997 32.4162L12.6012 26.9342C12.602 23.7348 12.6322 21.2477 12.6736 20.9612C12.7974 20.105 13.2867 19.4182 14.0348 19.0508L14.4425 18.8506L24.9391 18.8316L35.4357 18.8126V18.1993V17.586H22.5001H9.56456V24.4826ZM14.6232 20.1242C14.5239 20.1638 14.3663 20.2675 14.273 20.3545C13.926 20.6785 13.9005 20.8128 13.9005 22.3158V23.7285H26.836H39.7716V22.3783C39.7716 20.7907 39.7001 20.5379 39.1621 20.2226L38.8556 20.043L26.8297 20.0476C19.0191 20.0506 14.7405 20.0774 14.6232 20.1242ZM15.3064 21.4489C14.9358 21.8195 15.1905 22.5 15.6998 22.5C16.0316 22.5 16.3142 22.2175 16.3142 21.8858C16.3142 21.3517 15.679 21.0764 15.3064 21.4489ZM17.7635 21.4489C17.5889 21.6234 17.5344 21.9202 17.6309 22.1716C17.6847 22.3116 18.0276 22.5 18.2288 22.5C18.4428 22.5 18.7363 22.2071 18.787 21.9429C18.8242 21.7489 18.7955 21.6749 18.6118 21.4912C18.3336 21.213 18.0152 21.1972 17.7635 21.4489ZM20.2336 21.462C19.8365 21.8591 20.121 22.5 20.6943 22.5C20.9138 22.5 21.2716 22.1193 21.2716 21.8858C21.2716 21.7701 21.1877 21.6101 21.0604 21.4827C20.7883 21.2107 20.4924 21.2032 20.2336 21.462ZM32.5779 21.4489C32.4554 21.5713 32.4005 21.7066 32.4005 21.8858C32.4005 22.0649 32.4554 22.2002 32.5779 22.3226L32.7553 22.5H35.4379H38.1206L38.3318 22.2888C38.4592 22.1615 38.5431 22.0014 38.5431 21.8858C38.5431 21.7701 38.4592 21.6101 38.3318 21.4827L38.1206 21.2715H35.4379H32.7553L32.5779 21.4489ZM13.9005 31.956V38.9549L14.1099 39.244C14.5236 39.8151 13.4715 39.7715 26.8398 39.7715C36.8047 39.7715 38.8027 39.7552 38.9971 39.672C39.2783 39.5517 39.5901 39.2307 39.6947 38.9538C39.7471 38.8153 39.7716 36.5508 39.7716 31.8537V24.9571H26.836H13.9005V31.956ZM15.9385 26.9825C15.6091 27.2893 15.6735 27.7711 16.0706 27.9721C16.1781 28.0264 16.5417 28.0627 16.9843 28.0634C17.6706 28.0644 17.7343 28.0521 17.9418 27.8774C18.2291 27.6356 18.2479 27.2745 17.9868 27.0134C17.8184 26.845 17.7659 26.836 16.9526 26.836C16.1917 26.836 16.0781 26.8524 15.9385 26.9825ZM19.6304 26.9986C19.5486 27.088 19.4599 27.2327 19.4334 27.3201C19.3684 27.5346 19.5706 27.9087 19.7983 27.9953C19.9082 28.0371 22.0841 28.0645 25.2906 28.0645C30.9164 28.0645 30.9291 28.0638 31.0548 27.736C31.1624 27.4559 31.1003 27.136 30.9093 26.9858C30.7205 26.8372 30.6734 26.836 25.249 26.836H19.7792L19.6304 26.9986ZM32.5909 26.9858C32.453 27.0942 32.4005 27.2022 32.4005 27.3773C32.4005 28.0257 32.5224 28.0645 34.5594 28.0645H36.2195L36.4418 27.8774C36.7291 27.6356 36.7479 27.2745 36.4868 27.0134L36.3094 26.836H34.5453C32.8702 26.836 32.7717 26.8435 32.5909 26.9858ZM15.9184 29.5042C15.791 29.6316 15.7071 29.7916 15.7071 29.9073C15.7071 30.0229 15.791 30.1829 15.9184 30.3103C16.1253 30.5172 16.1451 30.5215 16.8976 30.5215C17.6944 30.5215 18.0276 30.432 18.1193 30.1931C18.2158 29.9417 18.1614 29.6449 17.9868 29.4704C17.8188 29.3024 17.7649 29.293 16.9695 29.293C16.1376 29.293 16.1277 29.295 15.9184 29.5042ZM19.6352 29.4643C19.4835 29.5948 19.436 29.7004 19.436 29.9073C19.436 30.1142 19.4835 30.2197 19.6352 30.3502L19.8344 30.5215H22.7619C25.7544 30.5215 25.8844 30.5105 26.093 30.2387C26.2447 30.0412 26.2032 29.6653 26.0082 29.4704L25.8309 29.293H22.8326H19.8344L19.6352 29.4643ZM15.9184 31.9613C15.791 32.0886 15.7071 32.2487 15.7071 32.3643C15.7071 32.4799 15.791 32.64 15.9184 32.7673C16.1277 32.9765 16.1376 32.9785 16.9695 32.9785C17.7649 32.9785 17.8188 32.9692 17.9868 32.8011C18.1614 32.6266 18.2158 32.3299 18.1193 32.0785C18.0276 31.8396 17.6944 31.75 16.8976 31.75C16.1451 31.75 16.1253 31.7543 15.9184 31.9613ZM19.6352 31.9213C19.4835 32.0518 19.436 32.1574 19.436 32.3643C19.436 32.5712 19.4835 32.6768 19.6352 32.8073L19.8344 32.9785H23.7382H27.6421L27.8533 32.7673C27.9807 32.64 28.0646 32.4799 28.0646 32.3643C28.0646 32.2487 27.9807 32.0886 27.8533 31.9613L27.6421 31.75H23.7382H19.8344L19.6352 31.9213ZM29.6183 31.8373C29.2416 32.0533 29.1804 32.4849 29.4836 32.7881L29.6741 32.9785H33.606H37.5379L37.7153 32.8011C37.8378 32.6787 37.8927 32.5434 37.8927 32.3643C37.8927 32.1851 37.8378 32.0499 37.7153 31.9274L37.5379 31.75L33.6503 31.7522C30.8623 31.7538 29.7219 31.7779 29.6183 31.8373ZM15.9184 34.4183C15.6564 34.6803 15.649 34.9218 15.8942 35.2132L16.0813 35.4356H16.9453C17.7664 35.4356 17.8182 35.4268 17.9868 35.2582C18.105 35.14 18.1634 35.0013 18.1619 34.8426C18.157 34.3402 17.8924 34.2071 16.8987 34.2071C16.145 34.2071 16.1254 34.2113 15.9184 34.4183ZM19.754 34.3006C19.3615 34.4991 19.3142 35.0174 19.6635 35.2922C19.8416 35.4323 19.9697 35.4356 25.2953 35.4356H30.745L30.9223 35.2582C31.0969 35.0836 31.1513 34.7869 31.0548 34.5355C30.929 34.2076 30.9185 34.207 25.2679 34.2081C21.1138 34.2089 19.8947 34.2294 19.754 34.3006ZM16.0706 36.7565C15.6801 36.9542 15.6101 37.4342 15.9257 37.7499C16.0521 37.8762 16.1686 37.8926 16.9389 37.8926C17.7668 37.8926 17.8181 37.8839 17.9868 37.7152C18.2479 37.454 18.2291 37.093 17.9418 36.8512C17.7343 36.6765 17.6706 36.6642 16.9843 36.6652C16.5417 36.6658 16.1781 36.7022 16.0706 36.7565ZM19.7498 36.7705C19.3756 36.974 19.3232 37.3945 19.6304 37.73L19.7792 37.8926H28.3526C36.8651 37.8926 36.9271 37.8916 37.0832 37.7461C37.401 37.4501 37.3354 36.9509 36.9532 36.7576C36.6729 36.6158 20.0113 36.6282 19.7498 36.7705Z" fill="white"/>
</g>
<defs>
<linearGradient id="paint0_linear_0_6496" x1="-0.0469116" y1="22.4861" x2="44.9347" y2="22.4861" gradientUnits="userSpaceOnUse">
<stop stop-color="#26A9E1"/>
<stop offset="1" stop-color="#3F6CFF"/>
</linearGradient>
<clipPath id="clip0_0_6496">
<rect width="37" height="37" fill="white" transform="translate(4 4)"/>
</clipPath>
</defs>
</svg>
