<svg width="259" height="32" viewBox="0 0 259 32" fill="none" xmlns="http://www.w3.org/2000/svg">
<g clip-path="url(#clip0_0_6225)">
<path d="M24.7101 26.5134L25.9502 27.6354C23.2337 30.1748 19.5724 31.5921 15.8519 31.533C11.8363 31.5921 7.99773 29.9976 5.22218 27.163C2.38758 24.3874 0.793116 20.5489 0.85217 16.5332C0.793116 12.5176 2.38758 8.67903 5.22218 5.90348C7.99773 3.00982 11.8363 1.41536 15.8519 1.53347C19.5724 1.47442 23.2337 2.89172 25.9502 5.43105L24.7101 6.55308C22.2889 4.30902 19.159 3.12793 15.8519 3.18699C12.3087 3.12793 8.88354 4.54523 6.46232 7.08457C3.92299 9.56484 2.50569 12.99 2.56474 16.5332C2.50569 20.0765 3.92299 23.5016 6.46232 25.9819C8.9426 28.5212 12.3677 29.9385 15.911 29.8795C19.159 29.9385 22.2889 28.6984 24.7101 26.5134Z" fill="#303030"/>
<path d="M66.8752 1.88791H66.9933C71.8358 1.88791 75.5562 3.24616 78.2136 5.9036C81.1073 8.67915 82.7017 12.5177 82.5836 16.5334C82.6427 20.549 81.0482 24.3876 78.2136 27.1631C75.5562 29.8206 71.8358 31.1788 66.9933 31.1788H66.8752V31.2379H65.2217V1.82886L66.8752 1.88791ZM66.8752 3.60048V29.5253H66.9933C71.3633 29.5253 74.6704 28.3442 77.0325 25.982C79.5719 23.5018 80.9892 20.0766 80.9301 16.5334C80.9892 12.9901 79.5719 9.56496 77.0325 7.08468C74.6704 4.78157 71.3633 3.60048 66.9933 3.60048H66.8752Z" fill="#303030"/>
<path d="M101.894 1.82886V3.48238H88.843V15.6475H101.835V17.3011H88.843V29.4662H101.835V31.1197H87.1895V1.82886H101.894Z" fill="#303030"/>
<path d="M135.851 1.47461V3.12813H122.977V15.1752H135.851V16.8287H122.977V28.9348H135.851V30.5883H121.323V1.47461H135.851Z" fill="#303030"/>
<path d="M153.566 1.47461V3.12813H142.464V15.1752H153.566V16.8287H142.464V30.5293H140.811V1.47461H153.566Z" fill="#303030"/>
<path d="M171.283 1.47461V3.12813H160.181V15.1752H171.283V16.8287H160.181V30.5293H158.527V1.47461H171.283Z" fill="#303030"/>
<path d="M190.771 1.47461V3.12813H177.897V15.1752H190.771V16.8287H177.897V28.9348H190.771V30.5883H176.243V1.47461H190.771Z" fill="#303030"/>
<path d="M218.999 25.9229L220.239 27.045C214.333 32.3598 205.298 32.1827 199.688 26.5725C196.853 23.797 195.259 20.0175 195.318 16.0609C195.259 12.1042 196.853 8.26572 199.688 5.54923C205.298 -0.0609194 214.333 -0.297137 220.239 5.0768L218.999 6.19883C213.743 1.53354 205.83 1.82882 200.869 6.73031C198.33 9.15154 196.972 12.5767 197.031 16.0609C196.972 19.6041 198.389 22.9702 200.869 25.3914C205.83 30.2929 213.743 30.5292 218.999 25.9229Z" fill="#303030"/>
<path d="M231.932 3.12813V30.5293H230.278V3.12813H222.896V1.47461H239.255V3.12813H231.932Z" fill="#303030"/>
<path d="M250.179 14.4665C248.349 13.935 246.636 12.9311 245.278 11.6319C244.097 10.5099 243.447 8.9154 243.506 7.26188C243.506 5.66742 244.097 4.07296 245.278 2.95093C247.699 0.529704 251.597 0.529704 254.018 2.95093C254.667 3.54147 255.14 4.30917 255.435 5.07688L253.959 5.66742C253.723 5.07688 253.368 4.48634 252.896 4.0139C251.124 2.24228 248.29 2.24228 246.518 4.0139C245.691 4.84066 245.219 6.02175 245.219 7.20283C245.219 8.38391 245.691 9.565 246.518 10.3918C247.522 11.3366 248.703 12.1043 249.943 12.6358C252.128 13.3445 254.136 14.5256 255.79 16.12C257.443 17.7145 258.329 19.8995 258.329 22.2026C258.388 26.986 254.608 30.8836 249.825 30.9426C245.514 31.0017 241.794 27.8718 241.203 23.6199L242.739 23.0294C243.211 26.8679 246.695 29.5844 250.534 29.1119C254.018 28.6986 256.675 25.7458 256.675 22.2026C256.675 20.3719 255.967 18.5412 254.667 17.242C253.309 16.061 251.833 15.1161 250.179 14.4665Z" fill="#303030"/>
<path d="M45.4978 8.0885C45.4978 9.91918 43.9624 11.4546 42.1317 11.4546C40.301 11.4546 38.7656 9.91918 38.7656 8.0885C38.7656 6.25782 40.301 4.72241 42.1317 4.72241C44.0215 4.72241 45.4978 6.25782 45.4978 8.0885Z" fill="#7A44A1"/>
<path d="M52.9383 16.8876C52.9383 17.5962 52.3477 18.1277 51.6981 18.1277C51.0485 18.1277 50.458 17.5372 50.458 16.8876C50.458 16.1789 51.0485 15.6475 51.6981 15.6475C52.3477 15.6475 52.9383 16.238 52.9383 16.8876Z" fill="#7A44A1"/>
<path d="M49.5725 5.96254C49.5725 6.96647 48.8048 7.73417 47.8009 7.73417C46.797 7.73417 46.0293 6.96647 46.0293 5.96254C46.0293 4.95862 46.797 4.19092 47.8009 4.19092C48.8048 4.19092 49.5725 4.95862 49.5725 5.96254Z" fill="#7A44A1"/>
<path d="M38.5294 8.62019C38.5294 9.09262 38.1161 9.506 37.6436 9.506C37.1712 9.506 36.7578 9.09262 36.7578 8.62019C36.7578 8.14775 37.1712 7.73438 37.6436 7.73438C38.1161 7.73438 38.5294 8.0887 38.5294 8.62019Z" fill="#7A44A1"/>
<path d="M37.6429 10.5688C37.6429 10.9231 37.3477 11.2184 36.9933 11.2184C36.639 11.2184 36.3438 10.9231 36.3438 10.5688C36.3438 10.2145 36.639 9.91919 36.9933 9.91919C37.3477 9.91919 37.6429 10.2145 37.6429 10.5688Z" fill="#7A44A1"/>
<path d="M45.0844 14.7028C45.0844 15.0571 44.7891 15.3524 44.4348 15.3524C44.0804 15.3524 43.7852 15.0571 43.7852 14.7028C43.7852 14.3485 44.0804 14.0532 44.4348 14.0532C44.7891 13.9941 45.0844 14.2894 45.0844 14.7028Z" fill="#7A44A1"/>
<path d="M50.1035 17.301C50.1035 17.8916 49.6311 18.364 49.0405 18.364C48.45 18.364 47.9775 17.8916 47.9775 17.301C47.9775 16.7105 48.45 16.238 49.0405 16.238C49.6311 16.238 50.1035 16.7105 50.1035 17.301Z" fill="#7A44A1"/>
<path d="M42.8993 18.246C43.6494 18.246 44.2575 17.6379 44.2575 16.8878C44.2575 16.1376 43.6494 15.5295 42.8993 15.5295C42.1491 15.5295 41.541 16.1376 41.541 16.8878C41.541 17.6379 42.1491 18.246 42.8993 18.246Z" fill="#7A44A1"/>
<path d="M40.5373 12.8719C40.5373 13.9349 39.7105 14.7616 38.6475 14.7616C37.5846 14.7616 36.7578 13.9349 36.7578 12.8719C36.7578 11.8089 37.5846 10.9822 38.6475 10.9822C39.7105 10.9822 40.5373 11.868 40.5373 12.8719Z" fill="#7A44A1"/>
<path d="M48.3322 8.97444C48.3322 9.44687 47.9188 9.86025 47.4464 9.86025C46.9739 9.86025 46.5605 9.44687 46.5605 8.97444C46.5605 8.502 46.9739 8.08862 47.4464 8.08862C47.9188 8.08862 48.3322 8.44295 48.3322 8.97444Z" fill="#7A44A1"/>
<path d="M47.8005 12.0453C47.8005 12.813 47.2099 13.4035 46.4422 13.4035C45.6745 13.4035 45.084 12.813 45.084 12.0453C45.084 11.2776 45.6745 10.687 46.4422 10.687C47.1509 10.687 47.7414 11.2776 47.8005 12.0453Z" fill="#7A44A1"/>
<path d="M55.2411 13.2263C55.2411 14.4074 54.2372 15.4113 53.0561 15.4113C51.875 15.4113 50.8711 14.4074 50.8711 13.2263C50.8711 12.0452 51.875 11.0413 53.0561 11.0413C54.2372 11.0413 55.2411 12.0452 55.2411 13.2263Z" fill="#7A44A1"/>
<path d="M55.1238 10.3326C55.1238 10.8051 54.7694 11.1594 54.3561 11.1594C53.8836 11.1594 53.5293 10.8051 53.5293 10.3326C53.5293 9.86018 53.8836 9.50586 54.297 9.50586C54.7694 9.50586 55.1238 9.86018 55.1238 10.3326Z" fill="#7A44A1"/>
<path d="M43.608 13.6988C43.608 14.4665 42.9584 15.1161 42.1907 15.1161C41.423 15.1161 40.7734 14.4665 40.7734 13.6988C40.7734 12.9311 41.423 12.2815 42.1907 12.2815C43.0175 12.2815 43.608 12.872 43.608 13.6988Z" fill="#7A44A1"/>
<path d="M52.7024 8.97448C52.7024 9.9784 51.8756 10.8052 50.8717 10.8052C49.8678 10.8052 49.041 9.9784 49.041 8.97448C49.041 7.97056 49.8678 7.1438 50.8717 7.1438C51.8756 7.1438 52.7024 7.9115 52.7024 8.97448Z" fill="#7A44A1"/>
<path d="M50.8716 6.376C50.8716 6.61222 50.6945 6.84843 50.3992 6.84843C50.163 6.84843 49.9268 6.67127 49.9268 6.376C49.9268 6.13978 50.1039 5.90356 50.3992 5.90356C50.6354 5.96262 50.8716 6.13978 50.8716 6.376Z" fill="#7A44A1"/>
<path d="M54.0015 8.97439C54.0015 9.2106 53.8243 9.44682 53.5291 9.44682C53.2929 9.44682 53.0566 9.26966 53.0566 8.97439C53.0566 8.73817 53.2338 8.50195 53.5291 8.50195C53.8243 8.50195 54.0015 8.67912 54.0015 8.97439Z" fill="#7A44A1"/>
<path d="M53.1744 7.14382C53.1744 7.38004 52.9972 7.61625 52.7019 7.61625C52.4657 7.61625 52.2295 7.43909 52.2295 7.14382C52.2295 6.9076 52.4067 6.67139 52.6429 6.67139C52.9381 6.67139 53.1744 6.84855 53.1744 7.14382C53.1744 7.08477 53.1744 7.08477 53.1744 7.14382Z" fill="#7A44A1"/>
<path d="M45.5562 4.95876C45.5562 5.19498 45.379 5.4312 45.0838 5.4312C44.8475 5.4312 44.6113 5.25403 44.6113 4.95876C44.6113 4.72255 44.7885 4.48633 45.0838 4.48633C45.379 4.48633 45.5562 4.66349 45.5562 4.95876Z" fill="#7A44A1"/>
<path d="M50.5172 12.0452C50.5172 12.5767 50.1038 12.9901 49.5723 12.9901C49.0408 12.9901 48.6865 12.5767 48.6865 12.1043C48.6865 11.6319 49.0999 11.2185 49.5723 11.1594C50.1038 11.1004 50.5172 11.5138 50.5172 12.0452Z" fill="#7A44A1"/>
<path d="M50.5167 14.5845C50.5167 15.116 50.1033 15.5294 49.5718 15.5294C49.0403 15.5294 48.627 15.116 48.627 14.5845C48.627 14.053 49.0403 13.6396 49.5718 13.6396C50.0443 13.6396 50.5167 14.053 50.5167 14.5845Z" fill="#7A44A1"/>
<path d="M50.6354 18.7183C50.6354 18.8955 50.4582 19.0726 50.2811 19.0726C50.1039 19.0726 49.9268 18.8955 49.9268 18.7183C49.9268 18.4821 50.0449 18.3049 50.2811 18.3049C50.5173 18.3049 50.6945 18.423 50.6945 18.6593C50.6354 18.6593 50.6354 18.7183 50.6354 18.7183Z" fill="#7A44A1"/>
<path d="M52.2884 19.3679C52.2884 19.7222 51.9932 20.0175 51.6389 20.0175C51.2845 20.0175 50.9893 19.7222 50.9893 19.3679C50.9893 19.0135 51.2845 18.7183 51.5798 18.7183C51.9932 18.7183 52.2884 18.9545 52.2884 19.3679Z" fill="#7A44A1"/>
<path d="M50.8716 20.0176C50.8716 20.2538 50.6945 20.49 50.3992 20.49C50.163 20.49 49.9268 20.3129 49.9268 20.0176C49.9268 19.7223 50.1039 19.5452 50.3992 19.5452C50.6354 19.5452 50.8716 19.7223 50.8716 20.0176Z" fill="#7A44A1"/>
<path d="M51.6392 21.2576C51.6392 21.4938 51.462 21.73 51.1668 21.73C50.9306 21.73 50.6943 21.5529 50.6943 21.2576C50.6943 20.9623 50.8715 20.7852 51.1668 20.7852C51.462 20.7852 51.6392 20.9623 51.6392 21.2576Z" fill="#7A44A1"/>
<path d="M44.6112 31.8874H34.513C34.0996 31.8874 33.7453 31.5331 33.7453 31.1197V24.1513H31.7374C31.3241 24.1513 30.9697 23.797 30.9697 23.3836V14.1121C31.0288 10.0964 32.8004 6.31693 35.8122 3.65949C38.1743 1.65164 42.3081 -0.533363 48.8632 0.411504C53.4103 1.12015 56.6583 3.60043 58.2528 7.61612C60.4968 13.3444 59.0205 21.4348 54.7095 26.8087C54.4142 27.104 53.9418 27.1631 53.5875 26.8678C53.2922 26.5725 53.2332 26.1591 53.4694 25.8048C57.367 20.9033 58.7843 13.2853 56.7764 8.14761C55.4182 4.66341 52.5836 2.4784 48.6269 1.88786C42.7215 1.0611 38.942 3.06894 36.8751 4.84057C34.1587 7.14368 32.6232 10.5098 32.5642 14.053V22.5568H34.513C34.9264 22.5568 35.2807 22.9112 35.2807 23.3245V30.2929H44.6112C45.0246 30.2929 45.379 30.6473 45.379 31.0606C45.379 31.474 45.0837 31.8874 44.6112 31.8874Z" fill="url(#paint0_linear_0_6225)"/>
</g>
<defs>
<linearGradient id="paint0_linear_0_6225" x1="30.9402" y1="16.0262" x2="59.2526" y2="16.0262" gradientUnits="userSpaceOnUse">
<stop stop-color="#26A9E1"/>
<stop offset="1" stop-color="#3F6CFF"/>
</linearGradient>
<clipPath id="clip0_0_6225">
<rect width="257.882" height="32" fill="white" transform="translate(0.852539)"/>
</clipPath>
</defs>
</svg>
