<svg width="45" height="45" viewBox="0 0 45 45" fill="none" xmlns="http://www.w3.org/2000/svg">
<rect width="45" height="45" rx="6" fill="url(#paint0_linear_0_6807)"/>
<g clip-path="url(#clip0_0_6807)">
<path fill-rule="evenodd" clip-rule="evenodd" d="M21.3648 4.06763C21.0101 4.17942 20.4052 4.80582 20.2965 5.17394C20.2394 5.36732 20.2086 6.01851 20.2086 7.03478V8.59818H12.8639C7.30859 8.59818 5.44681 8.61957 5.22184 8.68605C4.82489 8.80334 4.22624 9.40199 4.10895 9.79894C3.98126 10.2312 3.98126 38.1839 4.10895 38.6162C4.22624 39.0131 4.82489 39.6118 5.22184 39.729C5.45136 39.7968 9.10974 39.8169 21.2467 39.8169H36.9742V36.1561V32.4953L37.3684 31.6937C38.052 30.3038 38.4645 28.8925 38.6315 27.372C38.6739 26.9861 38.7086 25.6956 38.7086 24.5043C38.7086 22.3789 38.7114 22.3375 38.8579 22.291C39.1256 22.206 39.5228 21.7955 39.6949 21.4258L39.8634 21.064L39.8641 13.2677C39.8647 7.356 39.8436 5.39948 39.777 5.17394C39.6597 4.77699 39.061 4.17834 38.6641 4.06105C38.259 3.94138 21.7455 3.94767 21.3648 4.06763ZM21.5422 5.30684L21.3648 5.48418V13.2232V20.9622L21.5422 21.1395C21.7131 21.3104 21.7555 21.3169 22.6985 21.3169H23.6773V20.6232C23.6773 19.8186 23.7786 19.5333 24.1702 19.2352C24.3938 19.065 24.49 19.0411 24.9368 19.0447C25.3738 19.0481 25.5139 19.084 25.9032 19.2916C26.1537 19.4251 26.44 19.6312 26.5396 19.7494C26.8111 20.0721 27.0539 20.593 27.1113 20.9759L27.1625 21.3169H27.7324H28.3023V18.5973C28.3023 16.7218 28.3287 15.7896 28.3873 15.594C28.4911 15.2476 28.9416 14.7206 29.2393 14.5972L29.4586 14.5064V12.6451V10.7837L29.2393 10.6929C28.9416 10.5695 28.4911 10.0425 28.3873 9.69611C28.1894 9.03567 28.3344 8.48898 28.8419 7.98146C29.573 7.25035 30.5004 7.25035 31.2315 7.98146C31.7915 8.54152 31.9177 9.18367 31.6012 9.86333C31.429 10.233 31.0318 10.6435 30.7641 10.7285C30.6183 10.7747 30.6148 10.8195 30.6148 12.6451C30.6148 14.4706 30.6183 14.5154 30.7641 14.5616C31.0318 14.6466 31.429 15.0571 31.6012 15.4268C31.7536 15.7541 31.7697 15.8904 31.7704 16.857L31.7711 17.9254L32.1326 17.8774C32.3528 17.8482 32.6215 17.8652 32.8199 17.9207C33.224 18.0338 33.7249 18.4652 33.898 18.849C34.0166 19.112 34.045 19.1326 34.2053 19.0716C34.8828 18.814 35.8834 19.2799 36.2105 20.0052C36.3291 20.2683 36.3575 20.2888 36.5178 20.2279C37.0499 20.0256 37.8483 20.29 38.3004 20.8181C38.5196 21.0742 38.5836 21.1136 38.6386 21.0267C38.6797 20.9617 38.7068 17.8826 38.7075 13.2019L38.7086 5.48418L38.5312 5.30684L38.3538 5.12942H30.0367H21.7196L21.5422 5.30684ZM23.6773 9.23982V11.0376L23.4581 11.1285C22.9723 11.3297 22.5211 12.0601 22.5211 12.6451C22.5211 13.23 22.9723 13.9604 23.4581 14.1616L23.6773 14.2525V16.0503V17.8482H24.2555H24.8336V16.0464C24.8336 14.289 24.8373 14.2435 24.9829 14.1972C25.4662 14.0438 25.9884 13.2378 25.9884 12.6451C25.9884 12.0523 25.4662 11.2463 24.9829 11.0929C24.8373 11.0466 24.8336 11.0011 24.8336 9.24372V7.44192H24.2555H23.6773V9.23982ZM35.2398 8.08357V8.72515L35.0206 8.81598C34.5348 9.01717 34.0836 9.74756 34.0836 10.3326C34.0836 10.9175 34.5348 11.6479 35.0206 11.8491L35.2398 11.94V14.894V17.8482H35.818H36.3961V14.8901C36.3961 11.9642 36.3977 11.9316 36.5454 11.8847C37.0287 11.7313 37.5509 10.9253 37.5509 10.3326C37.5509 9.73983 37.0287 8.93378 36.5454 8.78036C36.4092 8.73714 36.3961 8.67637 36.3961 8.08747V7.44192H35.818H35.2398V8.08357ZM29.636 8.77559C29.2775 9.13402 29.5315 9.75443 30.0367 9.75443C30.3338 9.75443 30.6148 9.47338 30.6148 9.1763C30.6148 8.87922 30.3338 8.59818 30.0367 8.59818C29.8959 8.59818 29.7478 8.66372 29.636 8.77559ZM5.35474 9.93184L5.17733 10.1092V12.8225V15.5357H12.693H20.2086V12.6451V9.75443H12.8704H5.53208L5.35474 9.93184ZM35.4172 9.93184C35.0587 10.2903 35.3127 10.9107 35.818 10.9107C36.115 10.9107 36.3961 10.6296 36.3961 10.3326C36.3961 10.0355 36.115 9.75443 35.818 9.75443C35.6772 9.75443 35.529 9.81997 35.4172 9.93184ZM6.33358 12.6451V14.3794H8.06795H9.80233V12.6451V10.9107H8.06795H6.33358V12.6451ZM10.9586 12.6451V14.3794H12.693H14.4273V12.6451V10.9107H12.693H10.9586V12.6451ZM15.5836 12.6451V14.3794H17.318H19.0523V12.6451V10.9107H17.318H15.5836V12.6451ZM7.48983 12.6451V13.2232H8.06795H8.64608V12.6451V12.0669H8.06795H7.48983V12.6451ZM12.1148 12.6451V13.2232H12.693H13.2711V12.6451V12.0669H12.693H12.1148V12.6451ZM16.7398 12.6451V13.2232H17.318H17.8961V12.6451V12.0669H17.318H16.7398V12.6451ZM23.8547 12.2443C23.4962 12.6028 23.7502 13.2232 24.2555 13.2232C24.5525 13.2232 24.8336 12.9421 24.8336 12.6451C24.8336 12.348 24.5525 12.0669 24.2555 12.0669C24.1147 12.0669 23.9665 12.1325 23.8547 12.2443ZM29.636 15.7131L29.4586 15.8904V20.4562C29.4586 23.8296 29.4356 25.0995 29.3707 25.3193C29.2534 25.7162 28.6548 26.3149 28.2578 26.4322C27.6369 26.6157 27.0874 26.4969 26.6089 26.0756C26.037 25.5722 26.0307 25.5416 25.9898 23.0744C25.9557 21.0149 25.9454 20.8824 25.8047 20.6941C25.596 20.4149 25.3438 20.2426 25.0634 20.1876L24.8235 20.1406L24.8528 23.6013C24.8798 26.7961 24.8937 27.1121 25.0332 27.7124C25.3364 29.0166 25.983 30.5225 26.6081 31.3799L26.8584 31.7232H31.4718H36.0852L36.4196 31.0123C36.836 30.127 37.1367 29.2149 37.3456 28.2038C37.4929 27.491 37.5093 27.1745 37.5353 24.5533L37.5638 21.6832L37.3807 21.5C37.1402 21.2595 36.8105 21.2572 36.5735 21.4943L36.3961 21.6717V23.5178V25.3638H35.818H35.2398V22.9396V20.5154L35.0624 20.3381C34.8278 20.1034 34.4956 20.1034 34.261 20.3381L34.0836 20.5154V22.9396V25.3638H33.5055H32.9273V22.3615V19.3592L32.7499 19.1818C32.6381 19.07 32.49 19.0044 32.3492 19.0044C32.2084 19.0044 32.0603 19.07 31.9485 19.1818L31.7711 19.3592V22.3615V25.3638H31.193H30.6148V20.6271V15.8904L30.4374 15.7131C30.3256 15.6012 30.1775 15.5357 30.0367 15.5357C29.8959 15.5357 29.7478 15.6012 29.636 15.7131ZM5.17733 27.4989V38.3059L5.35474 38.4833L5.53208 38.6607H15.761H25.9898V35.5908V32.5209L25.6393 31.9955C25.4465 31.7066 25.1781 31.2674 25.0431 31.0195L24.7974 30.5687L20.7686 30.5678L16.7398 30.5669V28.8326V27.0982H20.2447H23.7496L23.7489 26.8994C23.7487 26.7902 23.7278 26.53 23.7028 26.3213L23.6572 25.9419H14.9954H6.33358V21.8951V17.8482H13.2711H20.2086V17.2701V16.6919H12.693H5.17733V27.4989ZM7.48983 21.8951V24.7857H15.5836H23.6773V23.6294V22.4732H22.6921C21.4658 22.4732 21.2192 22.4047 20.7481 21.9336C20.277 21.4625 20.2086 21.216 20.2086 19.9897V19.0044H13.8492H7.48983V21.8951ZM27.1461 23.7411C27.1461 24.991 27.1486 25.0116 27.3235 25.1864C27.4353 25.2983 27.5834 25.3638 27.7242 25.3638C27.865 25.3638 28.0131 25.2983 28.1249 25.1864C28.2998 25.0116 28.3023 24.991 28.3023 23.7411V22.4732H27.7242H27.1461V23.7411ZM9.73006 28.2995C8.21133 28.5937 7.00514 29.6581 6.50543 31.1451C6.30373 31.7452 6.31941 32.9077 6.5378 33.5435C6.95752 34.7659 7.91583 35.7242 9.13821 36.144C9.77523 36.3628 10.9373 36.3781 11.5367 36.1757C12.8396 35.7357 13.7902 34.8043 14.2231 33.5435C14.4585 32.858 14.4585 31.7446 14.2231 31.0591C13.6621 29.4254 12.2454 28.354 10.5611 28.2895C10.2034 28.2757 9.82943 28.2803 9.73006 28.2995ZM17.8961 28.8318V29.4107H21.1008H24.3056L24.1441 28.8506L23.9826 28.2906L20.9393 28.2717L17.8961 28.2528V28.8318ZM9.09788 29.7366C8.48175 30.0449 8.06427 30.4785 7.75468 31.132C7.54728 31.5697 7.52611 31.6789 7.52733 32.3013C7.52856 32.9038 7.55436 33.0437 7.73821 33.4445L7.94763 33.901L8.87494 32.9758L9.80233 32.0505V30.7667C9.80233 29.7299 9.78332 29.4829 9.70361 29.4829C9.64934 29.4829 9.37676 29.5971 9.09788 29.7366ZM10.9586 30.6031V31.7232H12.0787C12.9267 31.7232 13.1988 31.7012 13.1987 31.6328C13.1986 31.4283 12.7542 30.624 12.4723 30.3183C12.1906 30.0126 11.2934 29.4829 11.0573 29.4829C10.9781 29.4829 10.9586 29.7046 10.9586 30.6031ZM16.7398 32.3013V32.8794H17.8961H19.0523V32.3013V31.7232H17.8961H16.7398V32.3013ZM20.2086 32.3013V32.8794H22.5211H24.8336V32.3013V31.7232H22.5211H20.2086V32.3013ZM9.706 33.8068L8.78071 34.7341L9.23728 34.9435C9.63807 35.1274 9.77798 35.1532 10.3805 35.1544C11.0029 35.1556 11.1121 35.1345 11.5497 34.9271C12.2032 34.6175 12.6369 34.2 12.9452 33.5839C13.0846 33.305 13.1988 33.0324 13.1988 32.9781C13.1988 32.8984 12.9519 32.8794 11.9151 32.8794H10.6313L9.706 33.8068ZM27.1461 35.7701V38.6607H31.482H35.818V35.7701V32.8794H31.482H27.1461V35.7701ZM16.7398 34.6138V35.1919H20.7867H24.8336V34.6138V34.0357H20.7867H16.7398V34.6138ZM16.7398 36.9263V37.5044H17.8961H19.0523V36.9263V36.3482H17.8961H16.7398V36.9263ZM20.2086 36.9263V37.5044H22.5211H24.8336V36.9263V36.3482H22.5211H20.2086V36.9263Z" fill="white"/>
</g>
<defs>
<linearGradient id="paint0_linear_0_6807" x1="-0.0469116" y1="22.4861" x2="44.9347" y2="22.4861" gradientUnits="userSpaceOnUse">
<stop stop-color="#26A9E1"/>
<stop offset="1" stop-color="#3F6CFF"/>
</linearGradient>
<clipPath id="clip0_0_6807">
<rect width="37" height="37" fill="white" transform="translate(3.44287 3.39505)"/>
</clipPath>
</defs>
</svg>
