<svg width="45" height="45" viewBox="0 0 45 45" fill="none" xmlns="http://www.w3.org/2000/svg">
<rect width="45" height="45" rx="6" fill="url(#paint0_linear_0_6837)"/>
<path fill-rule="evenodd" clip-rule="evenodd" d="M20.4592 4.28951C20.32 4.42869 20.3147 4.53037 20.3147 7.0356V9.63716H19.7046C19.1559 9.63716 19.083 9.65335 18.9819 9.79781C18.92 9.88612 18.8694 10.0147 18.8694 10.0835C18.8694 10.2141 21.9522 14.0047 22.2042 14.184C22.3066 14.2568 22.3986 14.2673 22.5222 14.2201C22.7336 14.1395 25.9514 10.2565 25.9514 10.0821C25.9514 10.014 25.9008 9.88612 25.8389 9.79781C25.7378 9.65335 25.6649 9.63716 25.1162 9.63716H24.5061V7.0356C24.5061 4.53037 24.5008 4.42869 24.3616 4.28951C24.2248 4.15271 24.1207 4.14497 22.4104 4.14497C20.7001 4.14497 20.596 4.15271 20.4592 4.28951ZM21.1819 7.59992C21.1819 9.69649 21.1628 10.2138 21.0813 10.3252C21.015 10.416 20.8585 10.4759 20.6213 10.5016L20.2619 10.5405L21.3102 11.8051C21.8866 12.5007 22.3818 13.0698 22.4104 13.0698C22.439 13.0698 22.9342 12.5007 23.5106 11.8051L24.5589 10.5405L24.1995 10.5016C23.9623 10.4759 23.8058 10.416 23.7395 10.3252C23.658 10.2138 23.6389 9.69649 23.6389 7.59992V5.01216H22.4104H21.1819V7.59992ZM10.1065 9.25849C9.02608 10.3401 8.82446 10.5754 8.82446 10.7547C8.82446 10.9364 9.0912 11.2351 10.6446 12.7929L12.4648 14.6181L12.0538 15.0491C11.8246 15.2894 11.6428 15.5462 11.6428 15.6299C11.6428 15.7959 11.8811 16.0701 12.0222 16.0666C12.0719 16.0653 13.2278 16.1686 14.5909 16.2961L17.0692 16.528L17.2233 16.3739L17.3774 16.2198L17.1456 13.7415C17.018 12.3784 16.9147 11.2225 16.916 11.1728C16.9195 11.0317 16.6453 10.7934 16.4793 10.7934C16.3957 10.7934 16.1388 10.9752 15.8985 11.2044L15.4676 11.6154L13.6423 9.79521C12.0787 8.23607 11.7863 7.97505 11.6027 7.97505C11.4213 7.97505 11.1915 8.17219 10.1065 9.25849ZM31.1785 9.79521L29.3532 11.6154L28.9223 11.2044C28.682 10.9752 28.4251 10.7934 28.3415 10.7934C28.1755 10.7934 27.9013 11.0317 27.9048 11.1728C27.9061 11.2225 27.8028 12.3784 27.6752 13.7415L27.4434 16.2198L27.5973 16.3737L27.7511 16.5275L30.2297 16.2966C31.5929 16.1695 32.7489 16.0663 32.7986 16.0671C32.9401 16.0697 33.178 15.7955 33.178 15.6299C33.178 15.5462 32.9962 15.2894 32.767 15.0491L32.356 14.6181L34.1762 12.7929C35.7353 11.2293 35.9963 10.9369 35.9963 10.7533C35.9963 10.5719 35.7992 10.3421 34.7129 9.25704C33.6313 8.17667 33.396 7.97505 33.2166 7.97505C33.035 7.97505 32.7363 8.24178 31.1785 9.79521ZM10.7209 9.87253L9.83669 10.7589L11.6792 12.6003C12.9827 13.9031 13.5217 14.4888 13.5217 14.6024C13.5217 14.6907 13.424 14.8743 13.3046 15.0103L13.0874 15.2577L13.3226 15.2982C13.8445 15.3879 16.3412 15.5859 16.3861 15.541C16.4314 15.4957 16.2362 12.9843 16.1478 12.4732L16.1071 12.238L15.8597 12.4552C15.7237 12.5746 15.5406 12.6723 15.4528 12.6723C15.3407 12.6723 14.7459 12.1253 13.4492 10.8293L11.6051 8.98619L10.7209 9.87253ZM31.371 10.8298C30.0683 12.1333 29.4826 12.6723 29.369 12.6723C29.2807 12.6723 29.0971 12.5746 28.9611 12.4552L28.7137 12.238L28.6732 12.4732C28.5835 12.9951 28.3855 15.4918 28.4304 15.5367C28.4757 15.5819 30.9871 15.3868 31.4982 15.2984L31.7334 15.2577L31.5162 15.0103C31.3968 14.8743 31.2991 14.6912 31.2991 14.6034C31.2991 14.4912 31.8461 13.8965 33.1421 12.5998L34.9852 10.7557L34.0989 9.87145L33.2125 8.98728L31.371 10.8298ZM21.9277 16.6497C21.1007 16.7974 20.3164 17.3159 19.8754 18.0066C19.678 18.3158 19.6723 18.3186 19.2186 18.3369C18.4525 18.3676 17.9518 18.7196 17.613 19.4653C17.3225 20.105 17.2549 20.708 17.2975 22.2807L17.3358 23.6919L17.131 23.9252C16.9412 24.1415 16.7745 24.5565 16.7745 24.8129C16.7745 25.2682 17.0999 25.7817 17.5807 26.0852C17.7412 26.1866 17.8577 26.3171 17.8577 26.3956C17.8577 26.6774 18.2366 27.8345 18.5125 28.3951C18.6704 28.7159 18.966 29.185 19.1695 29.4376L19.5395 29.8968L19.4018 30.3272L19.2642 30.7576L16.7723 31.8281C13.8849 33.0686 13.8968 33.0628 13.5494 33.4051C13.079 33.8686 12.9787 34.2025 12.6274 36.4764C12.2998 38.5974 12.2921 38.8333 12.5465 38.931C12.7009 38.9902 32.1165 38.9916 32.2708 38.9323C32.5371 38.8302 32.5323 38.6691 32.1983 36.5082C31.8413 34.1977 31.7431 33.8699 31.2686 33.4023C30.9181 33.0569 30.8083 33.0032 27.9767 31.7938L25.5576 30.7606L25.4194 30.3287L25.2813 29.8968L25.6513 29.4376C25.8548 29.185 26.1504 28.7159 26.3083 28.3951C26.5842 27.8345 26.9631 26.6774 26.9631 26.3956C26.9631 26.3171 27.0796 26.1866 27.2401 26.0852C27.7209 25.7817 28.0463 25.2682 28.0463 24.8129C28.0463 24.5697 27.886 24.1539 27.7128 23.9481L27.5285 23.7291L27.6176 23.0768C27.721 22.3208 27.6739 21.2911 27.5072 20.6577C27.3486 20.0554 26.9026 19.1515 26.504 18.6248C25.4497 17.231 23.4663 16.375 21.9277 16.6497ZM22.0017 17.5171C21.3175 17.6525 20.7697 18.087 20.4768 18.7267C20.2387 19.2467 20.0676 19.3516 19.6352 19.2427C18.9852 19.079 18.5451 19.331 18.3113 20.0008C18.2056 20.3034 18.1829 20.6123 18.1829 21.7417C18.1829 22.4968 18.2069 23.3197 18.2363 23.5703C18.2932 24.0545 18.2883 24.065 17.8293 24.4356C17.5142 24.69 17.6806 25.2145 18.118 25.3453C18.584 25.4847 18.5478 25.4182 18.7905 26.5792C19.1121 28.1171 20.0278 29.4345 21.1665 29.9972C21.6868 30.2544 21.7537 30.269 22.4104 30.269C23.0671 30.269 23.134 30.2544 23.6543 29.9972C24.8848 29.3891 25.8176 27.9493 26.1236 26.1857C26.2359 25.5389 26.3208 25.3911 26.5801 25.3911C26.7767 25.3911 27.1799 25.0327 27.1799 24.858C27.1799 24.6594 27.023 24.3971 26.8479 24.3035C26.5967 24.169 26.5794 24.0262 26.7156 23.2123C26.9574 21.7654 26.7192 20.4829 26.012 19.4256C25.0932 18.0518 23.3917 17.2421 22.0017 17.5171ZM10.6472 18.1325C10.5028 18.2336 10.4866 18.3065 10.4866 18.8551V19.4653H7.88501C5.37978 19.4653 5.2781 19.4706 5.13892 19.6098C5.00212 19.7466 4.99438 19.8507 4.99438 21.561C4.99438 23.2713 5.00212 23.3754 5.13892 23.5122C5.2781 23.6513 5.37978 23.6567 7.88501 23.6567H10.4866V24.2668C10.4866 24.8155 10.5028 24.8884 10.6472 24.9895C10.7355 25.0513 10.8637 25.102 10.9319 25.102C11.063 25.102 14.8578 22.0179 15.0334 21.7686C15.1062 21.6653 15.1167 21.5727 15.0695 21.4492C14.9889 21.2378 11.106 18.02 10.9315 18.02C10.8634 18.02 10.7355 18.0706 10.6472 18.1325ZM31.8263 19.6154C30.7613 20.4928 29.8438 21.2755 29.7874 21.3548C29.7146 21.4571 29.7041 21.5492 29.7513 21.6728C29.8319 21.8842 33.7148 25.102 33.8893 25.102C33.9574 25.102 34.0853 25.0513 34.1736 24.9895C34.318 24.8884 34.3342 24.8155 34.3342 24.2668V23.6567H36.9358C39.441 23.6567 39.5427 23.6513 39.6819 23.5122C39.8187 23.3754 39.8264 23.2713 39.8264 21.561C39.8264 19.8507 39.8187 19.7466 39.6819 19.6098C39.5427 19.4706 39.441 19.4653 36.9358 19.4653H34.3342V18.8551C34.3342 18.3065 34.318 18.2336 34.1736 18.1325C34.0853 18.0706 33.9567 18.02 33.8878 18.02C33.819 18.02 32.8913 18.7379 31.8263 19.6154ZM11.3538 19.7056C11.3538 19.9471 11.3126 20.0846 11.2092 20.1879C11.07 20.3271 10.9684 20.3325 8.46313 20.3325H5.86157V21.561V22.7895H8.44933C10.5459 22.7895 11.0632 22.8086 11.1746 22.8901C11.2654 22.9564 11.3254 23.1129 11.351 23.3503L11.3899 23.7099L12.6545 22.6633C13.3501 22.0877 13.9192 21.5926 13.9192 21.5632C13.9192 21.5337 13.4151 21.0939 12.7991 20.5858C12.183 20.0777 11.6058 19.5958 11.5164 19.5149L11.3538 19.3678V19.7056ZM32.1663 20.4607C31.4707 21.0372 30.9016 21.531 30.9016 21.558C30.9016 21.5851 31.4707 22.0806 32.1663 22.6591L33.4309 23.7111L33.4698 23.3509C33.4954 23.1129 33.5553 22.9565 33.6462 22.8901C33.7576 22.8086 34.2749 22.7895 36.3715 22.7895H38.9592V21.561V20.3325H36.3715C34.2749 20.3325 33.7576 20.3134 33.6462 20.2319C33.5554 20.1655 33.4954 20.0091 33.4698 19.7719L33.4309 19.4125L32.1663 20.4607ZM20.1315 30.8976C20.0628 31.1084 19.9784 31.3165 19.944 31.3601C19.9096 31.4039 18.6402 31.972 17.1232 32.6227C14.1344 33.9047 13.9769 33.9983 13.8192 34.5889C13.7744 34.7567 13.6403 35.5444 13.5212 36.3393C13.4022 37.1342 13.2879 37.8578 13.2674 37.9472L13.2299 38.1098H22.4104H31.5909L31.5534 37.9472C31.5329 37.8578 31.4186 37.1342 31.2996 36.3393C31.1805 35.5444 31.0464 34.7567 31.0016 34.5889C30.8428 33.9945 30.6748 33.8937 27.7834 32.6577C26.3187 32.0315 25.0544 31.4776 24.9737 31.4268C24.8923 31.3755 24.7696 31.1519 24.6977 30.9239C24.6265 30.698 24.5461 30.5235 24.5191 30.5361C24.4921 30.5486 24.2998 30.6484 24.0918 30.7578C23.0461 31.3078 21.7747 31.3078 20.729 30.7578C20.521 30.6484 20.3296 30.5489 20.3036 30.5367C20.2777 30.5245 20.2002 30.687 20.1315 30.8976Z" fill="white"/>
<defs>
<linearGradient id="paint0_linear_0_6837" x1="-0.0469116" y1="22.4861" x2="44.9347" y2="22.4861" gradientUnits="userSpaceOnUse">
<stop stop-color="#26A9E1"/>
<stop offset="1" stop-color="#3F6CFF"/>
</linearGradient>
</defs>
</svg>
