<svg width="45" height="45" viewBox="0 0 45 45" fill="none" xmlns="http://www.w3.org/2000/svg">
<rect width="45" height="45" rx="6" fill="url(#paint0_linear_0_6827)"/>
<g clip-path="url(#clip0_0_6827)">
<path fill-rule="evenodd" clip-rule="evenodd" d="M25.6262 3.136C23.8792 3.40815 22.3055 4.2189 21.0735 5.4816C18.0411 8.58924 18.0416 13.43 21.0745 16.5403C22.1374 17.6303 23.3224 18.314 24.8621 18.7256C25.4718 18.8885 25.6955 18.9105 26.7463 18.9105C27.7971 18.9105 28.0209 18.8885 28.6306 18.7256C30.1119 18.3296 31.323 17.6425 32.3507 16.6146C33.3786 15.5869 34.0657 14.3758 34.4617 12.8945C34.6246 12.2848 34.6466 12.061 34.6466 11.0102C34.6466 9.95939 34.6246 9.73566 34.4617 9.12596C34.0645 7.64025 33.3799 6.43587 32.3398 5.39351C30.9004 3.95101 29.0548 3.1571 26.9992 3.09626C26.4825 3.08101 25.8647 3.09886 25.6262 3.136ZM25.4455 4.64158C22.9996 5.17657 21.1086 6.97099 20.4477 9.38423C20.3186 9.85555 20.2893 10.156 20.2893 11.0102C20.2893 11.8645 20.3186 12.1649 20.4477 12.6362C21.2643 15.6177 23.9834 17.6328 26.9992 17.4914C29.4873 17.3747 31.574 15.9848 32.6404 13.734C33.0733 12.8201 33.201 12.1998 33.201 11.0102C33.201 10.1595 33.1714 9.8536 33.0438 9.38423C32.4201 7.09074 30.6446 5.31698 28.3723 4.71739C27.5422 4.49828 26.2532 4.46497 25.4455 4.64158ZM26.3929 6.0525C26.126 6.20043 26.0292 6.44866 26.0238 6.99947L26.0188 7.50533L25.6443 7.72212C23.8844 8.74085 24.4647 11.4612 26.4934 11.7019C27.0128 11.7636 27.2445 11.8697 27.364 12.1008C27.6589 12.6711 27.2105 13.2678 26.5764 13.1488C26.4312 13.1216 26.1647 12.9568 25.9206 12.7431C25.4509 12.332 25.1654 12.2779 24.8356 12.5373C24.5676 12.7481 24.4829 12.9972 24.5796 13.2903C24.6766 13.5845 25.2576 14.1356 25.6941 14.3477L26.0237 14.5078V14.9958C26.0237 15.5689 26.1215 15.8242 26.3955 15.9658C26.6338 16.089 26.8241 16.0961 27.0562 15.9904C27.3406 15.8608 27.4687 15.5582 27.4713 15.0098L27.4738 14.5151L27.8483 14.2983C29.6082 13.2796 29.0279 10.5592 26.9992 10.3185C26.4798 10.2568 26.2481 10.1507 26.1287 9.91965C25.8358 9.35337 26.2869 8.74678 26.9083 8.871C27.0367 8.89673 27.2665 9.01799 27.419 9.14048C27.5754 9.26622 27.8153 9.37925 27.9698 9.39991C28.2002 9.43084 28.2818 9.4023 28.4868 9.21911C28.9895 8.76997 28.7382 8.16829 27.8552 7.70695L27.4693 7.50533L27.4691 7.0106C27.469 6.67904 27.4293 6.44873 27.3486 6.31222C27.1467 5.97033 26.7403 5.85991 26.3929 6.0525ZM37.2455 19.2769C36.4111 19.549 35.972 19.9758 35.2852 21.182C35.0079 21.6692 34.6235 22.2651 34.4311 22.5062C34.0191 23.0225 33.0985 23.7855 32.5445 24.0698L32.1526 24.271L32.0329 24.0903C31.732 23.6357 31.3202 23.278 30.805 23.0233L30.2591 22.7534L26.0637 22.7172L21.8684 22.6811L20.7844 22.1601C19.3528 21.4719 18.7361 21.3183 17.3879 21.3141C16.2079 21.3105 15.6561 21.4357 14.5544 21.9569C12.8652 22.756 10.9054 24.5072 9.78101 26.2221C9.59861 26.5003 9.44266 26.7377 9.43442 26.7496C9.42619 26.7615 9.29734 26.6884 9.14804 26.587C8.83816 26.3768 8.68192 26.3597 8.40529 26.506C8.0681 26.6843 3.99745 30.8261 3.94354 31.0459C3.91666 31.1552 3.91355 31.3178 3.93653 31.4072C3.95951 31.4966 5.88177 33.4722 8.20829 35.7973L12.4381 40.0249H12.7641H13.0901L15.3293 37.7822C17.4812 35.6271 17.5686 35.5289 17.5686 35.2647C17.5686 35.0269 17.5097 34.9285 17.1308 34.534L16.693 34.078L16.9613 33.8175C17.2659 33.5216 17.6686 33.2824 18.2726 33.0386L18.6887 32.8706L24.4338 32.8318C30.0942 32.7935 30.1875 32.7906 30.757 32.6319C31.5994 32.3972 32.2423 32.0681 33.4453 31.2554C36.152 29.427 38.1853 27.4217 39.5746 25.2104C40.0743 24.415 40.6374 23.2579 40.8046 22.6827C41.1694 21.4281 40.5013 20.0241 39.264 19.4451C38.8625 19.2572 38.6771 19.2156 38.1655 19.1983C37.7839 19.1855 37.4343 19.2153 37.2455 19.2769ZM37.4275 20.769C37.12 20.9313 36.8904 21.2143 36.6087 21.7778C35.8147 23.366 34.412 24.7756 32.8455 25.5594C32.4911 25.7367 32.4738 25.7596 32.3952 26.1511C32.2113 27.0671 31.6128 27.8173 30.7339 28.2336L30.2512 28.4624L26.2443 28.4833C23.286 28.4989 22.1837 28.482 22.0315 28.4189C21.8115 28.3279 21.6154 28.0248 21.6154 27.7758C21.6154 27.5666 21.8002 27.2282 21.956 27.1523C22.0271 27.1176 23.8791 27.0731 26.0717 27.0532L30.0582 27.017L30.3659 26.8002C31.2146 26.2023 31.2146 25.0135 30.366 24.4155L30.0583 24.1987L25.8549 24.1625L21.6516 24.1263L21.1819 23.9372C20.9235 23.8333 20.4195 23.6 20.0617 23.4189C19.0275 22.8952 18.3355 22.7189 17.3091 22.7178C16.2752 22.7167 14.9372 23.2246 13.8469 24.0321C12.7911 24.814 11.2748 26.4795 10.6534 27.54L10.4648 27.8618L13.0517 30.4494L15.6386 33.037L16.109 32.6379C16.3677 32.4184 16.8456 32.1111 17.171 31.955C18.3192 31.404 17.8938 31.4375 24.3254 31.3929L30.1067 31.353L30.7167 31.1401C31.1696 30.982 31.6256 30.728 32.4872 30.1538C35.6689 28.0333 37.8178 25.7487 39.043 23.1839C39.4487 22.3345 39.5239 21.9944 39.3935 21.5994C39.2801 21.2557 38.9179 20.8439 38.6194 20.7192C38.2863 20.58 37.7422 20.6027 37.4275 20.769ZM7.14382 29.7094L5.6451 31.2094L9.20448 34.7682L12.7638 38.327L14.2988 36.7907L15.8338 35.2545L12.3108 31.7319C10.3732 29.7946 8.75506 28.2094 8.71509 28.2094C8.67513 28.2094 7.96808 28.8844 7.14382 29.7094ZM10.9281 33.1521C10.6039 33.3318 10.4722 33.7576 10.6392 34.0858C10.755 34.3134 11.7161 35.2835 11.9463 35.4051C12.3824 35.6355 12.8691 35.4327 12.9846 34.9725C13.0619 34.6642 12.9665 34.4642 12.529 34.0179C11.5695 33.0394 11.3477 32.9195 10.9281 33.1521Z" fill="white"/>
</g>
<defs>
<linearGradient id="paint0_linear_0_6827" x1="-0.0469116" y1="22.4861" x2="44.9347" y2="22.4861" gradientUnits="userSpaceOnUse">
<stop stop-color="#26A9E1"/>
<stop offset="1" stop-color="#3F6CFF"/>
</linearGradient>
<clipPath id="clip0_0_6827">
<rect width="37" height="37" fill="white" transform="translate(3.9104 3.06099)"/>
</clipPath>
</defs>
</svg>
