<svg width="45" height="45" viewBox="0 0 45 45" fill="none" xmlns="http://www.w3.org/2000/svg">
<rect width="45" height="45" rx="6" fill="url(#paint0_linear_0_6817)"/>
<g clip-path="url(#clip0_0_6817)">
<path fill-rule="evenodd" clip-rule="evenodd" d="M16.6714 3.1717C16.516 3.2303 16.2809 3.36053 16.1491 3.46112C15.7136 3.79318 15.5756 4.14338 15.2417 5.76249L14.9304 7.27161L14.4246 7.46644C14.1464 7.57354 13.8147 7.71561 13.6875 7.78203C13.5602 7.84844 13.4066 7.90278 13.3462 7.90278C13.2857 7.90278 12.6743 7.53105 11.9876 7.07671C10.6571 6.19637 10.2942 6.04339 9.7229 6.12165C9.21574 6.19117 8.98926 6.34372 8.1142 7.20549C7.24491 8.06148 7.0412 8.35878 6.97045 8.87497C6.89233 9.44522 7.04568 9.80871 7.92565 11.1386C8.37999 11.8254 8.75172 12.4367 8.75172 12.4972C8.75172 12.5577 8.69738 12.7113 8.63097 12.8385C8.56456 12.9657 8.42248 13.2974 8.31538 13.5756L8.12048 14.0815L6.65551 14.3841C5.84975 14.5504 5.08937 14.7285 4.96573 14.7796C4.60006 14.931 4.15968 15.4264 4.02187 15.8413C3.91954 16.1494 3.90212 16.4269 3.92257 17.4246C3.95054 18.7889 4.01674 19.01 4.53271 19.4631C4.91146 19.7956 5.07572 19.8505 6.58375 20.149C7.31906 20.2945 7.97176 20.4282 8.0342 20.4461C8.09664 20.4639 8.20352 20.6489 8.27174 20.8571C8.33995 21.0654 8.48615 21.4309 8.59664 21.6694L8.79747 22.103L7.94632 23.3857C7.47819 24.0912 7.05789 24.8067 7.01236 24.9755C6.91314 25.3433 6.96416 25.8684 7.13521 26.2401C7.31516 26.6312 8.794 28.098 9.18893 28.2771C9.58018 28.4546 10.2354 28.472 10.6149 28.3151C10.7627 28.2539 11.428 27.8428 12.0935 27.4015L13.3034 26.599L13.864 26.8529C14.1723 26.9925 14.5422 27.1445 14.6861 27.1908L14.9476 27.2749L15.2199 28.6635C15.5401 30.2959 15.6702 30.6461 16.096 31.0209C16.5507 31.4211 16.827 31.4747 18.2987 31.4481L19.5674 31.4252L19.9209 31.2066C20.5075 30.8435 20.6428 30.5415 20.9936 28.8126L21.2992 27.3065L21.981 27.0319C22.356 26.8808 22.7198 26.6902 22.7893 26.6082C23.0785 26.2672 22.8402 25.6801 22.4126 25.6801C22.2979 25.6801 21.9659 25.7728 21.6747 25.8861C21.3835 25.9994 20.9948 26.1469 20.8108 26.2139C20.6269 26.2809 20.4267 26.3914 20.366 26.4596C20.3024 26.5308 20.1282 27.2277 19.9555 28.101C19.7905 28.9357 19.6224 29.7242 19.5819 29.8532C19.453 30.2639 19.3201 30.3051 18.1246 30.3051H17.0511L16.8532 30.1064C16.6762 29.9286 16.6222 29.7399 16.342 28.3178C16.1697 27.4434 15.9867 26.6436 15.9353 26.5406C15.8625 26.3947 15.6926 26.2999 15.1693 26.1131C14.7994 25.9811 14.2367 25.7472 13.9187 25.5933C13.5422 25.4112 13.2834 25.3277 13.1765 25.3541C13.0863 25.3763 12.3772 25.8165 11.6009 26.3322C10.4666 27.0857 10.1397 27.27 9.93695 27.27C9.71676 27.27 9.59687 27.185 8.9941 26.6019C8.29855 25.929 8.10133 25.6633 8.10133 25.3989C8.10133 25.3199 8.54006 24.5947 9.07634 23.7875C9.61255 22.9802 10.0516 22.2495 10.0519 22.1637C10.0522 22.0778 9.89432 21.655 9.701 21.2242C9.50762 20.7934 9.30817 20.3108 9.25773 20.1518C9.09795 19.6484 8.98059 19.4803 8.73489 19.4032C8.60502 19.3624 7.81588 19.1946 6.98122 19.0302C5.01328 18.6426 5.11076 18.7262 5.07853 17.397C5.05469 16.4149 5.10679 16.1005 5.32286 15.9212C5.37605 15.877 6.18861 15.683 7.12871 15.4901C8.22144 15.2658 8.88635 15.0953 8.97228 15.0175C9.04621 14.9506 9.19406 14.6314 9.3008 14.308C9.40753 13.9847 9.62028 13.4688 9.77363 13.1617C9.92705 12.8546 10.0525 12.5206 10.0525 12.4195C10.0525 12.3052 9.72919 11.7519 9.19645 10.9546C8.16095 9.40461 8.07532 9.24663 8.13588 8.99703C8.19918 8.736 9.59159 7.34214 9.8446 7.28657C10.1019 7.23006 10.2555 7.31331 11.8035 8.3475C12.6009 8.88025 13.1541 9.20356 13.2685 9.20356C13.3695 9.20356 13.7035 9.07811 14.0106 8.92469C14.3178 8.77134 14.8337 8.55859 15.157 8.45186C15.4803 8.34512 15.8012 8.19553 15.87 8.11943C15.9527 8.02802 16.1128 7.40212 16.3409 6.27782C16.531 5.34104 16.7233 4.53022 16.7684 4.47595C16.9495 4.2577 17.2614 4.20567 18.2459 4.22959C19.595 4.26226 19.504 4.15162 19.9139 6.25809C20.089 7.15794 20.2668 7.95879 20.3091 8.0377C20.3691 8.14979 21.0502 8.48091 21.2208 8.48091C21.2395 8.48091 21.6152 8.6435 22.0556 8.84223C22.4961 9.04097 22.9267 9.20327 23.0126 9.20298C23.0985 9.20262 23.8292 8.76361 24.6364 8.2274C25.4436 7.69111 26.1688 7.25239 26.2479 7.25239C26.5122 7.25239 26.778 7.4496 27.4509 8.14516C28.0339 8.74793 28.1189 8.86782 28.1189 9.08801C28.1189 9.29072 27.9346 9.61764 27.1812 10.7519C26.6654 11.5283 26.2253 12.2373 26.203 12.3276C26.1766 12.4344 26.2601 12.6933 26.4423 13.0698C26.5961 13.3877 26.8301 13.9505 26.9621 14.3203C27.1489 14.8437 27.2436 15.0136 27.3895 15.0863C27.4926 15.1377 28.2923 15.3208 29.1668 15.4931C30.5889 15.7732 30.7776 15.8272 30.9553 16.0043L31.1541 16.2022V17.2757C31.1541 18.4711 31.1128 18.6041 30.7022 18.7329C30.5731 18.7734 29.7846 18.9416 28.95 19.1066C28.0766 19.2793 27.3798 19.4535 27.3085 19.5171C27.2404 19.5778 27.1294 19.778 27.062 19.9619C26.9946 20.1459 26.8311 20.5795 26.6987 20.9256C26.4356 21.6136 26.4457 21.8052 26.7574 22.0234C27.1839 22.3222 27.5049 22.0676 27.8812 21.1321L28.1555 20.4503L29.6615 20.1446C31.3904 19.7939 31.6924 19.6585 32.0555 19.0719L32.2742 18.7185L32.2971 17.4497C32.3237 15.9781 32.2701 15.7018 31.8699 15.2471C31.495 14.8213 31.1449 14.6911 29.5125 14.371L28.1238 14.0986L28.0398 13.8372C27.9935 13.6933 27.8414 13.3234 27.7018 13.0151L27.4479 12.4545L28.2504 11.2446C28.6918 10.5791 29.1029 9.91372 29.164 9.76593C29.321 9.38647 29.3036 8.73123 29.1261 8.33999C28.9469 7.94506 27.4802 6.46621 27.0891 6.28627C26.7173 6.11522 26.1922 6.0642 25.8245 6.16342C25.6556 6.20895 24.9402 6.62924 24.2346 7.09738L22.9519 7.94853L22.5183 7.7477C22.2798 7.63721 21.9143 7.49101 21.7061 7.42279C21.4979 7.35457 21.3129 7.24769 21.295 7.18526C21.2772 7.12282 21.1435 6.47012 20.9979 5.73481C20.6995 4.22677 20.6446 4.06251 20.3121 3.68377C19.8514 3.15912 19.6453 3.09986 18.2185 3.08151C17.2489 3.06908 16.888 3.09011 16.6714 3.1717ZM16.7732 10.857C15.6354 11.1078 14.5888 11.638 13.8121 12.3571C13.3261 12.807 13.2655 13.0173 13.5265 13.3491C13.7828 13.6749 14.0791 13.6147 14.718 13.107C15.3251 12.6246 16.0667 12.2423 16.7732 12.0474C17.4995 11.8471 18.8854 11.8654 19.5898 12.0846C21.3692 12.6385 22.6482 13.8652 23.254 15.5991C23.4402 16.1321 23.456 16.2617 23.4568 17.2612C23.4579 18.4023 23.4282 18.5562 23.0165 19.5495C22.8748 19.8914 22.8597 19.996 22.925 20.1834C23.0121 20.4331 23.1778 20.5493 23.4471 20.5493C23.7432 20.5493 23.8539 20.4738 24.0118 20.1645C24.6626 18.8887 24.844 17.125 24.4735 15.6751C23.8942 13.4074 22.1823 11.6417 19.9132 10.9715C19.0262 10.7094 17.6671 10.6599 16.7732 10.857ZM17.0623 13.8982C16.4955 14.0816 16.0523 14.3534 15.6288 14.7768C14.5106 15.8951 14.2792 17.5427 15.0329 19.0201C15.2588 19.4629 15.9771 20.1488 16.4815 20.4034C17.3638 20.8488 18.1048 20.9371 18.996 20.7032C20.8553 20.215 22.0455 18.2695 21.5795 16.4802C21.2627 15.2641 20.44 14.3552 19.2724 13.9314C18.669 13.7124 17.682 13.6975 17.0623 13.8982ZM12.0923 14.9128C11.7677 15.2152 11.5262 16.5556 11.5921 17.6894C11.7555 20.5054 13.7592 22.9168 16.524 23.6252C17.4855 23.8715 18.68 23.8856 19.6277 23.6618C20.3632 23.4882 21.6134 22.9117 21.9632 22.585C22.253 22.3143 22.2728 21.9954 22.0157 21.7384C21.7759 21.4985 21.502 21.513 21.0691 21.7883C20.0586 22.4311 19.1173 22.6784 17.8688 22.629C17.2036 22.6027 16.9044 22.5543 16.448 22.3993C14.7305 21.8161 13.4899 20.5247 12.9331 18.7408C12.7184 18.0528 12.6982 16.6551 12.8928 15.95C12.9603 15.7057 13.0154 15.4106 13.0154 15.2941C13.0154 14.8473 12.4246 14.6032 12.0923 14.9128ZM17.3314 15.0229C16.6985 15.2552 16.0932 15.8694 15.8679 16.508C15.715 16.9413 15.7328 17.6489 15.9084 18.1182C16.303 19.173 17.4772 19.8304 18.5655 19.6058C19.1089 19.4937 19.4246 19.3262 19.7998 18.9509C21.3053 17.4454 20.2238 14.8952 18.0893 14.9176C17.8226 14.9204 17.4815 14.9678 17.3314 15.0229ZM30.2478 21.1187C29.9076 21.2732 29.6079 21.6028 29.5021 21.9386C29.4611 22.0687 29.3566 22.539 29.2699 22.9836L29.1122 23.7919L28.715 23.9531C28.4965 24.0418 28.2798 24.1143 28.2335 24.1143C28.1871 24.1143 27.8578 23.9187 27.5018 23.6795C26.6135 23.083 26.4461 23.0063 26.0315 23.0063C25.5033 23.0063 25.3404 23.0946 24.6789 23.7404C23.9938 24.409 23.8552 24.6496 23.8552 25.17C23.8552 25.5961 23.9477 25.7969 24.5697 26.7223L25.0031 27.3669L24.8918 27.6256C24.7003 28.0708 24.5056 28.6601 24.5056 28.7948C24.5056 28.9763 24.7951 29.2796 25.0181 29.3318C25.2519 29.3865 25.6231 29.0982 25.6952 28.8058C25.7222 28.6964 25.8558 28.3589 25.9921 28.0558C26.1285 27.7527 26.24 27.411 26.24 27.2966C26.24 27.1557 26.0415 26.7912 25.6257 26.1687C25.2879 25.6629 25.0115 25.2069 25.0115 25.1553C25.0115 25.0362 25.8887 24.1625 26.0083 24.1625C26.0576 24.1625 26.5119 24.439 27.0177 24.7768C28.0636 25.4753 28.151 25.4953 28.8054 25.1859C29.0439 25.0732 29.4119 24.9235 29.6231 24.8534C30.1003 24.6951 30.1452 24.605 30.4004 23.2954C30.505 22.7588 30.6238 22.2792 30.6644 22.2294C30.7132 22.1697 30.9522 22.1391 31.3709 22.1391C31.7895 22.1391 32.0286 22.1697 32.0773 22.2294C32.1179 22.2792 32.2367 22.7588 32.3413 23.2954C32.5967 24.606 32.6414 24.6954 33.1186 24.8517C33.3298 24.921 33.6888 25.0706 33.9161 25.1843C34.5419 25.4972 34.648 25.4739 35.6497 24.8027C36.1327 24.4792 36.5897 24.1982 36.6653 24.1785C36.7637 24.1528 36.935 24.2735 37.2665 24.6021C37.5216 24.8549 37.7302 25.1039 37.7302 25.1553C37.7302 25.2069 37.4538 25.6629 37.116 26.1687C36.4269 27.2005 36.3906 27.3428 36.6731 27.9047C36.7674 28.0921 36.9192 28.4519 37.0105 28.7042C37.2135 29.265 37.263 29.2915 38.5974 29.5515C39.134 29.656 39.6137 29.7748 39.6633 29.8155C39.7231 29.8642 39.7537 30.1033 39.7537 30.5219C39.7537 30.9406 39.7231 31.1796 39.6633 31.2284C39.6137 31.269 39.134 31.3878 38.5974 31.4924C37.2633 31.7523 37.212 31.7797 37.0069 32.3401C36.9146 32.5921 36.7633 32.9517 36.6705 33.1392C36.3914 33.703 36.4277 33.8446 37.116 34.8751C37.4538 35.3809 37.7302 35.837 37.7302 35.8885C37.7302 36.0077 36.8531 36.8813 36.7334 36.8813C36.6841 36.8813 36.2299 36.6049 35.7241 36.267C34.6935 35.5788 34.5519 35.5424 33.9881 35.8215C33.8007 35.9143 33.4411 36.0657 33.1891 36.158C32.6286 36.3631 32.6013 36.4144 32.3413 37.7485C32.2367 38.2851 32.1179 38.7648 32.0773 38.8144C32.0286 38.8742 31.7895 38.9047 31.3709 38.9047C30.9522 38.9047 30.7132 38.8742 30.6644 38.8144C30.6238 38.7648 30.505 38.2851 30.4004 37.7485C30.1404 36.414 30.1139 36.3646 29.5532 36.1616C29.3009 36.0703 28.9411 35.9184 28.7536 35.8242C28.1918 35.5416 28.0495 35.5779 27.0177 36.267C26.5119 36.6049 26.0558 36.8813 26.0043 36.8813C25.9528 36.8813 25.7038 36.6727 25.4511 36.4176C25.1224 36.086 25.0017 35.9147 25.0275 35.8164C25.0472 35.7408 25.3282 35.2838 25.6517 34.8008C26.3228 33.7991 26.3462 33.6929 26.0333 33.0672C25.9196 32.8398 25.7699 32.4809 25.7007 32.2697C25.5444 31.7925 25.4549 31.7478 24.1443 31.4924C23.6077 31.3878 23.1269 31.2681 23.0758 31.2263C23.0095 31.1721 22.9888 30.9622 23.0035 30.4932L23.0242 29.8361L23.2933 29.7097C23.7913 29.4755 23.9058 29.0549 23.5644 28.7135C23.3848 28.5339 23.0436 28.5316 22.6629 28.7073C22.0167 29.0056 21.8312 29.4149 21.8334 30.5377C21.8352 31.4616 21.9409 31.803 22.3255 32.1266C22.5984 32.3562 22.7911 32.4198 23.829 32.6222L24.6338 32.7791L24.8237 33.2192L25.0136 33.6593L24.5525 34.3518C23.9226 35.2979 23.8552 35.4449 23.8552 35.8731C23.8552 36.4016 23.9994 36.6461 24.7213 37.342C25.4096 38.0056 25.5925 38.0886 26.2125 38.0187C26.4629 37.9905 26.729 37.8544 27.3739 37.4249L28.2104 36.8678L28.6612 37.0594L29.1121 37.251L29.2698 38.0598C29.4731 39.1019 29.5364 39.2942 29.7662 39.5673C30.0921 39.9546 30.4297 40.0578 31.3709 40.0578C32.312 40.0578 32.6496 39.9546 32.9755 39.5673C33.2053 39.2942 33.2686 39.1019 33.4719 38.0598L33.6297 37.251L34.0805 37.0594L34.5313 36.8678L35.3759 37.4303C36.1431 37.9412 36.2589 37.9956 36.6405 38.0232C37.2187 38.0649 37.4546 37.9354 38.1909 37.1715C38.8545 36.4832 38.9375 36.3003 38.8676 35.6803C38.8394 35.4299 38.7034 35.1638 38.2739 34.5189L37.7167 33.6824L37.9083 33.2316L38.0999 32.7807L38.9087 32.623C39.9508 32.4197 40.1431 32.3564 40.4162 32.1266C40.8036 31.8007 40.9067 31.463 40.9067 30.5219C40.9067 29.5808 40.8036 29.2432 40.4162 28.9173C40.1431 28.6875 39.9508 28.6242 38.9087 28.4209L38.0999 28.2631L37.9083 27.8123L37.7167 27.3615L38.2739 26.5249C38.7034 25.88 38.8394 25.6139 38.8676 25.3635C38.9375 24.7436 38.8545 24.5607 38.1909 23.8723C37.4951 23.1505 37.2505 23.0063 36.7221 23.0063C36.2938 23.0063 36.1468 23.0736 35.2007 23.7036L34.5082 24.1646L34.0682 23.9748L33.6281 23.7849L33.4711 22.9801C33.2687 21.9422 33.2052 21.7495 32.9755 21.4766C32.6496 21.0892 32.312 20.986 31.3709 20.986C30.7188 20.986 30.4769 21.0146 30.2478 21.1187ZM30.4168 27.4095C29.8349 27.5955 29.4387 27.846 29.0111 28.2981C28.4138 28.9298 28.1189 29.6646 28.1189 30.5219C28.1189 32.6903 30.2572 34.2726 32.3208 33.6311C32.9038 33.4498 33.4729 33.076 33.5572 32.8189C33.6415 32.5614 33.4945 32.2528 33.2263 32.1243C33.0393 32.0347 32.9807 32.0481 32.4812 32.2949C31.4709 32.7941 30.6043 32.6917 29.9027 31.9901C28.3205 30.4077 30.016 27.7862 32.114 28.5711C32.8227 28.8363 33.4666 29.6958 33.4666 30.3767C33.4666 30.9941 34.0491 31.319 34.4454 30.9226C34.659 30.7092 34.6791 30.3347 34.5117 29.692C34.0528 27.9301 32.1338 26.8605 30.4168 27.4095Z" fill="white"/>
</g>
<defs>
<linearGradient id="paint0_linear_0_6817" x1="-0.0469116" y1="22.4861" x2="44.9347" y2="22.4861" gradientUnits="userSpaceOnUse">
<stop stop-color="#26A9E1"/>
<stop offset="1" stop-color="#3F6CFF"/>
</linearGradient>
<clipPath id="clip0_0_6817">
<rect width="37" height="37" fill="white" transform="translate(3.91016 3.06099)"/>
</clipPath>
</defs>
</svg>
