<svg width="101" height="100" viewBox="0 0 101 100" fill="none" xmlns="http://www.w3.org/2000/svg">
<g filter="url(#filter0_ii_0_5986)">
<path d="M0.727539 25C0.727539 11.1929 11.9204 0 25.7275 0H75.7275C89.5347 0 100.728 11.1929 100.728 25V75C100.728 88.8071 89.5347 100 75.7275 100H0.727539V25Z" fill="white"/>
</g>
<path d="M1.22754 25C1.22754 11.469 12.1966 0.5 25.7275 0.5H75.7275C89.2585 0.5 100.228 11.469 100.228 25V75C100.228 88.531 89.2585 99.5 75.7275 99.5H1.22754V25Z" stroke="white"/>
<path d="M67.1025 27H33.3525C31.8607 27 30.43 27.5926 29.3751 28.6475C28.3202 29.7024 27.7275 31.1332 27.7275 32.625V66.375C27.7275 67.8668 28.3202 69.2976 29.3751 70.3525C30.43 71.4074 31.8607 72 33.3525 72H67.1025C68.5944 72 70.0251 71.4074 71.08 70.3525C72.1349 69.2976 72.7275 67.8668 72.7275 66.375V32.625C72.7275 31.1332 72.1349 29.7024 71.08 28.6475C70.0251 27.5926 68.5944 27 67.1025 27ZM56.235 35.2575C56.232 35.0587 56.2689 34.8613 56.3436 34.677C56.4183 34.4928 56.5292 34.3254 56.6698 34.1848C56.8104 34.0442 56.9778 33.9333 57.1621 33.8586C57.3463 33.7839 57.5437 33.747 57.7425 33.75C58.1328 33.7613 58.504 33.9214 58.7801 34.1975C59.0561 34.4736 59.2162 34.8447 59.2275 35.235V55.26C59.1827 55.6252 59.0058 55.9614 58.7301 56.2053C58.4545 56.4491 58.0993 56.5837 57.7313 56.5837C57.3633 56.5837 57.008 56.4491 56.7324 56.2053C56.4568 55.9614 56.2799 55.6252 56.235 55.26V35.2575ZM48.72 34.4925C48.72 34.0927 48.8789 33.7092 49.1616 33.4265C49.4443 33.1438 49.8277 32.985 50.2275 32.985C50.6274 32.985 51.0108 33.1438 51.2935 33.4265C51.5762 33.7092 51.735 34.0927 51.735 34.4925V56.25C51.735 56.6498 51.5762 57.0333 51.2935 57.316C51.0108 57.5987 50.6274 57.7575 50.2275 57.7575C49.8277 57.7575 49.4443 57.5987 49.1616 57.316C48.8789 57.0333 48.72 56.6498 48.72 56.25V34.4925ZM41.2275 35.2575C41.2724 34.8923 41.4493 34.5561 41.7249 34.3122C42.0005 34.0684 42.3558 33.9338 42.7238 33.9338C43.0918 33.9338 43.447 34.0684 43.7226 34.3122C43.9983 34.5561 44.1752 34.8923 44.22 35.2575V55.2825C44.2201 55.4794 44.1809 55.6744 44.1049 55.856C44.0289 56.0377 43.9175 56.2024 43.7772 56.3406C43.6369 56.4788 43.4705 56.5877 43.2877 56.661C43.105 56.7343 42.9094 56.7705 42.7125 56.7675C42.3223 56.7562 41.9511 56.5961 41.675 56.32C41.3989 56.0439 41.2389 55.6728 41.2275 55.2825V35.2575ZM33.735 38.25C33.7799 37.8848 33.9568 37.5486 34.2324 37.3047C34.508 37.0609 34.8633 36.9263 35.2313 36.9263C35.5993 36.9263 35.9545 37.0609 36.2301 37.3047C36.5058 37.5486 36.6827 37.8848 36.7275 38.25V51.75C36.7216 52.1459 36.5602 52.5236 36.2781 52.8014C35.9961 53.0793 35.616 53.235 35.22 53.235C34.828 53.2292 34.4537 53.0709 34.1764 52.7936C33.8992 52.5164 33.7408 52.142 33.735 51.75V38.25ZM66.2025 61.1325C61.5765 64.5048 55.9478 66.2172 50.2275 65.9925C44.5073 66.2172 38.8785 64.5048 34.2525 61.1325C34.0176 60.8578 33.8892 60.5078 33.8908 60.1463C33.8923 59.7849 34.0237 59.436 34.2609 59.1633C34.4982 58.8906 34.8255 58.7122 35.1833 58.6607C35.5411 58.6091 35.9055 58.6879 36.21 58.8825C40.3093 61.7453 45.2313 63.1911 50.2275 63C55.2274 63.1928 60.1522 61.7383 64.245 58.86C64.5496 58.6654 64.914 58.5866 65.2718 58.6382C65.6295 58.6897 65.9569 58.8681 66.1941 59.1408C66.4314 59.4135 66.5628 59.7624 66.5643 60.1238C66.5658 60.4853 66.4375 60.8353 66.2025 61.11V61.1325ZM66.72 51.75C66.6752 52.1152 66.4983 52.4514 66.2226 52.6953C65.947 52.9391 65.5918 53.0737 65.2238 53.0737C64.8558 53.0737 64.5005 52.9391 64.2249 52.6953C63.9493 52.4514 63.7724 52.1152 63.7275 51.75V38.25C63.7334 37.8541 63.8949 37.4764 64.177 37.1986C64.459 36.9207 64.8391 36.765 65.235 36.765C65.6289 36.765 66.0066 36.9215 66.2851 37.1999C66.5636 37.4784 66.72 37.8562 66.72 38.25V51.75Z" fill="url(#paint0_linear_0_5986)"/>
<defs>
<filter id="filter0_ii_0_5986" x="-3.27246" y="0" width="108" height="104" filterUnits="userSpaceOnUse" color-interpolation-filters="sRGB">
<feFlood flood-opacity="0" result="BackgroundImageFix"/>
<feBlend mode="normal" in="SourceGraphic" in2="BackgroundImageFix" result="shape"/>
<feColorMatrix in="SourceAlpha" type="matrix" values="0 0 0 0 0 0 0 0 0 0 0 0 0 0 0 0 0 0 127 0" result="hardAlpha"/>
<feOffset dx="4" dy="4"/>
<feGaussianBlur stdDeviation="15"/>
<feComposite in2="hardAlpha" operator="arithmetic" k2="-1" k3="1"/>
<feColorMatrix type="matrix" values="0 0 0 0 0.819608 0 0 0 0 0.85098 0 0 0 0 0.901961 0 0 0 1 0"/>
<feBlend mode="normal" in2="shape" result="effect1_innerShadow_0_5986"/>
<feColorMatrix in="SourceAlpha" type="matrix" values="0 0 0 0 0 0 0 0 0 0 0 0 0 0 0 0 0 0 127 0" result="hardAlpha"/>
<feOffset dx="-4" dy="4"/>
<feGaussianBlur stdDeviation="15"/>
<feComposite in2="hardAlpha" operator="arithmetic" k2="-1" k3="1"/>
<feColorMatrix type="matrix" values="0 0 0 0 1 0 0 0 0 1 0 0 0 0 1 0 0 0 0.5 0"/>
<feBlend mode="normal" in2="effect1_innerShadow_0_5986" result="effect2_innerShadow_0_5986"/>
</filter>
<linearGradient id="paint0_linear_0_5986" x1="27.6806" y1="49.4861" x2="72.6623" y2="49.4861" gradientUnits="userSpaceOnUse">
<stop stop-color="#26A9E1"/>
<stop offset="1" stop-color="#3F6CFF"/>
</linearGradient>
</defs>
</svg>
