<svg width="101" height="100" viewBox="0 0 101 100" fill="none" xmlns="http://www.w3.org/2000/svg">
<g filter="url(#filter0_ii_0_6002)">
<path d="M0.272461 25C0.272461 11.1929 11.4653 0 25.2725 0H75.2725C89.0796 0 100.272 11.1929 100.272 25V75C100.272 88.8071 89.0796 100 75.2725 100H0.272461V25Z" fill="white"/>
</g>
<path d="M0.772461 25C0.772461 11.469 11.7415 0.5 25.2725 0.5H75.2725C88.8034 0.5 99.7725 11.469 99.7725 25V75C99.7725 88.531 88.8034 99.5 75.2725 99.5H0.772461V25Z" stroke="white"/>
<path d="M44.6388 46.0313H49.6762C50.1362 46.0313 50.5773 45.8486 50.9026 45.5233C51.2278 45.1981 51.4106 44.7569 51.4106 44.2969C51.4106 43.837 51.2278 43.3958 50.9026 43.0705C50.5773 42.7453 50.1362 42.5626 49.6762 42.5626H44.6388C44.1788 42.5626 43.7377 42.7453 43.4124 43.0705C43.0872 43.3958 42.9044 43.837 42.9044 44.2969C42.9044 44.7569 43.0872 45.1981 43.4124 45.5233C43.7377 45.8486 44.1788 46.0313 44.6388 46.0313ZM66.5049 27H33.0399C31.512 27.0056 30.0483 27.6151 28.9679 28.6955C27.8875 29.7759 27.278 31.2396 27.2725 32.7675V66.2323C27.278 67.7602 27.8874 69.224 28.9678 70.3045C30.0482 71.3849 31.512 71.9944 33.0399 72H66.5046C68.0326 71.9945 69.4964 71.3852 70.5769 70.3048C71.6574 69.2244 72.2669 67.7606 72.2725 66.2326V32.7675C72.2669 31.2396 71.6575 29.7758 70.5771 28.6954C69.4966 27.6149 68.0329 27.0055 66.5049 27ZM64.0916 48.775L64.0474 54.7947C64.0298 57.1958 63.0656 59.4929 61.3642 61.1872C59.6629 62.8815 57.3617 63.8362 54.9606 63.8438H44.5229C42.1189 63.8394 39.8141 62.8851 38.1106 61.1888C36.4072 59.4925 35.4432 57.1917 35.4288 54.7877V44.2255C35.4417 41.8199 36.4048 39.5168 38.1082 37.8181C39.8115 36.1194 42.1172 35.1626 44.5228 35.1562H50.8762C52.3398 35.4101 53.7288 35.9858 54.9429 36.8417C56.157 37.6976 57.1659 38.8124 57.8969 40.1056C58.3976 41.0565 58.6759 42.1087 58.7109 43.1829C58.8626 44.3204 58.9423 45.1656 59.4536 45.6341C60.1721 46.2854 62.845 45.8466 63.3735 46.2605L63.7759 46.5752L64.0209 47.0739L64.1019 47.4734L64.0916 48.775ZM54.8734 52.9688H44.6388C44.4129 52.9619 44.1878 53.0004 43.9771 53.0821C43.7663 53.1638 43.5741 53.287 43.4118 53.4444C43.2496 53.6018 43.1206 53.7902 43.0325 53.9983C42.9444 54.2065 42.899 54.4303 42.899 54.6563C42.899 54.8824 42.9444 55.1061 43.0325 55.3143C43.1206 55.5224 43.2496 55.7108 43.4118 55.8682C43.5741 56.0256 43.7663 56.1488 43.9771 56.2305C44.1878 56.3122 44.4129 56.3507 44.6388 56.3438H54.8734C55.0986 56.3495 55.3227 56.3101 55.5324 56.2278C55.7421 56.1456 55.9333 56.0222 56.0945 55.8649C56.2558 55.7077 56.384 55.5197 56.4715 55.3121C56.5591 55.1046 56.6041 54.8816 56.6041 54.6563C56.6041 54.431 56.5591 54.208 56.4715 54.0005C56.384 53.7929 56.2558 53.6049 56.0945 53.4477C55.9333 53.2904 55.7421 53.167 55.5324 53.0848C55.3227 53.0025 55.0986 52.9631 54.8734 52.9688H54.8734Z" fill="url(#paint0_linear_0_6002)"/>
<defs>
<filter id="filter0_ii_0_6002" x="-3.72754" y="0" width="108" height="104" filterUnits="userSpaceOnUse" color-interpolation-filters="sRGB">
<feFlood flood-opacity="0" result="BackgroundImageFix"/>
<feBlend mode="normal" in="SourceGraphic" in2="BackgroundImageFix" result="shape"/>
<feColorMatrix in="SourceAlpha" type="matrix" values="0 0 0 0 0 0 0 0 0 0 0 0 0 0 0 0 0 0 127 0" result="hardAlpha"/>
<feOffset dx="4" dy="4"/>
<feGaussianBlur stdDeviation="15"/>
<feComposite in2="hardAlpha" operator="arithmetic" k2="-1" k3="1"/>
<feColorMatrix type="matrix" values="0 0 0 0 0.819608 0 0 0 0 0.85098 0 0 0 0 0.901961 0 0 0 1 0"/>
<feBlend mode="normal" in2="shape" result="effect1_innerShadow_0_6002"/>
<feColorMatrix in="SourceAlpha" type="matrix" values="0 0 0 0 0 0 0 0 0 0 0 0 0 0 0 0 0 0 127 0" result="hardAlpha"/>
<feOffset dx="-4" dy="4"/>
<feGaussianBlur stdDeviation="15"/>
<feComposite in2="hardAlpha" operator="arithmetic" k2="-1" k3="1"/>
<feColorMatrix type="matrix" values="0 0 0 0 1 0 0 0 0 1 0 0 0 0 1 0 0 0 0.5 0"/>
<feBlend mode="normal" in2="effect1_innerShadow_0_6002" result="effect2_innerShadow_0_6002"/>
</filter>
<linearGradient id="paint0_linear_0_6002" x1="27.2255" y1="49.4861" x2="72.2072" y2="49.4861" gradientUnits="userSpaceOnUse">
<stop stop-color="#26A9E1"/>
<stop offset="1" stop-color="#3F6CFF"/>
</linearGradient>
</defs>
</svg>
