<svg width="100" height="100" viewBox="0 0 100 100" fill="none" xmlns="http://www.w3.org/2000/svg">
<g filter="url(#filter0_ii_0_5994)">
<path d="M0 25C0 11.1929 11.1929 0 25 0H75C88.8071 0 100 11.1929 100 25V75C100 88.8071 88.8071 100 75 100H0V25Z" fill="white"/>
</g>
<path d="M0.5 25C0.5 11.469 11.469 0.5 25 0.5H75C88.531 0.5 99.5 11.469 99.5 25V75C99.5 88.531 88.531 99.5 75 99.5H0.5V25Z" stroke="white"/>
<path d="M49.5 27C45.0499 27 40.6998 28.3196 36.9997 30.7919C33.2996 33.2643 30.4157 36.7783 28.7127 40.8896C27.0097 45.001 26.5642 49.525 27.4323 53.8895C28.3005 58.2541 30.4434 62.2632 33.5901 65.4099C36.7368 68.5566 40.7459 70.6995 45.1105 71.5677C49.475 72.4358 53.999 71.9902 58.1104 70.2873C62.2217 68.5843 65.7357 65.7004 68.2081 62.0003C70.6804 58.3002 72 53.9501 72 49.5C72 46.5453 71.418 43.6194 70.2873 40.8896C69.1566 38.1598 67.4992 35.6794 65.4099 33.5901C63.3206 31.5008 60.8402 29.8434 58.1104 28.7127C55.3806 27.582 52.4547 27 49.5 27ZM38.6775 52.5375H34.3575L35.5275 47.115H39.6675C42.3675 47.115 42.9975 48.42 42.9975 49.4775C42.9975 50.94 42.03 52.5375 38.6775 52.5375ZM40.1625 44.3475H35.865L37.035 38.925H41.175C43.8525 38.925 44.4825 40.2525 44.4825 41.175C44.4825 42.75 43.5375 44.3475 40.1625 44.3475ZM48.6 61.065H44.28L45.4725 55.62H49.6125C52.29 55.62 52.92 56.9475 52.92 58.005C52.92 59.4675 51.975 61.065 48.6 61.065ZM50.1975 52.5375H45.9L47.07 47.115H51.21C53.8875 47.115 54.5175 48.42 54.5175 49.4775C54.5175 50.94 53.5725 52.5375 50.1975 52.5375ZM51.75 44.3475H47.385L48.555 38.925H52.695C55.395 38.925 56.025 40.2525 56.025 41.175C56.025 42.75 55.0575 44.3475 51.75 44.3475ZM60.165 56.97H55.8225L56.9925 51.525H61.1325C63.81 51.525 64.4625 52.8525 64.4625 53.91C64.4625 55.3725 63.495 56.97 60.12 56.97H60.165ZM61.785 49.23H57.42L58.5 43.785H62.64C65.34 43.785 65.97 45.1125 65.97 46.035C66.06 47.6325 65.0925 49.23 61.74 49.23H61.785Z" fill="url(#paint0_linear_0_5994)"/>
<defs>
<filter id="filter0_ii_0_5994" x="-4" y="0" width="108" height="104" filterUnits="userSpaceOnUse" color-interpolation-filters="sRGB">
<feFlood flood-opacity="0" result="BackgroundImageFix"/>
<feBlend mode="normal" in="SourceGraphic" in2="BackgroundImageFix" result="shape"/>
<feColorMatrix in="SourceAlpha" type="matrix" values="0 0 0 0 0 0 0 0 0 0 0 0 0 0 0 0 0 0 127 0" result="hardAlpha"/>
<feOffset dx="4" dy="4"/>
<feGaussianBlur stdDeviation="15"/>
<feComposite in2="hardAlpha" operator="arithmetic" k2="-1" k3="1"/>
<feColorMatrix type="matrix" values="0 0 0 0 0.819608 0 0 0 0 0.85098 0 0 0 0 0.901961 0 0 0 1 0"/>
<feBlend mode="normal" in2="shape" result="effect1_innerShadow_0_5994"/>
<feColorMatrix in="SourceAlpha" type="matrix" values="0 0 0 0 0 0 0 0 0 0 0 0 0 0 0 0 0 0 127 0" result="hardAlpha"/>
<feOffset dx="-4" dy="4"/>
<feGaussianBlur stdDeviation="15"/>
<feComposite in2="hardAlpha" operator="arithmetic" k2="-1" k3="1"/>
<feColorMatrix type="matrix" values="0 0 0 0 1 0 0 0 0 1 0 0 0 0 1 0 0 0 0.5 0"/>
<feBlend mode="normal" in2="effect1_innerShadow_0_5994" result="effect2_innerShadow_0_5994"/>
</filter>
<linearGradient id="paint0_linear_0_5994" x1="26.9531" y1="49.4861" x2="71.9347" y2="49.4861" gradientUnits="userSpaceOnUse">
<stop stop-color="#26A9E1"/>
<stop offset="1" stop-color="#3F6CFF"/>
</linearGradient>
</defs>
</svg>
